  0
SECTION
  2
HEADER
  9
$ACADVER
  1
AC1014
  9
$HANDSEED
  5
FFFF
  9
$MEASUREMENT
 70
     1
  0
ENDSEC
  0
SECTION
  2
TABLES
  0
TABLE
  2
VPORT
  5
8
330
0
100
AcDbSymbolTable
 70
     4
  0
VPORT
  5
2E
330
8
100
AcDbSymbolTableRecord
100
AcDbViewportTableRecord
  2
*ACTIVE
 70
     0
 10
0.0
 20
0.0
 11
1.0
 21
1.0
 12
210.0
 22
148.5
 13
0.0
 23
0.0
 14
10.0
 24
10.0
 15
10.0
 25
10.0
 16
0.0
 26
0.0
 36
1.0
 17
0.0
 27
0.0
 37
0.0
 40
341.0
 41
1.24
 42
50.0
 43
0.0
 44
0.0
 50
0.0
 51
0.0
 71
     0
 72
   100
 73
     1
 74
     3
 75
     0
 76
     0
 77
     0
 78
     0
  0
ENDTAB
  0
TABLE
  2
LTYPE
  5
5
330
0
100
AcDbSymbolTable
 70
     1
  0
LTYPE
  5
14
330
5
100
AcDbSymbolTableRecord
100
AcDbLinetypeTableRecord
  2
BYBLOCK
 70
     0
  3

 72
    65
 73
     0
 40
0.0
  0
LTYPE
  5
15
330
5
100
AcDbSymbolTableRecord
100
AcDbLinetypeTableRecord
  2
BYLAYER
 70
     0
  3

 72
    65
 73
     0
 40
0.0
  0
LTYPE
  5
16
330
5
100
AcDbSymbolTableRecord
100
AcDbLinetypeTableRecord
  2
CONTINUOUS
 70
     0
  3
Solid line
 72
    65
 73
     0
 40
0.0
  0
ENDTAB
  0
TABLE
  2
LAYER
  5
2
100
AcDbSymbolTable
 70
2
  0
LAYER
  5
50
100
AcDbSymbolTableRecord
100
AcDbLayerTableRecord
  2
0
 70
0
  6
CONTINUOUS
  0
LAYER
  5
51
100
AcDbSymbolTableRecord
100
AcDbLayerTableRecord
  2
Layer_1
 70
0
  6
CONTINUOUS
  0
ENDTAB
  0
TABLE
  2
STYLE
  5
3
330
0
100
AcDbSymbolTable
 70
     1
  0
STYLE
  5
11
330
3
100
AcDbSymbolTableRecord
100
AcDbTextStyleTableRecord
  2
STANDARD
 70
     0
 40
0.0
 41
1.0
 50
0.0
 71
     0
 42
2.5
  3
txt
  4

  0
ENDTAB
  0
TABLE
  2
VIEW
  5
6
330
0
100
AcDbSymbolTable
 70
     0
  0
ENDTAB
  0
TABLE
  2
UCS
  5
7
330
0
100
AcDbSymbolTable
 70
     0
  0
ENDTAB
  0
TABLE
  2
APPID
  5
9
330
0
100
AcDbSymbolTable
 70
     2
  0
APPID
  5
12
330
9
100
AcDbSymbolTableRecord
100
AcDbRegAppTableRecord
  2
ACAD
 70
     0
  0
ENDTAB
  0
TABLE
  2
DIMSTYLE
  5
A
330
0
100
AcDbSymbolTable
 70
     1
  0
DIMSTYLE
105
27
330
A
100
AcDbSymbolTableRecord
100
AcDbDimStyleTableRecord
  2
ISO-25
 70
     0
  3

  4

  5

  6

  7

 40
1.0
 41
2.5
 42
0.625
 43
3.75
 44
1.25
 45
0.0
 46
0.0
 47
0.0
 48
0.0
140
2.5
141
2.5
142
0.0
143
0.03937007874016
144
1.0
145
0.0
146
1.0
147
0.625
 71
     0
 72
     0
 73
     0
 74
     0
 75
     0
 76
     0
 77
     1
 78
     8
170
     0
171
     3
172
     1
173
     0
174
     0
175
     0
176
     0
177
     0
178
     0
270
     2
271
     2
272
     2
273
     2
274
     3
340
11
275
     0
280
     0
281
     0
282
     0
283
     0
284
     8
285
     0
286
     0
287
     3
288
     0
  0
ENDTAB
  0
TABLE
  2
BLOCK_RECORD
  5
1
330
0
100
AcDbSymbolTable
 70
     1
  0
BLOCK_RECORD
  5
1F
330
1
100
AcDbSymbolTableRecord
100
AcDbBlockTableRecord
  2
*MODEL_SPACE
  0
BLOCK_RECORD
  5
1B
330
1
100
AcDbSymbolTableRecord
100
AcDbBlockTableRecord
  2
*PAPER_SPACE
  0
ENDTAB
  0
ENDSEC
  0
SECTION
  2
BLOCKS
  0
BLOCK
  5
20
330
1F
100
AcDbEntity
  8
0
100
AcDbBlockBegin
  2
*MODEL_SPACE
 70
     0
 10
0.0
 20
0.0
 30
0.0
  3
*MODEL_SPACE
  1

  0
ENDBLK
  5
21
330
1F
100
AcDbEntity
  8
0
100
AcDbBlockEnd
  0
BLOCK
  5
1C
330
1B
100
AcDbEntity
 67
     1
  8
0
100
AcDbBlockBegin
  2
*PAPER_SPACE
  1

  0
ENDBLK
  5
1D
330
1B
100
AcDbEntity
 67
     1
  8
0
100
AcDbBlockEnd
  0
ENDSEC
  0
SECTION
  2
ENTITIES
  0
LINE
  5
100
100
AcDbEntity
  8
Layer_1
 62
7
100
AcDbLine
 10
181.252990
 20
576.057911
 30
0.0
 11
200.405477
 21
576.057911
 31
0.0
  0
LINE
  5
101
100
AcDbEntity
  8
Layer_1
 62
7
100
AcDbLine
 10
200.405477
 20
576.057911
 30
0.0
 11
200.405477
 21
360.309421
 31
0.0
  0
LINE
  5
102
100
AcDbEntity
  8
Layer_1
 62
7
100
AcDbLine
 10
200.405477
 20
360.309421
 30
0.0
 11
181.252990
 21
360.309421
 31
0.0
  0
LINE
  5
103
100
AcDbEntity
  8
Layer_1
 62
7
100
AcDbLine
 10
181.252990
 20
360.309421
 30
0.0
 11
181.252990
 21
576.057911
 31
0.0
  0
LINE
  5
104
100
AcDbEntity
  8
Layer_1
 62
7
100
AcDbLine
 10
917.325760
 20
576.057911
 30
0.0
 11
936.478247
 21
576.057911
 31
0.0
  0
LINE
  5
105
100
AcDbEntity
  8
Layer_1
 62
7
100
AcDbLine
 10
936.478247
 20
576.057911
 30
0.0
 11
936.478247
 21
360.309421
 31
0.0
  0
LINE
  5
106
100
AcDbEntity
  8
Layer_1
 62
7
100
AcDbLine
 10
936.478247
 20
360.309421
 30
0.0
 11
917.325760
 21
360.309421
 31
0.0
  0
LINE
  5
107
100
AcDbEntity
  8
Layer_1
 62
7
100
AcDbLine
 10
917.325760
 20
360.309421
 30
0.0
 11
917.325760
 21
576.057911
 31
0.0
  0
LINE
  5
108
100
AcDbEntity
  8
Layer_1
 62
7
100
AcDbLine
 10
181.164340
 20
340.640510
 30
0.0
 11
181.164340
 21
594.620020
 31
0.0
  0
LINE
  5
109
100
AcDbEntity
  8
Layer_1
 62
7
100
AcDbLine
 10
181.164340
 20
594.620020
 30
0.0
 11
936.529330
 21
594.620020
 31
0.0
  0
LINE
  5
10a
100
AcDbEntity
  8
Layer_1
 62
7
100
AcDbLine
 10
936.529330
 20
594.620020
 30
0.0
 11
936.529330
 21
340.640510
 31
0.0
  0
LINE
  5
10b
100
AcDbEntity
  8
Layer_1
 62
7
100
AcDbLine
 10
936.529330
 20
340.640510
 30
0.0
 11
181.164340
 21
340.640510
 31
0.0
  0
LINE
  5
10c
100
AcDbEntity
  8
Layer_1
 62
7
100
AcDbLine
 10
28.953649
 20
438.372200
 30
0.0
 11
28.953649
 21
495.281719
 31
0.0
  0
LINE
  5
10d
100
AcDbEntity
  8
Layer_1
 62
7
100
AcDbLine
 10
28.953649
 20
495.281719
 30
0.0
 11
105.167165
 21
495.281719
 31
0.0
  0
LINE
  5
10e
100
AcDbEntity
  8
Layer_1
 62
7
100
AcDbLine
 10
105.167165
 20
495.281719
 30
0.0
 11
105.167165
 21
438.372200
 31
0.0
  0
LINE
  5
10f
100
AcDbEntity
  8
Layer_1
 62
7
100
AcDbLine
 10
105.167165
 20
438.372200
 30
0.0
 11
28.953649
 21
438.372200
 31
0.0
  0
LINE
  5
110
100
AcDbEntity
  8
Layer_1
 62
7
100
AcDbLine
 10
181.243100
 20
438.374400
 30
0.0
 11
181.243100
 21
419.450925
 31
0.0
  0
LINE
  5
111
100
AcDbEntity
  8
Layer_1
 62
7
100
AcDbLine
 10
181.243100
 20
419.450925
 30
0.0
 11
28.969630
 21
419.450925
 31
0.0
  0
LINE
  5
112
100
AcDbEntity
  8
Layer_1
 62
7
100
AcDbLine
 10
28.969630
 20
419.450925
 30
0.0
 11
28.969630
 21
438.374400
 31
0.0
  0
LINE
  5
113
100
AcDbEntity
  8
Layer_1
 62
7
100
AcDbLine
 10
28.969630
 20
438.374400
 30
0.0
 11
181.243100
 21
438.374400
 31
0.0
  0
LINE
  5
114
100
AcDbEntity
  8
Layer_1
 62
7
100
AcDbLine
 10
181.243260
 20
514.566040
 30
0.0
 11
181.243260
 21
495.642565
 31
0.0
  0
LINE
  5
115
100
AcDbEntity
  8
Layer_1
 62
7
100
AcDbLine
 10
181.243260
 20
495.642565
 30
0.0
 11
28.969790
 21
495.642565
 31
0.0
  0
LINE
  5
116
100
AcDbEntity
  8
Layer_1
 62
7
100
AcDbLine
 10
28.969790
 20
495.642565
 30
0.0
 11
28.969790
 21
514.566040
 31
0.0
  0
LINE
  5
117
100
AcDbEntity
  8
Layer_1
 62
7
100
AcDbLine
 10
28.969790
 20
514.566040
 30
0.0
 11
181.243260
 21
514.566040
 31
0.0
  0
LINE
  5
118
100
AcDbEntity
  8
Layer_1
 62
7
100
AcDbLine
 10
124.113180
 20
438.565000
 30
0.0
 11
105.140741
 21
438.565000
 31
0.0
  0
LINE
  5
119
100
AcDbEntity
  8
Layer_1
 62
7
100
AcDbLine
 10
105.140741
 20
438.565000
 30
0.0
 11
105.140741
 21
495.637437
 31
0.0
  0
LINE
  5
11a
100
AcDbEntity
  8
Layer_1
 62
7
100
AcDbLine
 10
105.140741
 20
495.637437
 30
0.0
 11
124.113180
 21
495.637437
 31
0.0
  0
LINE
  5
11b
100
AcDbEntity
  8
Layer_1
 62
7
100
AcDbLine
 10
124.113180
 20
495.637437
 30
0.0
 11
124.113180
 21
438.565000
 31
0.0
  0
LINE
  5
11c
100
AcDbEntity
  8
Layer_1
 62
7
100
AcDbLine
 10
28.969631
 20
419.450940
 30
0.0
 11
10.019295
 21
419.450940
 31
0.0
  0
LINE
  5
11d
100
AcDbEntity
  8
Layer_1
 62
7
100
AcDbLine
 10
10.019295
 20
419.450940
 30
0.0
 11
10.019295
 21
514.600850
 31
0.0
  0
LINE
  5
11e
100
AcDbEntity
  8
Layer_1
 62
7
100
AcDbLine
 10
10.019295
 20
514.600850
 30
0.0
 11
28.969631
 21
514.600850
 31
0.0
  0
LINE
  5
11f
100
AcDbEntity
  8
Layer_1
 62
7
100
AcDbLine
 10
28.969631
 20
514.600850
 30
0.0
 11
28.969631
 21
419.450940
 31
0.0
  0
LINE
  5
120
100
AcDbEntity
  8
Layer_1
 62
7
100
AcDbLine
 10
36.247595
 20
446.915480
 30
0.0
 11
36.247595
 21
488.190482
 31
0.0
  0
LINE
  5
121
100
AcDbEntity
  8
Layer_1
 62
7
100
AcDbLine
 10
36.247595
 20
488.190482
 30
0.0
 11
99.747595
 21
488.190482
 31
0.0
  0
LINE
  5
122
100
AcDbEntity
  8
Layer_1
 62
7
100
AcDbLine
 10
99.747595
 20
488.190482
 30
0.0
 11
99.747595
 21
446.915480
 31
0.0
  0
LINE
  5
123
100
AcDbEntity
  8
Layer_1
 62
7
100
AcDbLine
 10
99.747595
 20
446.915480
 30
0.0
 11
36.247595
 21
446.915480
 31
0.0
  0
SPLINE
  5
124
100
AcDbEntity
  8
Layer_1
 62
7
100
AcDbSpline
 70
8
 71
3
 72
8
 73
4
 74
0
 40
0
 40
0
 40
0
 40
0
 40
1
 40
1
 40
1
 40
1
 10
33.726623
 20
446.992990
 30
0.0
 10
33.726623
 20
446.022281
 30
0.0
 10
34.311364
 20
445.147153
 30
0.0
 10
35.208183
 20
444.775679
 30
0.0
  0
SPLINE
  5
125
100
AcDbEntity
  8
Layer_1
 62
7
100
AcDbSpline
 70
8
 71
3
 72
8
 73
4
 74
0
 40
0
 40
0
 40
0
 40
0
 40
1
 40
1
 40
1
 40
1
 10
35.208183
 20
444.775679
 30
0.0
 10
36.105001
 20
444.404205
 30
0.0
 10
37.137284
 20
444.609538
 30
0.0
 10
37.823679
 20
445.295934
 30
0.0
  0
SPLINE
  5
126
100
AcDbEntity
  8
Layer_1
 62
7
100
AcDbSpline
 70
8
 71
3
 72
8
 73
4
 74
0
 40
0
 40
0
 40
0
 40
0
 40
1
 40
1
 40
1
 40
1
 10
37.823679
 20
445.295934
 30
0.0
 10
38.510075
 20
445.982329
 30
0.0
 10
38.715408
 20
447.014612
 30
0.0
 10
38.343934
 20
447.911430
 30
0.0
  0
SPLINE
  5
127
100
AcDbEntity
  8
Layer_1
 62
7
100
AcDbSpline
 70
8
 71
3
 72
8
 73
4
 74
0
 40
0
 40
0
 40
0
 40
0
 40
1
 40
1
 40
1
 40
1
 10
38.343934
 20
447.911430
 30
0.0
 10
37.972460
 20
448.808249
 30
0.0
 10
37.097332
 20
449.392990
 30
0.0
 10
36.126623
 20
449.392990
 30
0.0
  0
SPLINE
  5
128
100
AcDbEntity
  8
Layer_1
 62
7
100
AcDbSpline
 70
8
 71
3
 72
8
 73
4
 74
0
 40
0
 40
0
 40
0
 40
0
 40
1
 40
1
 40
1
 40
1
 10
36.126623
 20
449.392990
 30
0.0
 10
35.490103
 20
449.392990
 30
0.0
 10
34.879654
 20
449.140134
 30
0.0
 10
34.429567
 20
448.690046
 30
0.0
  0
SPLINE
  5
129
100
AcDbEntity
  8
Layer_1
 62
7
100
AcDbSpline
 70
8
 71
3
 72
8
 73
4
 74
0
 40
0
 40
0
 40
0
 40
0
 40
1
 40
1
 40
1
 40
1
 10
34.429567
 20
448.690046
 30
0.0
 10
33.979479
 20
448.239959
 30
0.0
 10
33.726623
 20
447.629510
 30
0.0
 10
33.726623
 20
446.992990
 30
0.0
  0
LINE
  5
12a
100
AcDbEntity
  8
Layer_1
 62
7
100
AcDbLine
 10
33.726623
 20
446.992990
 30
0.0
 11
33.726623
 21
446.992990
 31
0.0
  0
SPLINE
  5
12b
100
AcDbEntity
  8
Layer_1
 62
7
100
AcDbSpline
 70
8
 71
3
 72
8
 73
4
 74
0
 40
0
 40
0
 40
0
 40
0
 40
1
 40
1
 40
1
 40
1
 10
33.726623
 20
488.267450
 30
0.0
 10
33.726623
 20
487.296741
 30
0.0
 10
34.311364
 20
486.421613
 30
0.0
 10
35.208183
 20
486.050139
 30
0.0
  0
SPLINE
  5
12c
100
AcDbEntity
  8
Layer_1
 62
7
100
AcDbSpline
 70
8
 71
3
 72
8
 73
4
 74
0
 40
0
 40
0
 40
0
 40
0
 40
1
 40
1
 40
1
 40
1
 10
35.208183
 20
486.050139
 30
0.0
 10
36.105001
 20
485.678665
 30
0.0
 10
37.137284
 20
485.883998
 30
0.0
 10
37.823679
 20
486.570394
 30
0.0
  0
SPLINE
  5
12d
100
AcDbEntity
  8
Layer_1
 62
7
100
AcDbSpline
 70
8
 71
3
 72
8
 73
4
 74
0
 40
0
 40
0
 40
0
 40
0
 40
1
 40
1
 40
1
 40
1
 10
37.823679
 20
486.570394
 30
0.0
 10
38.510075
 20
487.256789
 30
0.0
 10
38.715408
 20
488.289072
 30
0.0
 10
38.343934
 20
489.185890
 30
0.0
  0
SPLINE
  5
12e
100
AcDbEntity
  8
Layer_1
 62
7
100
AcDbSpline
 70
8
 71
3
 72
8
 73
4
 74
0
 40
0
 40
0
 40
0
 40
0
 40
1
 40
1
 40
1
 40
1
 10
38.343934
 20
489.185890
 30
0.0
 10
37.972460
 20
490.082709
 30
0.0
 10
37.097332
 20
490.667450
 30
0.0
 10
36.126623
 20
490.667450
 30
0.0
  0
SPLINE
  5
12f
100
AcDbEntity
  8
Layer_1
 62
7
100
AcDbSpline
 70
8
 71
3
 72
8
 73
4
 74
0
 40
0
 40
0
 40
0
 40
0
 40
1
 40
1
 40
1
 40
1
 10
36.126623
 20
490.667450
 30
0.0
 10
35.490103
 20
490.667450
 30
0.0
 10
34.879654
 20
490.414594
 30
0.0
 10
34.429567
 20
489.964506
 30
0.0
  0
SPLINE
  5
130
100
AcDbEntity
  8
Layer_1
 62
7
100
AcDbSpline
 70
8
 71
3
 72
8
 73
4
 74
0
 40
0
 40
0
 40
0
 40
0
 40
1
 40
1
 40
1
 40
1
 10
34.429567
 20
489.964506
 30
0.0
 10
33.979479
 20
489.514419
 30
0.0
 10
33.726623
 20
488.903970
 30
0.0
 10
33.726623
 20
488.267450
 30
0.0
  0
LINE
  5
131
100
AcDbEntity
  8
Layer_1
 62
7
100
AcDbLine
 10
33.726623
 20
488.267450
 30
0.0
 11
33.726623
 21
488.267450
 31
0.0
  0
SPLINE
  5
132
100
AcDbEntity
  8
Layer_1
 62
7
100
AcDbSpline
 70
8
 71
3
 72
8
 73
4
 74
0
 40
0
 40
0
 40
0
 40
0
 40
1
 40
1
 40
1
 40
1
 10
97.226688
 20
488.267450
 30
0.0
 10
97.226688
 20
487.296741
 30
0.0
 10
97.811429
 20
486.421613
 30
0.0
 10
98.708248
 20
486.050139
 30
0.0
  0
SPLINE
  5
133
100
AcDbEntity
  8
Layer_1
 62
7
100
AcDbSpline
 70
8
 71
3
 72
8
 73
4
 74
0
 40
0
 40
0
 40
0
 40
0
 40
1
 40
1
 40
1
 40
1
 10
98.708248
 20
486.050139
 30
0.0
 10
99.605066
 20
485.678665
 30
0.0
 10
100.637349
 20
485.883998
 30
0.0
 10
101.323744
 20
486.570394
 30
0.0
  0
SPLINE
  5
134
100
AcDbEntity
  8
Layer_1
 62
7
100
AcDbSpline
 70
8
 71
3
 72
8
 73
4
 74
0
 40
0
 40
0
 40
0
 40
0
 40
1
 40
1
 40
1
 40
1
 10
101.323744
 20
486.570394
 30
0.0
 10
102.010140
 20
487.256789
 30
0.0
 10
102.215473
 20
488.289072
 30
0.0
 10
101.843999
 20
489.185890
 30
0.0
  0
SPLINE
  5
135
100
AcDbEntity
  8
Layer_1
 62
7
100
AcDbSpline
 70
8
 71
3
 72
8
 73
4
 74
0
 40
0
 40
0
 40
0
 40
0
 40
1
 40
1
 40
1
 40
1
 10
101.843999
 20
489.185890
 30
0.0
 10
101.472525
 20
490.082709
 30
0.0
 10
100.597397
 20
490.667450
 30
0.0
 10
99.626688
 20
490.667450
 30
0.0
  0
SPLINE
  5
136
100
AcDbEntity
  8
Layer_1
 62
7
100
AcDbSpline
 70
8
 71
3
 72
8
 73
4
 74
0
 40
0
 40
0
 40
0
 40
0
 40
1
 40
1
 40
1
 40
1
 10
99.626688
 20
490.667450
 30
0.0
 10
98.990168
 20
490.667450
 30
0.0
 10
98.379719
 20
490.414594
 30
0.0
 10
97.929632
 20
489.964506
 30
0.0
  0
SPLINE
  5
137
100
AcDbEntity
  8
Layer_1
 62
7
100
AcDbSpline
 70
8
 71
3
 72
8
 73
4
 74
0
 40
0
 40
0
 40
0
 40
0
 40
1
 40
1
 40
1
 40
1
 10
97.929632
 20
489.964506
 30
0.0
 10
97.479544
 20
489.514419
 30
0.0
 10
97.226688
 20
488.903970
 30
0.0
 10
97.226688
 20
488.267450
 30
0.0
  0
LINE
  5
138
100
AcDbEntity
  8
Layer_1
 62
7
100
AcDbLine
 10
97.226688
 20
488.267450
 30
0.0
 11
97.226688
 21
488.267450
 31
0.0
  0
SPLINE
  5
139
100
AcDbEntity
  8
Layer_1
 62
7
100
AcDbSpline
 70
8
 71
3
 72
8
 73
4
 74
0
 40
0
 40
0
 40
0
 40
0
 40
1
 40
1
 40
1
 40
1
 10
97.226688
 20
446.992990
 30
0.0
 10
97.226688
 20
446.022281
 30
0.0
 10
97.811429
 20
445.147153
 30
0.0
 10
98.708248
 20
444.775679
 30
0.0
  0
SPLINE
  5
13a
100
AcDbEntity
  8
Layer_1
 62
7
100
AcDbSpline
 70
8
 71
3
 72
8
 73
4
 74
0
 40
0
 40
0
 40
0
 40
0
 40
1
 40
1
 40
1
 40
1
 10
98.708248
 20
444.775679
 30
0.0
 10
99.605066
 20
444.404205
 30
0.0
 10
100.637349
 20
444.609538
 30
0.0
 10
101.323744
 20
445.295934
 30
0.0
  0
SPLINE
  5
13b
100
AcDbEntity
  8
Layer_1
 62
7
100
AcDbSpline
 70
8
 71
3
 72
8
 73
4
 74
0
 40
0
 40
0
 40
0
 40
0
 40
1
 40
1
 40
1
 40
1
 10
101.323744
 20
445.295934
 30
0.0
 10
102.010140
 20
445.982329
 30
0.0
 10
102.215473
 20
447.014612
 30
0.0
 10
101.843999
 20
447.911430
 30
0.0
  0
SPLINE
  5
13c
100
AcDbEntity
  8
Layer_1
 62
7
100
AcDbSpline
 70
8
 71
3
 72
8
 73
4
 74
0
 40
0
 40
0
 40
0
 40
0
 40
1
 40
1
 40
1
 40
1
 10
101.843999
 20
447.911430
 30
0.0
 10
101.472525
 20
448.808249
 30
0.0
 10
100.597397
 20
449.392990
 30
0.0
 10
99.626688
 20
449.392990
 30
0.0
  0
SPLINE
  5
13d
100
AcDbEntity
  8
Layer_1
 62
7
100
AcDbSpline
 70
8
 71
3
 72
8
 73
4
 74
0
 40
0
 40
0
 40
0
 40
0
 40
1
 40
1
 40
1
 40
1
 10
99.626688
 20
449.392990
 30
0.0
 10
98.990168
 20
449.392990
 30
0.0
 10
98.379719
 20
449.140134
 30
0.0
 10
97.929632
 20
448.690046
 30
0.0
  0
SPLINE
  5
13e
100
AcDbEntity
  8
Layer_1
 62
7
100
AcDbSpline
 70
8
 71
3
 72
8
 73
4
 74
0
 40
0
 40
0
 40
0
 40
0
 40
1
 40
1
 40
1
 40
1
 10
97.929632
 20
448.690046
 30
0.0
 10
97.479544
 20
448.239959
 30
0.0
 10
97.226688
 20
447.629510
 30
0.0
 10
97.226688
 20
446.992990
 30
0.0
  0
LINE
  5
13f
100
AcDbEntity
  8
Layer_1
 62
7
100
AcDbLine
 10
97.226688
 20
446.992990
 30
0.0
 11
97.226688
 21
446.992990
 31
0.0
  0
LINE
  5
140
100
AcDbEntity
  8
Layer_1
 62
7
100
AcDbLine
 10
36.247590
 20
446.915450
 30
0.0
 11
99.747580
 21
488.190450
 31
0.0
  0
LINE
  5
141
100
AcDbEntity
  8
Layer_1
 62
7
100
AcDbLine
 10
36.247590
 20
488.190450
 30
0.0
 11
99.747580
 21
446.915450
 31
0.0
  0
SPLINE
  5
142
100
AcDbEntity
  8
Layer_1
 62
7
100
AcDbSpline
 70
8
 71
3
 72
8
 73
4
 74
0
 40
0
 40
0
 40
0
 40
0
 40
1
 40
1
 40
1
 40
1
 10
124.192066
 20
518.383791
 30
0.0
 10
155.402218
 20
518.477654
 30
0.0
 10
180.800823
 20
543.524853
 30
0.0
 10
181.329477
 20
574.730670
 30
0.0
  0
SPLINE
  5
143
100
AcDbEntity
  8
Layer_1
 62
7
100
AcDbSpline
 70
8
 71
3
 72
8
 73
4
 74
0
 40
0
 40
0
 40
0
 40
0
 40
1
 40
1
 40
1
 40
1
 10
124.192107
 20
416.876603
 30
0.0
 10
155.402263
 20
416.782739
 30
0.0
 10
180.800868
 20
391.735535
 30
0.0
 10
181.329517
 20
360.529715
 30
0.0
  0
SPLINE
  5
144
100
AcDbEntity
  8
Layer_1
 62
7
100
AcDbSpline
 70
8
 71
3
 72
8
 73
4
 74
0
 40
0
 40
0
 40
0
 40
0
 40
1
 40
1
 40
1
 40
1
 10
20.775714
 20
416.830200
 30
0.0
 10
17.988321
 20
416.657031
 30
0.0
 10
15.252550
 20
417.638879
 30
0.0
 10
13.211392
 20
419.544980
 30
0.0
  0
SPLINE
  5
145
100
AcDbEntity
  8
Layer_1
 62
7
100
AcDbSpline
 70
8
 71
3
 72
8
 73
4
 74
0
 40
0
 40
0
 40
0
 40
0
 40
1
 40
1
 40
1
 40
1
 10
13.211392
 20
419.544980
 30
0.0
 10
11.170234
 20
421.451080
 30
0.0
 10
10.003690
 20
424.113341
 30
0.0
 10
9.985932
 20
426.906050
 30
0.0
  0
SPLINE
  5
146
100
AcDbEntity
  8
Layer_1
 62
7
100
AcDbSpline
 70
8
 71
3
 72
8
 73
4
 74
0
 40
0
 40
0
 40
0
 40
0
 40
1
 40
1
 40
1
 40
1
 10
20.775714
 20
518.430170
 30
0.0
 10
17.988321
 20
518.603339
 30
0.0
 10
15.252550
 20
517.621491
 30
0.0
 10
13.211392
 20
515.715390
 30
0.0
  0
SPLINE
  5
147
100
AcDbEntity
  8
Layer_1
 62
7
100
AcDbSpline
 70
8
 71
3
 72
8
 73
4
 74
0
 40
0
 40
0
 40
0
 40
0
 40
1
 40
1
 40
1
 40
1
 10
13.211392
 20
515.715390
 30
0.0
 10
11.170234
 20
513.809290
 30
0.0
 10
10.003690
 20
511.147029
 30
0.0
 10
9.985932
 20
508.354320
 30
0.0
  0
LINE
  5
148
100
AcDbEntity
  8
Layer_1
 62
7
100
AcDbLine
 10
10.238928
 20
416.876660
 30
0.0
 11
10.238928
 21
518.383790
 31
0.0
  0
LINE
  5
149
100
AcDbEntity
  8
Layer_1
 62
7
100
AcDbLine
 10
10.238928
 20
518.383790
 30
0.0
 11
124.192068
 21
518.383790
 31
0.0
  0
LINE
  5
14a
100
AcDbEntity
  8
Layer_1
 62
7
100
AcDbLine
 10
124.192068
 20
518.383790
 30
0.0
 11
124.192068
 21
416.876660
 31
0.0
  0
LINE
  5
14b
100
AcDbEntity
  8
Layer_1
 62
7
100
AcDbLine
 10
124.192068
 20
416.876660
 30
0.0
 11
10.238928
 21
416.876660
 31
0.0
  0
LINE
  5
14c
100
AcDbEntity
  8
Layer_1
 62
7
100
AcDbLine
 10
1089.823330
 20
496.888260
 30
0.0
 11
1089.823330
 21
439.978741
 31
0.0
  0
LINE
  5
14d
100
AcDbEntity
  8
Layer_1
 62
7
100
AcDbLine
 10
1089.823330
 20
439.978741
 30
0.0
 11
1013.609814
 21
439.978741
 31
0.0
  0
LINE
  5
14e
100
AcDbEntity
  8
Layer_1
 62
7
100
AcDbLine
 10
1013.609814
 20
439.978741
 30
0.0
 11
1013.609814
 21
496.888260
 31
0.0
  0
LINE
  5
14f
100
AcDbEntity
  8
Layer_1
 62
7
100
AcDbLine
 10
1013.609814
 20
496.888260
 30
0.0
 11
1089.823330
 21
496.888260
 31
0.0
  0
LINE
  5
150
100
AcDbEntity
  8
Layer_1
 62
7
100
AcDbLine
 10
937.533770
 20
496.886060
 30
0.0
 11
937.533770
 21
515.809535
 31
0.0
  0
LINE
  5
151
100
AcDbEntity
  8
Layer_1
 62
7
100
AcDbLine
 10
937.533770
 20
515.809535
 30
0.0
 11
1089.807240
 21
515.809535
 31
0.0
  0
LINE
  5
152
100
AcDbEntity
  8
Layer_1
 62
7
100
AcDbLine
 10
1089.807240
 20
515.809535
 30
0.0
 11
1089.807240
 21
496.886060
 31
0.0
  0
LINE
  5
153
100
AcDbEntity
  8
Layer_1
 62
7
100
AcDbLine
 10
1089.807240
 20
496.886060
 30
0.0
 11
937.533770
 21
496.886060
 31
0.0
  0
LINE
  5
154
100
AcDbEntity
  8
Layer_1
 62
7
100
AcDbLine
 10
937.533710
 20
420.694410
 30
0.0
 11
937.533710
 21
439.617885
 31
0.0
  0
LINE
  5
155
100
AcDbEntity
  8
Layer_1
 62
7
100
AcDbLine
 10
937.533710
 20
439.617885
 30
0.0
 11
1089.807180
 21
439.617885
 31
0.0
  0
LINE
  5
156
100
AcDbEntity
  8
Layer_1
 62
7
100
AcDbLine
 10
1089.807180
 20
439.617885
 30
0.0
 11
1089.807180
 21
420.694410
 31
0.0
  0
LINE
  5
157
100
AcDbEntity
  8
Layer_1
 62
7
100
AcDbLine
 10
1089.807180
 20
420.694410
 30
0.0
 11
937.533710
 21
420.694410
 31
0.0
  0
LINE
  5
158
100
AcDbEntity
  8
Layer_1
 62
7
100
AcDbLine
 10
994.663840
 20
496.695490
 30
0.0
 11
1013.636279
 21
496.695490
 31
0.0
  0
LINE
  5
159
100
AcDbEntity
  8
Layer_1
 62
7
100
AcDbLine
 10
1013.636279
 20
496.695490
 30
0.0
 11
1013.636279
 21
439.623053
 31
0.0
  0
LINE
  5
15a
100
AcDbEntity
  8
Layer_1
 62
7
100
AcDbLine
 10
1013.636279
 20
439.623053
 30
0.0
 11
994.663840
 21
439.623053
 31
0.0
  0
LINE
  5
15b
100
AcDbEntity
  8
Layer_1
 62
7
100
AcDbLine
 10
994.663840
 20
439.623053
 30
0.0
 11
994.663840
 21
496.695490
 31
0.0
  0
LINE
  5
15c
100
AcDbEntity
  8
Layer_1
 62
7
100
AcDbLine
 10
1089.807430
 20
515.809570
 30
0.0
 11
1108.757766
 21
515.809570
 31
0.0
  0
LINE
  5
15d
100
AcDbEntity
  8
Layer_1
 62
7
100
AcDbLine
 10
1108.757766
 20
515.809570
 30
0.0
 11
1108.757766
 21
420.659660
 31
0.0
  0
LINE
  5
15e
100
AcDbEntity
  8
Layer_1
 62
7
100
AcDbLine
 10
1108.757766
 20
420.659660
 30
0.0
 11
1089.807430
 21
420.659660
 31
0.0
  0
LINE
  5
15f
100
AcDbEntity
  8
Layer_1
 62
7
100
AcDbLine
 10
1089.807430
 20
420.659660
 30
0.0
 11
1089.807430
 21
515.809570
 31
0.0
  0
LINE
  5
160
100
AcDbEntity
  8
Layer_1
 62
7
100
AcDbLine
 10
1082.529230
 20
488.344970
 30
0.0
 11
1082.529230
 21
447.069968
 31
0.0
  0
LINE
  5
161
100
AcDbEntity
  8
Layer_1
 62
7
100
AcDbLine
 10
1082.529230
 20
447.069968
 30
0.0
 11
1019.029230
 21
447.069968
 31
0.0
  0
LINE
  5
162
100
AcDbEntity
  8
Layer_1
 62
7
100
AcDbLine
 10
1019.029230
 20
447.069968
 30
0.0
 11
1019.029230
 21
488.344970
 31
0.0
  0
LINE
  5
163
100
AcDbEntity
  8
Layer_1
 62
7
100
AcDbLine
 10
1019.029230
 20
488.344970
 30
0.0
 11
1082.529230
 21
488.344970
 31
0.0
  0
SPLINE
  5
164
100
AcDbEntity
  8
Layer_1
 62
7
100
AcDbSpline
 70
8
 71
3
 72
8
 73
4
 74
0
 40
0
 40
0
 40
0
 40
0
 40
1
 40
1
 40
1
 40
1
 10
1085.050330
 20
488.267450
 30
0.0
 10
1085.050330
 20
489.238159
 30
0.0
 10
1084.465589
 20
490.113287
 30
0.0
 10
1083.568770
 20
490.484761
 30
0.0
  0
SPLINE
  5
165
100
AcDbEntity
  8
Layer_1
 62
7
100
AcDbSpline
 70
8
 71
3
 72
8
 73
4
 74
0
 40
0
 40
0
 40
0
 40
0
 40
1
 40
1
 40
1
 40
1
 10
1083.568770
 20
490.484761
 30
0.0
 10
1082.671952
 20
490.856235
 30
0.0
 10
1081.639669
 20
490.650902
 30
0.0
 10
1080.953274
 20
489.964506
 30
0.0
  0
SPLINE
  5
166
100
AcDbEntity
  8
Layer_1
 62
7
100
AcDbSpline
 70
8
 71
3
 72
8
 73
4
 74
0
 40
0
 40
0
 40
0
 40
0
 40
1
 40
1
 40
1
 40
1
 10
1080.953274
 20
489.964506
 30
0.0
 10
1080.266878
 20
489.278111
 30
0.0
 10
1080.061545
 20
488.245828
 30
0.0
 10
1080.433019
 20
487.349010
 30
0.0
  0
SPLINE
  5
167
100
AcDbEntity
  8
Layer_1
 62
7
100
AcDbSpline
 70
8
 71
3
 72
8
 73
4
 74
0
 40
0
 40
0
 40
0
 40
0
 40
1
 40
1
 40
1
 40
1
 10
1080.433019
 20
487.349010
 30
0.0
 10
1080.804493
 20
486.452191
 30
0.0
 10
1081.679621
 20
485.867450
 30
0.0
 10
1082.650330
 20
485.867450
 30
0.0
  0
SPLINE
  5
168
100
AcDbEntity
  8
Layer_1
 62
7
100
AcDbSpline
 70
8
 71
3
 72
8
 73
4
 74
0
 40
0
 40
0
 40
0
 40
0
 40
1
 40
1
 40
1
 40
1
 10
1082.650330
 20
485.867450
 30
0.0
 10
1083.286850
 20
485.867450
 30
0.0
 10
1083.897299
 20
486.120306
 30
0.0
 10
1084.347386
 20
486.570394
 30
0.0
  0
SPLINE
  5
169
100
AcDbEntity
  8
Layer_1
 62
7
100
AcDbSpline
 70
8
 71
3
 72
8
 73
4
 74
0
 40
0
 40
0
 40
0
 40
0
 40
1
 40
1
 40
1
 40
1
 10
1084.347386
 20
486.570394
 30
0.0
 10
1084.797474
 20
487.020481
 30
0.0
 10
1085.050330
 20
487.630930
 30
0.0
 10
1085.050330
 20
488.267450
 30
0.0
  0
LINE
  5
16a
100
AcDbEntity
  8
Layer_1
 62
7
100
AcDbLine
 10
1085.050330
 20
488.267450
 30
0.0
 11
1085.050330
 21
488.267450
 31
0.0
  0
SPLINE
  5
16b
100
AcDbEntity
  8
Layer_1
 62
7
100
AcDbSpline
 70
8
 71
3
 72
8
 73
4
 74
0
 40
0
 40
0
 40
0
 40
0
 40
1
 40
1
 40
1
 40
1
 10
1085.050330
 20
446.992990
 30
0.0
 10
1085.050330
 20
447.963699
 30
0.0
 10
1084.465589
 20
448.838827
 30
0.0
 10
1083.568770
 20
449.210301
 30
0.0
  0
SPLINE
  5
16c
100
AcDbEntity
  8
Layer_1
 62
7
100
AcDbSpline
 70
8
 71
3
 72
8
 73
4
 74
0
 40
0
 40
0
 40
0
 40
0
 40
1
 40
1
 40
1
 40
1
 10
1083.568770
 20
449.210301
 30
0.0
 10
1082.671952
 20
449.581775
 30
0.0
 10
1081.639669
 20
449.376442
 30
0.0
 10
1080.953274
 20
448.690046
 30
0.0
  0
SPLINE
  5
16d
100
AcDbEntity
  8
Layer_1
 62
7
100
AcDbSpline
 70
8
 71
3
 72
8
 73
4
 74
0
 40
0
 40
0
 40
0
 40
0
 40
1
 40
1
 40
1
 40
1
 10
1080.953274
 20
448.690046
 30
0.0
 10
1080.266878
 20
448.003651
 30
0.0
 10
1080.061545
 20
446.971368
 30
0.0
 10
1080.433019
 20
446.074550
 30
0.0
  0
SPLINE
  5
16e
100
AcDbEntity
  8
Layer_1
 62
7
100
AcDbSpline
 70
8
 71
3
 72
8
 73
4
 74
0
 40
0
 40
0
 40
0
 40
0
 40
1
 40
1
 40
1
 40
1
 10
1080.433019
 20
446.074550
 30
0.0
 10
1080.804493
 20
445.177731
 30
0.0
 10
1081.679621
 20
444.592990
 30
0.0
 10
1082.650330
 20
444.592990
 30
0.0
  0
SPLINE
  5
16f
100
AcDbEntity
  8
Layer_1
 62
7
100
AcDbSpline
 70
8
 71
3
 72
8
 73
4
 74
0
 40
0
 40
0
 40
0
 40
0
 40
1
 40
1
 40
1
 40
1
 10
1082.650330
 20
444.592990
 30
0.0
 10
1083.286850
 20
444.592990
 30
0.0
 10
1083.897299
 20
444.845846
 30
0.0
 10
1084.347386
 20
445.295934
 30
0.0
  0
SPLINE
  5
170
100
AcDbEntity
  8
Layer_1
 62
7
100
AcDbSpline
 70
8
 71
3
 72
8
 73
4
 74
0
 40
0
 40
0
 40
0
 40
0
 40
1
 40
1
 40
1
 40
1
 10
1084.347386
 20
445.295934
 30
0.0
 10
1084.797474
 20
445.746021
 30
0.0
 10
1085.050330
 20
446.356470
 30
0.0
 10
1085.050330
 20
446.992990
 30
0.0
  0
LINE
  5
171
100
AcDbEntity
  8
Layer_1
 62
7
100
AcDbLine
 10
1085.050330
 20
446.992990
 30
0.0
 11
1085.050330
 21
446.992990
 31
0.0
  0
SPLINE
  5
172
100
AcDbEntity
  8
Layer_1
 62
7
100
AcDbSpline
 70
8
 71
3
 72
8
 73
4
 74
0
 40
0
 40
0
 40
0
 40
0
 40
1
 40
1
 40
1
 40
1
 10
1021.550330
 20
446.992990
 30
0.0
 10
1021.550330
 20
447.963699
 30
0.0
 10
1020.965589
 20
448.838827
 30
0.0
 10
1020.068770
 20
449.210301
 30
0.0
  0
SPLINE
  5
173
100
AcDbEntity
  8
Layer_1
 62
7
100
AcDbSpline
 70
8
 71
3
 72
8
 73
4
 74
0
 40
0
 40
0
 40
0
 40
0
 40
1
 40
1
 40
1
 40
1
 10
1020.068770
 20
449.210301
 30
0.0
 10
1019.171952
 20
449.581775
 30
0.0
 10
1018.139669
 20
449.376442
 30
0.0
 10
1017.453274
 20
448.690046
 30
0.0
  0
SPLINE
  5
174
100
AcDbEntity
  8
Layer_1
 62
7
100
AcDbSpline
 70
8
 71
3
 72
8
 73
4
 74
0
 40
0
 40
0
 40
0
 40
0
 40
1
 40
1
 40
1
 40
1
 10
1017.453274
 20
448.690046
 30
0.0
 10
1016.766878
 20
448.003651
 30
0.0
 10
1016.561545
 20
446.971368
 30
0.0
 10
1016.933019
 20
446.074550
 30
0.0
  0
SPLINE
  5
175
100
AcDbEntity
  8
Layer_1
 62
7
100
AcDbSpline
 70
8
 71
3
 72
8
 73
4
 74
0
 40
0
 40
0
 40
0
 40
0
 40
1
 40
1
 40
1
 40
1
 10
1016.933019
 20
446.074550
 30
0.0
 10
1017.304493
 20
445.177731
 30
0.0
 10
1018.179621
 20
444.592990
 30
0.0
 10
1019.150330
 20
444.592990
 30
0.0
  0
SPLINE
  5
176
100
AcDbEntity
  8
Layer_1
 62
7
100
AcDbSpline
 70
8
 71
3
 72
8
 73
4
 74
0
 40
0
 40
0
 40
0
 40
0
 40
1
 40
1
 40
1
 40
1
 10
1019.150330
 20
444.592990
 30
0.0
 10
1019.786850
 20
444.592990
 30
0.0
 10
1020.397299
 20
444.845846
 30
0.0
 10
1020.847386
 20
445.295934
 30
0.0
  0
SPLINE
  5
177
100
AcDbEntity
  8
Layer_1
 62
7
100
AcDbSpline
 70
8
 71
3
 72
8
 73
4
 74
0
 40
0
 40
0
 40
0
 40
0
 40
1
 40
1
 40
1
 40
1
 10
1020.847386
 20
445.295934
 30
0.0
 10
1021.297474
 20
445.746021
 30
0.0
 10
1021.550330
 20
446.356470
 30
0.0
 10
1021.550330
 20
446.992990
 30
0.0
  0
LINE
  5
178
100
AcDbEntity
  8
Layer_1
 62
7
100
AcDbLine
 10
1021.550330
 20
446.992990
 30
0.0
 11
1021.550330
 21
446.992990
 31
0.0
  0
SPLINE
  5
179
100
AcDbEntity
  8
Layer_1
 62
7
100
AcDbSpline
 70
8
 71
3
 72
8
 73
4
 74
0
 40
0
 40
0
 40
0
 40
0
 40
1
 40
1
 40
1
 40
1
 10
1021.550330
 20
488.267450
 30
0.0
 10
1021.550330
 20
489.238159
 30
0.0
 10
1020.965589
 20
490.113287
 30
0.0
 10
1020.068770
 20
490.484761
 30
0.0
  0
SPLINE
  5
17a
100
AcDbEntity
  8
Layer_1
 62
7
100
AcDbSpline
 70
8
 71
3
 72
8
 73
4
 74
0
 40
0
 40
0
 40
0
 40
0
 40
1
 40
1
 40
1
 40
1
 10
1020.068770
 20
490.484761
 30
0.0
 10
1019.171952
 20
490.856235
 30
0.0
 10
1018.139669
 20
490.650902
 30
0.0
 10
1017.453274
 20
489.964506
 30
0.0
  0
SPLINE
  5
17b
100
AcDbEntity
  8
Layer_1
 62
7
100
AcDbSpline
 70
8
 71
3
 72
8
 73
4
 74
0
 40
0
 40
0
 40
0
 40
0
 40
1
 40
1
 40
1
 40
1
 10
1017.453274
 20
489.964506
 30
0.0
 10
1016.766878
 20
489.278111
 30
0.0
 10
1016.561545
 20
488.245828
 30
0.0
 10
1016.933019
 20
487.349010
 30
0.0
  0
SPLINE
  5
17c
100
AcDbEntity
  8
Layer_1
 62
7
100
AcDbSpline
 70
8
 71
3
 72
8
 73
4
 74
0
 40
0
 40
0
 40
0
 40
0
 40
1
 40
1
 40
1
 40
1
 10
1016.933019
 20
487.349010
 30
0.0
 10
1017.304493
 20
486.452191
 30
0.0
 10
1018.179621
 20
485.867450
 30
0.0
 10
1019.150330
 20
485.867450
 30
0.0
  0
SPLINE
  5
17d
100
AcDbEntity
  8
Layer_1
 62
7
100
AcDbSpline
 70
8
 71
3
 72
8
 73
4
 74
0
 40
0
 40
0
 40
0
 40
0
 40
1
 40
1
 40
1
 40
1
 10
1019.150330
 20
485.867450
 30
0.0
 10
1019.786850
 20
485.867450
 30
0.0
 10
1020.397299
 20
486.120306
 30
0.0
 10
1020.847386
 20
486.570394
 30
0.0
  0
SPLINE
  5
17e
100
AcDbEntity
  8
Layer_1
 62
7
100
AcDbSpline
 70
8
 71
3
 72
8
 73
4
 74
0
 40
0
 40
0
 40
0
 40
0
 40
1
 40
1
 40
1
 40
1
 10
1020.847386
 20
486.570394
 30
0.0
 10
1021.297474
 20
487.020481
 30
0.0
 10
1021.550330
 20
487.630930
 30
0.0
 10
1021.550330
 20
488.267450
 30
0.0
  0
LINE
  5
17f
100
AcDbEntity
  8
Layer_1
 62
7
100
AcDbLine
 10
1021.550330
 20
488.267450
 30
0.0
 11
1021.550330
 21
488.267450
 31
0.0
  0
LINE
  5
180
100
AcDbEntity
  8
Layer_1
 62
7
100
AcDbLine
 10
1082.529330
 20
488.344970
 30
0.0
 11
1019.029330
 21
447.069970
 31
0.0
  0
LINE
  5
181
100
AcDbEntity
  8
Layer_1
 62
7
100
AcDbLine
 10
1082.529330
 20
447.069970
 30
0.0
 11
1019.029330
 21
488.344970
 31
0.0
  0
SPLINE
  5
182
100
AcDbEntity
  8
Layer_1
 62
7
100
AcDbSpline
 70
8
 71
3
 72
8
 73
4
 74
0
 40
0
 40
0
 40
0
 40
0
 40
1
 40
1
 40
1
 40
1
 10
994.584958
 20
416.876603
 30
0.0
 10
963.374805
 20
416.782744
 30
0.0
 10
937.976196
 20
391.735548
 30
0.0
 10
937.447538
 20
360.529731
 30
0.0
  0
SPLINE
  5
183
100
AcDbEntity
  8
Layer_1
 62
7
100
AcDbSpline
 70
8
 71
3
 72
8
 73
4
 74
0
 40
0
 40
0
 40
0
 40
0
 40
1
 40
1
 40
1
 40
1
 10
994.584725
 20
518.383759
 30
0.0
 10
963.374574
 20
518.477624
 30
0.0
 10
937.975971
 20
543.524822
 30
0.0
 10
937.447317
 20
574.730637
 30
0.0
  0
SPLINE
  5
184
100
AcDbEntity
  8
Layer_1
 62
7
100
AcDbSpline
 70
8
 71
3
 72
8
 73
4
 74
0
 40
0
 40
0
 40
0
 40
0
 40
1
 40
1
 40
1
 40
1
 10
1098.001330
 20
518.430250
 30
0.0
 10
1100.788716
 20
518.603413
 30
0.0
 10
1103.524477
 20
517.621565
 30
0.0
 10
1105.565630
 20
515.715470
 30
0.0
  0
SPLINE
  5
185
100
AcDbEntity
  8
Layer_1
 62
7
100
AcDbSpline
 70
8
 71
3
 72
8
 73
4
 74
0
 40
0
 40
0
 40
0
 40
0
 40
1
 40
1
 40
1
 40
1
 10
1105.565630
 20
515.715470
 30
0.0
 10
1107.606802
 20
513.809377
 30
0.0
 10
1108.773362
 20
511.147115
 30
0.0
 10
1108.791130
 20
508.354400
 30
0.0
  0
SPLINE
  5
186
100
AcDbEntity
  8
Layer_1
 62
7
100
AcDbSpline
 70
8
 71
3
 72
8
 73
4
 74
0
 40
0
 40
0
 40
0
 40
0
 40
1
 40
1
 40
1
 40
1
 10
1098.001330
 20
416.830260
 30
0.0
 10
1100.788716
 20
416.657097
 30
0.0
 10
1103.524477
 20
417.638945
 30
0.0
 10
1105.565630
 20
419.545040
 30
0.0
  0
SPLINE
  5
187
100
AcDbEntity
  8
Layer_1
 62
7
100
AcDbSpline
 70
8
 71
3
 72
8
 73
4
 74
0
 40
0
 40
0
 40
0
 40
0
 40
1
 40
1
 40
1
 40
1
 10
1105.565630
 20
419.545040
 30
0.0
 10
1107.606805
 20
421.451135
 30
0.0
 10
1108.773365
 20
424.113401
 30
0.0
 10
1108.791130
 20
426.906120
 30
0.0
  0
LINE
  5
188
100
AcDbEntity
  8
Layer_1
 62
7
100
AcDbLine
 10
1108.538030
 20
518.383780
 30
0.0
 11
1108.538030
 21
416.876650
 31
0.0
  0
LINE
  5
189
100
AcDbEntity
  8
Layer_1
 62
7
100
AcDbLine
 10
1108.538030
 20
416.876650
 30
0.0
 11
994.584890
 21
416.876650
 31
0.0
  0
LINE
  5
18a
100
AcDbEntity
  8
Layer_1
 62
7
100
AcDbLine
 10
994.584890
 20
416.876650
 30
0.0
 11
994.584890
 21
518.383780
 31
0.0
  0
LINE
  5
18b
100
AcDbEntity
  8
Layer_1
 62
7
100
AcDbLine
 10
994.584890
 20
518.383780
 30
0.0
 11
1108.538030
 21
518.383780
 31
0.0
  0
SPLINE
  5
18c
100
AcDbEntity
  8
Layer_1
 62
7
100
AcDbSpline
 70
8
 71
3
 72
8
 73
4
 74
0
 40
0
 40
0
 40
0
 40
0
 40
1
 40
1
 40
1
 40
1
 10
192.225630
 20
340.629920
 30
0.0
 10
189.438239
 20
340.456749
 30
0.0
 10
186.702469
 20
341.438593
 30
0.0
 10
184.661310
 20
343.344690
 30
0.0
  0
SPLINE
  5
18d
100
AcDbEntity
  8
Layer_1
 62
7
100
AcDbSpline
 70
8
 71
3
 72
8
 73
4
 74
0
 40
0
 40
0
 40
0
 40
0
 40
1
 40
1
 40
1
 40
1
 10
184.661310
 20
343.344690
 30
0.0
 10
182.620150
 20
345.250792
 30
0.0
 10
181.453605
 20
347.913057
 30
0.0
 10
181.435850
 20
350.705770
 30
0.0
  0
SPLINE
  5
18e
100
AcDbEntity
  8
Layer_1
 62
7
100
AcDbSpline
 70
8
 71
3
 72
8
 73
4
 74
0
 40
0
 40
0
 40
0
 40
0
 40
1
 40
1
 40
1
 40
1
 10
192.225630
 20
594.506589
 30
0.0
 10
189.438238
 20
594.679758
 30
0.0
 10
186.702468
 20
593.697911
 30
0.0
 10
184.661310
 20
591.791811
 30
0.0
  0
SPLINE
  5
18f
100
AcDbEntity
  8
Layer_1
 62
7
100
AcDbSpline
 70
8
 71
3
 72
8
 73
4
 74
0
 40
0
 40
0
 40
0
 40
0
 40
1
 40
1
 40
1
 40
1
 10
184.661310
 20
591.791811
 30
0.0
 10
182.620152
 20
589.885711
 30
0.0
 10
181.453607
 20
587.223448
 30
0.0
 10
181.435850
 20
584.430738
 30
0.0
  0
SPLINE
  5
190
100
AcDbEntity
  8
Layer_1
 62
7
100
AcDbSpline
 70
8
 71
3
 72
8
 73
4
 74
0
 40
0
 40
0
 40
0
 40
0
 40
1
 40
1
 40
1
 40
1
 10
925.852510
 20
340.629920
 30
0.0
 10
928.639904
 20
340.456746
 30
0.0
 10
931.375678
 20
341.438590
 30
0.0
 10
933.416840
 20
343.344690
 30
0.0
  0
SPLINE
  5
191
100
AcDbEntity
  8
Layer_1
 62
7
100
AcDbSpline
 70
8
 71
3
 72
8
 73
4
 74
0
 40
0
 40
0
 40
0
 40
0
 40
1
 40
1
 40
1
 40
1
 10
933.416840
 20
343.344690
 30
0.0
 10
935.458000
 20
345.250792
 30
0.0
 10
936.624545
 20
347.913057
 30
0.0
 10
936.642300
 20
350.705770
 30
0.0
  0
SPLINE
  5
192
100
AcDbEntity
  8
Layer_1
 62
7
100
AcDbSpline
 70
8
 71
3
 72
8
 73
4
 74
0
 40
0
 40
0
 40
0
 40
0
 40
1
 40
1
 40
1
 40
1
 10
925.852510
 20
594.506589
 30
0.0
 10
928.639906
 20
594.679761
 30
0.0
 10
931.375680
 20
593.697913
 30
0.0
 10
933.416840
 20
591.791811
 30
0.0
  0
SPLINE
  5
193
100
AcDbEntity
  8
Layer_1
 62
7
100
AcDbSpline
 70
8
 71
3
 72
8
 73
4
 74
0
 40
0
 40
0
 40
0
 40
0
 40
1
 40
1
 40
1
 40
1
 10
933.416840
 20
591.791811
 30
0.0
 10
935.457998
 20
589.885711
 30
0.0
 10
936.624543
 20
587.223448
 30
0.0
 10
936.642300
 20
584.430738
 30
0.0
  0
LINE
  5
194
100
AcDbEntity
  8
Layer_1
 62
7
100
AcDbLine
 10
181.252990
 20
310.945111
 30
0.0
 11
200.405477
 21
310.945111
 31
0.0
  0
LINE
  5
195
100
AcDbEntity
  8
Layer_1
 62
7
100
AcDbLine
 10
200.405477
 20
310.945111
 30
0.0
 11
200.405477
 21
95.196621
 31
0.0
  0
LINE
  5
196
100
AcDbEntity
  8
Layer_1
 62
7
100
AcDbLine
 10
200.405477
 20
95.196621
 30
0.0
 11
181.252990
 21
95.196621
 31
0.0
  0
LINE
  5
197
100
AcDbEntity
  8
Layer_1
 62
7
100
AcDbLine
 10
181.252990
 20
95.196621
 30
0.0
 11
181.252990
 21
310.945111
 31
0.0
  0
LINE
  5
198
100
AcDbEntity
  8
Layer_1
 62
7
100
AcDbLine
 10
917.325760
 20
310.945111
 30
0.0
 11
936.478247
 21
310.945111
 31
0.0
  0
LINE
  5
199
100
AcDbEntity
  8
Layer_1
 62
7
100
AcDbLine
 10
936.478247
 20
310.945111
 30
0.0
 11
936.478247
 21
95.196621
 31
0.0
  0
LINE
  5
19a
100
AcDbEntity
  8
Layer_1
 62
7
100
AcDbLine
 10
936.478247
 20
95.196621
 30
0.0
 11
917.325760
 21
95.196621
 31
0.0
  0
LINE
  5
19b
100
AcDbEntity
  8
Layer_1
 62
7
100
AcDbLine
 10
917.325760
 20
95.196621
 30
0.0
 11
917.325760
 21
310.945111
 31
0.0
  0
LINE
  5
19c
100
AcDbEntity
  8
Layer_1
 62
7
100
AcDbLine
 10
181.164340
 20
75.527710
 30
0.0
 11
181.164340
 21
329.507220
 31
0.0
  0
LINE
  5
19d
100
AcDbEntity
  8
Layer_1
 62
7
100
AcDbLine
 10
181.164340
 20
329.507220
 30
0.0
 11
936.529330
 21
329.507220
 31
0.0
  0
LINE
  5
19e
100
AcDbEntity
  8
Layer_1
 62
7
100
AcDbLine
 10
936.529330
 20
329.507220
 30
0.0
 11
936.529330
 21
75.527710
 31
0.0
  0
LINE
  5
19f
100
AcDbEntity
  8
Layer_1
 62
7
100
AcDbLine
 10
936.529330
 20
75.527710
 30
0.0
 11
181.164340
 21
75.527710
 31
0.0
  0
LINE
  5
1a0
100
AcDbEntity
  8
Layer_1
 62
7
100
AcDbLine
 10
28.953649
 20
173.259400
 30
0.0
 11
28.953649
 21
230.168919
 31
0.0
  0
LINE
  5
1a1
100
AcDbEntity
  8
Layer_1
 62
7
100
AcDbLine
 10
28.953649
 20
230.168919
 30
0.0
 11
105.167165
 21
230.168919
 31
0.0
  0
LINE
  5
1a2
100
AcDbEntity
  8
Layer_1
 62
7
100
AcDbLine
 10
105.167165
 20
230.168919
 30
0.0
 11
105.167165
 21
173.259400
 31
0.0
  0
LINE
  5
1a3
100
AcDbEntity
  8
Layer_1
 62
7
100
AcDbLine
 10
105.167165
 20
173.259400
 30
0.0
 11
28.953649
 21
173.259400
 31
0.0
  0
LINE
  5
1a4
100
AcDbEntity
  8
Layer_1
 62
7
100
AcDbLine
 10
181.243100
 20
173.261600
 30
0.0
 11
181.243100
 21
154.338125
 31
0.0
  0
LINE
  5
1a5
100
AcDbEntity
  8
Layer_1
 62
7
100
AcDbLine
 10
181.243100
 20
154.338125
 30
0.0
 11
28.969630
 21
154.338125
 31
0.0
  0
LINE
  5
1a6
100
AcDbEntity
  8
Layer_1
 62
7
100
AcDbLine
 10
28.969630
 20
154.338125
 30
0.0
 11
28.969630
 21
173.261600
 31
0.0
  0
LINE
  5
1a7
100
AcDbEntity
  8
Layer_1
 62
7
100
AcDbLine
 10
28.969630
 20
173.261600
 30
0.0
 11
181.243100
 21
173.261600
 31
0.0
  0
LINE
  5
1a8
100
AcDbEntity
  8
Layer_1
 62
7
100
AcDbLine
 10
181.243260
 20
249.453240
 30
0.0
 11
181.243260
 21
230.529765
 31
0.0
  0
LINE
  5
1a9
100
AcDbEntity
  8
Layer_1
 62
7
100
AcDbLine
 10
181.243260
 20
230.529765
 30
0.0
 11
28.969790
 21
230.529765
 31
0.0
  0
LINE
  5
1aa
100
AcDbEntity
  8
Layer_1
 62
7
100
AcDbLine
 10
28.969790
 20
230.529765
 30
0.0
 11
28.969790
 21
249.453240
 31
0.0
  0
LINE
  5
1ab
100
AcDbEntity
  8
Layer_1
 62
7
100
AcDbLine
 10
28.969790
 20
249.453240
 30
0.0
 11
181.243260
 21
249.453240
 31
0.0
  0
LINE
  5
1ac
100
AcDbEntity
  8
Layer_1
 62
7
100
AcDbLine
 10
124.113180
 20
173.452200
 30
0.0
 11
105.140741
 21
173.452200
 31
0.0
  0
LINE
  5
1ad
100
AcDbEntity
  8
Layer_1
 62
7
100
AcDbLine
 10
105.140741
 20
173.452200
 30
0.0
 11
105.140741
 21
230.524637
 31
0.0
  0
LINE
  5
1ae
100
AcDbEntity
  8
Layer_1
 62
7
100
AcDbLine
 10
105.140741
 20
230.524637
 30
0.0
 11
124.113180
 21
230.524637
 31
0.0
  0
LINE
  5
1af
100
AcDbEntity
  8
Layer_1
 62
7
100
AcDbLine
 10
124.113180
 20
230.524637
 30
0.0
 11
124.113180
 21
173.452200
 31
0.0
  0
LINE
  5
1b0
100
AcDbEntity
  8
Layer_1
 62
7
100
AcDbLine
 10
28.969631
 20
154.338140
 30
0.0
 11
10.019295
 21
154.338140
 31
0.0
  0
LINE
  5
1b1
100
AcDbEntity
  8
Layer_1
 62
7
100
AcDbLine
 10
10.019295
 20
154.338140
 30
0.0
 11
10.019295
 21
249.488050
 31
0.0
  0
LINE
  5
1b2
100
AcDbEntity
  8
Layer_1
 62
7
100
AcDbLine
 10
10.019295
 20
249.488050
 30
0.0
 11
28.969631
 21
249.488050
 31
0.0
  0
LINE
  5
1b3
100
AcDbEntity
  8
Layer_1
 62
7
100
AcDbLine
 10
28.969631
 20
249.488050
 30
0.0
 11
28.969631
 21
154.338140
 31
0.0
  0
LINE
  5
1b4
100
AcDbEntity
  8
Layer_1
 62
7
100
AcDbLine
 10
36.247595
 20
181.802680
 30
0.0
 11
36.247595
 21
223.077682
 31
0.0
  0
LINE
  5
1b5
100
AcDbEntity
  8
Layer_1
 62
7
100
AcDbLine
 10
36.247595
 20
223.077682
 30
0.0
 11
99.747595
 21
223.077682
 31
0.0
  0
LINE
  5
1b6
100
AcDbEntity
  8
Layer_1
 62
7
100
AcDbLine
 10
99.747595
 20
223.077682
 30
0.0
 11
99.747595
 21
181.802680
 31
0.0
  0
LINE
  5
1b7
100
AcDbEntity
  8
Layer_1
 62
7
100
AcDbLine
 10
99.747595
 20
181.802680
 30
0.0
 11
36.247595
 21
181.802680
 31
0.0
  0
SPLINE
  5
1b8
100
AcDbEntity
  8
Layer_1
 62
7
100
AcDbSpline
 70
8
 71
3
 72
8
 73
4
 74
0
 40
0
 40
0
 40
0
 40
0
 40
1
 40
1
 40
1
 40
1
 10
33.726623
 20
181.880190
 30
0.0
 10
33.726623
 20
180.909481
 30
0.0
 10
34.311364
 20
180.034353
 30
0.0
 10
35.208183
 20
179.662879
 30
0.0
  0
SPLINE
  5
1b9
100
AcDbEntity
  8
Layer_1
 62
7
100
AcDbSpline
 70
8
 71
3
 72
8
 73
4
 74
0
 40
0
 40
0
 40
0
 40
0
 40
1
 40
1
 40
1
 40
1
 10
35.208183
 20
179.662879
 30
0.0
 10
36.105001
 20
179.291405
 30
0.0
 10
37.137284
 20
179.496738
 30
0.0
 10
37.823679
 20
180.183134
 30
0.0
  0
SPLINE
  5
1ba
100
AcDbEntity
  8
Layer_1
 62
7
100
AcDbSpline
 70
8
 71
3
 72
8
 73
4
 74
0
 40
0
 40
0
 40
0
 40
0
 40
1
 40
1
 40
1
 40
1
 10
37.823679
 20
180.183134
 30
0.0
 10
38.510075
 20
180.869529
 30
0.0
 10
38.715408
 20
181.901812
 30
0.0
 10
38.343934
 20
182.798630
 30
0.0
  0
SPLINE
  5
1bb
100
AcDbEntity
  8
Layer_1
 62
7
100
AcDbSpline
 70
8
 71
3
 72
8
 73
4
 74
0
 40
0
 40
0
 40
0
 40
0
 40
1
 40
1
 40
1
 40
1
 10
38.343934
 20
182.798630
 30
0.0
 10
37.972460
 20
183.695449
 30
0.0
 10
37.097332
 20
184.280190
 30
0.0
 10
36.126623
 20
184.280190
 30
0.0
  0
SPLINE
  5
1bc
100
AcDbEntity
  8
Layer_1
 62
7
100
AcDbSpline
 70
8
 71
3
 72
8
 73
4
 74
0
 40
0
 40
0
 40
0
 40
0
 40
1
 40
1
 40
1
 40
1
 10
36.126623
 20
184.280190
 30
0.0
 10
35.490103
 20
184.280190
 30
0.0
 10
34.879654
 20
184.027334
 30
0.0
 10
34.429567
 20
183.577246
 30
0.0
  0
SPLINE
  5
1bd
100
AcDbEntity
  8
Layer_1
 62
7
100
AcDbSpline
 70
8
 71
3
 72
8
 73
4
 74
0
 40
0
 40
0
 40
0
 40
0
 40
1
 40
1
 40
1
 40
1
 10
34.429567
 20
183.577246
 30
0.0
 10
33.979479
 20
183.127159
 30
0.0
 10
33.726623
 20
182.516710
 30
0.0
 10
33.726623
 20
181.880190
 30
0.0
  0
LINE
  5
1be
100
AcDbEntity
  8
Layer_1
 62
7
100
AcDbLine
 10
33.726623
 20
181.880190
 30
0.0
 11
33.726623
 21
181.880190
 31
0.0
  0
SPLINE
  5
1bf
100
AcDbEntity
  8
Layer_1
 62
7
100
AcDbSpline
 70
8
 71
3
 72
8
 73
4
 74
0
 40
0
 40
0
 40
0
 40
0
 40
1
 40
1
 40
1
 40
1
 10
33.726623
 20
223.154650
 30
0.0
 10
33.726623
 20
222.183941
 30
0.0
 10
34.311364
 20
221.308813
 30
0.0
 10
35.208183
 20
220.937339
 30
0.0
  0
SPLINE
  5
1c0
100
AcDbEntity
  8
Layer_1
 62
7
100
AcDbSpline
 70
8
 71
3
 72
8
 73
4
 74
0
 40
0
 40
0
 40
0
 40
0
 40
1
 40
1
 40
1
 40
1
 10
35.208183
 20
220.937339
 30
0.0
 10
36.105001
 20
220.565865
 30
0.0
 10
37.137284
 20
220.771198
 30
0.0
 10
37.823679
 20
221.457594
 30
0.0
  0
SPLINE
  5
1c1
100
AcDbEntity
  8
Layer_1
 62
7
100
AcDbSpline
 70
8
 71
3
 72
8
 73
4
 74
0
 40
0
 40
0
 40
0
 40
0
 40
1
 40
1
 40
1
 40
1
 10
37.823679
 20
221.457594
 30
0.0
 10
38.510075
 20
222.143989
 30
0.0
 10
38.715408
 20
223.176272
 30
0.0
 10
38.343934
 20
224.073090
 30
0.0
  0
SPLINE
  5
1c2
100
AcDbEntity
  8
Layer_1
 62
7
100
AcDbSpline
 70
8
 71
3
 72
8
 73
4
 74
0
 40
0
 40
0
 40
0
 40
0
 40
1
 40
1
 40
1
 40
1
 10
38.343934
 20
224.073090
 30
0.0
 10
37.972460
 20
224.969909
 30
0.0
 10
37.097332
 20
225.554650
 30
0.0
 10
36.126623
 20
225.554650
 30
0.0
  0
SPLINE
  5
1c3
100
AcDbEntity
  8
Layer_1
 62
7
100
AcDbSpline
 70
8
 71
3
 72
8
 73
4
 74
0
 40
0
 40
0
 40
0
 40
0
 40
1
 40
1
 40
1
 40
1
 10
36.126623
 20
225.554650
 30
0.0
 10
35.490103
 20
225.554650
 30
0.0
 10
34.879654
 20
225.301794
 30
0.0
 10
34.429567
 20
224.851706
 30
0.0
  0
SPLINE
  5
1c4
100
AcDbEntity
  8
Layer_1
 62
7
100
AcDbSpline
 70
8
 71
3
 72
8
 73
4
 74
0
 40
0
 40
0
 40
0
 40
0
 40
1
 40
1
 40
1
 40
1
 10
34.429567
 20
224.851706
 30
0.0
 10
33.979479
 20
224.401619
 30
0.0
 10
33.726623
 20
223.791170
 30
0.0
 10
33.726623
 20
223.154650
 30
0.0
  0
LINE
  5
1c5
100
AcDbEntity
  8
Layer_1
 62
7
100
AcDbLine
 10
33.726623
 20
223.154650
 30
0.0
 11
33.726623
 21
223.154650
 31
0.0
  0
SPLINE
  5
1c6
100
AcDbEntity
  8
Layer_1
 62
7
100
AcDbSpline
 70
8
 71
3
 72
8
 73
4
 74
0
 40
0
 40
0
 40
0
 40
0
 40
1
 40
1
 40
1
 40
1
 10
97.226688
 20
223.154650
 30
0.0
 10
97.226688
 20
222.183941
 30
0.0
 10
97.811429
 20
221.308813
 30
0.0
 10
98.708248
 20
220.937339
 30
0.0
  0
SPLINE
  5
1c7
100
AcDbEntity
  8
Layer_1
 62
7
100
AcDbSpline
 70
8
 71
3
 72
8
 73
4
 74
0
 40
0
 40
0
 40
0
 40
0
 40
1
 40
1
 40
1
 40
1
 10
98.708248
 20
220.937339
 30
0.0
 10
99.605066
 20
220.565865
 30
0.0
 10
100.637349
 20
220.771198
 30
0.0
 10
101.323744
 20
221.457594
 30
0.0
  0
SPLINE
  5
1c8
100
AcDbEntity
  8
Layer_1
 62
7
100
AcDbSpline
 70
8
 71
3
 72
8
 73
4
 74
0
 40
0
 40
0
 40
0
 40
0
 40
1
 40
1
 40
1
 40
1
 10
101.323744
 20
221.457594
 30
0.0
 10
102.010140
 20
222.143989
 30
0.0
 10
102.215473
 20
223.176272
 30
0.0
 10
101.843999
 20
224.073090
 30
0.0
  0
SPLINE
  5
1c9
100
AcDbEntity
  8
Layer_1
 62
7
100
AcDbSpline
 70
8
 71
3
 72
8
 73
4
 74
0
 40
0
 40
0
 40
0
 40
0
 40
1
 40
1
 40
1
 40
1
 10
101.843999
 20
224.073090
 30
0.0
 10
101.472525
 20
224.969909
 30
0.0
 10
100.597397
 20
225.554650
 30
0.0
 10
99.626688
 20
225.554650
 30
0.0
  0
SPLINE
  5
1ca
100
AcDbEntity
  8
Layer_1
 62
7
100
AcDbSpline
 70
8
 71
3
 72
8
 73
4
 74
0
 40
0
 40
0
 40
0
 40
0
 40
1
 40
1
 40
1
 40
1
 10
99.626688
 20
225.554650
 30
0.0
 10
98.990168
 20
225.554650
 30
0.0
 10
98.379719
 20
225.301794
 30
0.0
 10
97.929632
 20
224.851706
 30
0.0
  0
SPLINE
  5
1cb
100
AcDbEntity
  8
Layer_1
 62
7
100
AcDbSpline
 70
8
 71
3
 72
8
 73
4
 74
0
 40
0
 40
0
 40
0
 40
0
 40
1
 40
1
 40
1
 40
1
 10
97.929632
 20
224.851706
 30
0.0
 10
97.479544
 20
224.401619
 30
0.0
 10
97.226688
 20
223.791170
 30
0.0
 10
97.226688
 20
223.154650
 30
0.0
  0
LINE
  5
1cc
100
AcDbEntity
  8
Layer_1
 62
7
100
AcDbLine
 10
97.226688
 20
223.154650
 30
0.0
 11
97.226688
 21
223.154650
 31
0.0
  0
SPLINE
  5
1cd
100
AcDbEntity
  8
Layer_1
 62
7
100
AcDbSpline
 70
8
 71
3
 72
8
 73
4
 74
0
 40
0
 40
0
 40
0
 40
0
 40
1
 40
1
 40
1
 40
1
 10
97.226688
 20
181.880190
 30
0.0
 10
97.226688
 20
180.909481
 30
0.0
 10
97.811429
 20
180.034353
 30
0.0
 10
98.708248
 20
179.662879
 30
0.0
  0
SPLINE
  5
1ce
100
AcDbEntity
  8
Layer_1
 62
7
100
AcDbSpline
 70
8
 71
3
 72
8
 73
4
 74
0
 40
0
 40
0
 40
0
 40
0
 40
1
 40
1
 40
1
 40
1
 10
98.708248
 20
179.662879
 30
0.0
 10
99.605066
 20
179.291405
 30
0.0
 10
100.637349
 20
179.496738
 30
0.0
 10
101.323744
 20
180.183134
 30
0.0
  0
SPLINE
  5
1cf
100
AcDbEntity
  8
Layer_1
 62
7
100
AcDbSpline
 70
8
 71
3
 72
8
 73
4
 74
0
 40
0
 40
0
 40
0
 40
0
 40
1
 40
1
 40
1
 40
1
 10
101.323744
 20
180.183134
 30
0.0
 10
102.010140
 20
180.869529
 30
0.0
 10
102.215473
 20
181.901812
 30
0.0
 10
101.843999
 20
182.798630
 30
0.0
  0
SPLINE
  5
1d0
100
AcDbEntity
  8
Layer_1
 62
7
100
AcDbSpline
 70
8
 71
3
 72
8
 73
4
 74
0
 40
0
 40
0
 40
0
 40
0
 40
1
 40
1
 40
1
 40
1
 10
101.843999
 20
182.798630
 30
0.0
 10
101.472525
 20
183.695449
 30
0.0
 10
100.597397
 20
184.280190
 30
0.0
 10
99.626688
 20
184.280190
 30
0.0
  0
SPLINE
  5
1d1
100
AcDbEntity
  8
Layer_1
 62
7
100
AcDbSpline
 70
8
 71
3
 72
8
 73
4
 74
0
 40
0
 40
0
 40
0
 40
0
 40
1
 40
1
 40
1
 40
1
 10
99.626688
 20
184.280190
 30
0.0
 10
98.990168
 20
184.280190
 30
0.0
 10
98.379719
 20
184.027334
 30
0.0
 10
97.929632
 20
183.577246
 30
0.0
  0
SPLINE
  5
1d2
100
AcDbEntity
  8
Layer_1
 62
7
100
AcDbSpline
 70
8
 71
3
 72
8
 73
4
 74
0
 40
0
 40
0
 40
0
 40
0
 40
1
 40
1
 40
1
 40
1
 10
97.929632
 20
183.577246
 30
0.0
 10
97.479544
 20
183.127159
 30
0.0
 10
97.226688
 20
182.516710
 30
0.0
 10
97.226688
 20
181.880190
 30
0.0
  0
LINE
  5
1d3
100
AcDbEntity
  8
Layer_1
 62
7
100
AcDbLine
 10
97.226688
 20
181.880190
 30
0.0
 11
97.226688
 21
181.880190
 31
0.0
  0
LINE
  5
1d4
100
AcDbEntity
  8
Layer_1
 62
7
100
AcDbLine
 10
36.247590
 20
181.802650
 30
0.0
 11
99.747580
 21
223.077650
 31
0.0
  0
LINE
  5
1d5
100
AcDbEntity
  8
Layer_1
 62
7
100
AcDbLine
 10
36.247590
 20
223.077650
 30
0.0
 11
99.747580
 21
181.802650
 31
0.0
  0
SPLINE
  5
1d6
100
AcDbEntity
  8
Layer_1
 62
7
100
AcDbSpline
 70
8
 71
3
 72
8
 73
4
 74
0
 40
0
 40
0
 40
0
 40
0
 40
1
 40
1
 40
1
 40
1
 10
124.192066
 20
253.270991
 30
0.0
 10
155.402218
 20
253.364854
 30
0.0
 10
180.800823
 20
278.412053
 30
0.0
 10
181.329477
 20
309.617870
 30
0.0
  0
SPLINE
  5
1d7
100
AcDbEntity
  8
Layer_1
 62
7
100
AcDbSpline
 70
8
 71
3
 72
8
 73
4
 74
0
 40
0
 40
0
 40
0
 40
0
 40
1
 40
1
 40
1
 40
1
 10
124.192107
 20
151.763803
 30
0.0
 10
155.402263
 20
151.669939
 30
0.0
 10
180.800868
 20
126.622735
 30
0.0
 10
181.329517
 20
95.416915
 30
0.0
  0
SPLINE
  5
1d8
100
AcDbEntity
  8
Layer_1
 62
7
100
AcDbSpline
 70
8
 71
3
 72
8
 73
4
 74
0
 40
0
 40
0
 40
0
 40
0
 40
1
 40
1
 40
1
 40
1
 10
20.775714
 20
151.717400
 30
0.0
 10
17.988321
 20
151.544231
 30
0.0
 10
15.252550
 20
152.526079
 30
0.0
 10
13.211392
 20
154.432180
 30
0.0
  0
SPLINE
  5
1d9
100
AcDbEntity
  8
Layer_1
 62
7
100
AcDbSpline
 70
8
 71
3
 72
8
 73
4
 74
0
 40
0
 40
0
 40
0
 40
0
 40
1
 40
1
 40
1
 40
1
 10
13.211392
 20
154.432180
 30
0.0
 10
11.170234
 20
156.338280
 30
0.0
 10
10.003690
 20
159.000541
 30
0.0
 10
9.985932
 20
161.793250
 30
0.0
  0
SPLINE
  5
1da
100
AcDbEntity
  8
Layer_1
 62
7
100
AcDbSpline
 70
8
 71
3
 72
8
 73
4
 74
0
 40
0
 40
0
 40
0
 40
0
 40
1
 40
1
 40
1
 40
1
 10
20.775714
 20
253.317370
 30
0.0
 10
17.988321
 20
253.490539
 30
0.0
 10
15.252550
 20
252.508691
 30
0.0
 10
13.211392
 20
250.602590
 30
0.0
  0
SPLINE
  5
1db
100
AcDbEntity
  8
Layer_1
 62
7
100
AcDbSpline
 70
8
 71
3
 72
8
 73
4
 74
0
 40
0
 40
0
 40
0
 40
0
 40
1
 40
1
 40
1
 40
1
 10
13.211392
 20
250.602590
 30
0.0
 10
11.170234
 20
248.696490
 30
0.0
 10
10.003690
 20
246.034229
 30
0.0
 10
9.985932
 20
243.241520
 30
0.0
  0
LINE
  5
1dc
100
AcDbEntity
  8
Layer_1
 62
7
100
AcDbLine
 10
10.238928
 20
151.763860
 30
0.0
 11
10.238928
 21
253.270990
 31
0.0
  0
LINE
  5
1dd
100
AcDbEntity
  8
Layer_1
 62
7
100
AcDbLine
 10
10.238928
 20
253.270990
 30
0.0
 11
124.192068
 21
253.270990
 31
0.0
  0
LINE
  5
1de
100
AcDbEntity
  8
Layer_1
 62
7
100
AcDbLine
 10
124.192068
 20
253.270990
 30
0.0
 11
124.192068
 21
151.763860
 31
0.0
  0
LINE
  5
1df
100
AcDbEntity
  8
Layer_1
 62
7
100
AcDbLine
 10
124.192068
 20
151.763860
 30
0.0
 11
10.238928
 21
151.763860
 31
0.0
  0
LINE
  5
1e0
100
AcDbEntity
  8
Layer_1
 62
7
100
AcDbLine
 10
1089.823330
 20
231.775460
 30
0.0
 11
1089.823330
 21
174.865941
 31
0.0
  0
LINE
  5
1e1
100
AcDbEntity
  8
Layer_1
 62
7
100
AcDbLine
 10
1089.823330
 20
174.865941
 30
0.0
 11
1013.609814
 21
174.865941
 31
0.0
  0
LINE
  5
1e2
100
AcDbEntity
  8
Layer_1
 62
7
100
AcDbLine
 10
1013.609814
 20
174.865941
 30
0.0
 11
1013.609814
 21
231.775460
 31
0.0
  0
LINE
  5
1e3
100
AcDbEntity
  8
Layer_1
 62
7
100
AcDbLine
 10
1013.609814
 20
231.775460
 30
0.0
 11
1089.823330
 21
231.775460
 31
0.0
  0
LINE
  5
1e4
100
AcDbEntity
  8
Layer_1
 62
7
100
AcDbLine
 10
937.533770
 20
231.773260
 30
0.0
 11
937.533770
 21
250.696735
 31
0.0
  0
LINE
  5
1e5
100
AcDbEntity
  8
Layer_1
 62
7
100
AcDbLine
 10
937.533770
 20
250.696735
 30
0.0
 11
1089.807240
 21
250.696735
 31
0.0
  0
LINE
  5
1e6
100
AcDbEntity
  8
Layer_1
 62
7
100
AcDbLine
 10
1089.807240
 20
250.696735
 30
0.0
 11
1089.807240
 21
231.773260
 31
0.0
  0
LINE
  5
1e7
100
AcDbEntity
  8
Layer_1
 62
7
100
AcDbLine
 10
1089.807240
 20
231.773260
 30
0.0
 11
937.533770
 21
231.773260
 31
0.0
  0
LINE
  5
1e8
100
AcDbEntity
  8
Layer_1
 62
7
100
AcDbLine
 10
937.533710
 20
155.581610
 30
0.0
 11
937.533710
 21
174.505085
 31
0.0
  0
LINE
  5
1e9
100
AcDbEntity
  8
Layer_1
 62
7
100
AcDbLine
 10
937.533710
 20
174.505085
 30
0.0
 11
1089.807180
 21
174.505085
 31
0.0
  0
LINE
  5
1ea
100
AcDbEntity
  8
Layer_1
 62
7
100
AcDbLine
 10
1089.807180
 20
174.505085
 30
0.0
 11
1089.807180
 21
155.581610
 31
0.0
  0
LINE
  5
1eb
100
AcDbEntity
  8
Layer_1
 62
7
100
AcDbLine
 10
1089.807180
 20
155.581610
 30
0.0
 11
937.533710
 21
155.581610
 31
0.0
  0
LINE
  5
1ec
100
AcDbEntity
  8
Layer_1
 62
7
100
AcDbLine
 10
994.663840
 20
231.582690
 30
0.0
 11
1013.636279
 21
231.582690
 31
0.0
  0
LINE
  5
1ed
100
AcDbEntity
  8
Layer_1
 62
7
100
AcDbLine
 10
1013.636279
 20
231.582690
 30
0.0
 11
1013.636279
 21
174.510253
 31
0.0
  0
LINE
  5
1ee
100
AcDbEntity
  8
Layer_1
 62
7
100
AcDbLine
 10
1013.636279
 20
174.510253
 30
0.0
 11
994.663840
 21
174.510253
 31
0.0
  0
LINE
  5
1ef
100
AcDbEntity
  8
Layer_1
 62
7
100
AcDbLine
 10
994.663840
 20
174.510253
 30
0.0
 11
994.663840
 21
231.582690
 31
0.0
  0
LINE
  5
1f0
100
AcDbEntity
  8
Layer_1
 62
7
100
AcDbLine
 10
1089.807430
 20
250.696770
 30
0.0
 11
1108.757766
 21
250.696770
 31
0.0
  0
LINE
  5
1f1
100
AcDbEntity
  8
Layer_1
 62
7
100
AcDbLine
 10
1108.757766
 20
250.696770
 30
0.0
 11
1108.757766
 21
155.546860
 31
0.0
  0
LINE
  5
1f2
100
AcDbEntity
  8
Layer_1
 62
7
100
AcDbLine
 10
1108.757766
 20
155.546860
 30
0.0
 11
1089.807430
 21
155.546860
 31
0.0
  0
LINE
  5
1f3
100
AcDbEntity
  8
Layer_1
 62
7
100
AcDbLine
 10
1089.807430
 20
155.546860
 30
0.0
 11
1089.807430
 21
250.696770
 31
0.0
  0
LINE
  5
1f4
100
AcDbEntity
  8
Layer_1
 62
7
100
AcDbLine
 10
1082.529230
 20
223.232170
 30
0.0
 11
1082.529230
 21
181.957168
 31
0.0
  0
LINE
  5
1f5
100
AcDbEntity
  8
Layer_1
 62
7
100
AcDbLine
 10
1082.529230
 20
181.957168
 30
0.0
 11
1019.029230
 21
181.957168
 31
0.0
  0
LINE
  5
1f6
100
AcDbEntity
  8
Layer_1
 62
7
100
AcDbLine
 10
1019.029230
 20
181.957168
 30
0.0
 11
1019.029230
 21
223.232170
 31
0.0
  0
LINE
  5
1f7
100
AcDbEntity
  8
Layer_1
 62
7
100
AcDbLine
 10
1019.029230
 20
223.232170
 30
0.0
 11
1082.529230
 21
223.232170
 31
0.0
  0
SPLINE
  5
1f8
100
AcDbEntity
  8
Layer_1
 62
7
100
AcDbSpline
 70
8
 71
3
 72
8
 73
4
 74
0
 40
0
 40
0
 40
0
 40
0
 40
1
 40
1
 40
1
 40
1
 10
1085.050330
 20
223.154650
 30
0.0
 10
1085.050330
 20
224.125359
 30
0.0
 10
1084.465589
 20
225.000487
 30
0.0
 10
1083.568770
 20
225.371961
 30
0.0
  0
SPLINE
  5
1f9
100
AcDbEntity
  8
Layer_1
 62
7
100
AcDbSpline
 70
8
 71
3
 72
8
 73
4
 74
0
 40
0
 40
0
 40
0
 40
0
 40
1
 40
1
 40
1
 40
1
 10
1083.568770
 20
225.371961
 30
0.0
 10
1082.671952
 20
225.743435
 30
0.0
 10
1081.639669
 20
225.538102
 30
0.0
 10
1080.953274
 20
224.851706
 30
0.0
  0
SPLINE
  5
1fa
100
AcDbEntity
  8
Layer_1
 62
7
100
AcDbSpline
 70
8
 71
3
 72
8
 73
4
 74
0
 40
0
 40
0
 40
0
 40
0
 40
1
 40
1
 40
1
 40
1
 10
1080.953274
 20
224.851706
 30
0.0
 10
1080.266878
 20
224.165311
 30
0.0
 10
1080.061545
 20
223.133028
 30
0.0
 10
1080.433019
 20
222.236210
 30
0.0
  0
SPLINE
  5
1fb
100
AcDbEntity
  8
Layer_1
 62
7
100
AcDbSpline
 70
8
 71
3
 72
8
 73
4
 74
0
 40
0
 40
0
 40
0
 40
0
 40
1
 40
1
 40
1
 40
1
 10
1080.433019
 20
222.236210
 30
0.0
 10
1080.804493
 20
221.339391
 30
0.0
 10
1081.679621
 20
220.754650
 30
0.0
 10
1082.650330
 20
220.754650
 30
0.0
  0
SPLINE
  5
1fc
100
AcDbEntity
  8
Layer_1
 62
7
100
AcDbSpline
 70
8
 71
3
 72
8
 73
4
 74
0
 40
0
 40
0
 40
0
 40
0
 40
1
 40
1
 40
1
 40
1
 10
1082.650330
 20
220.754650
 30
0.0
 10
1083.286850
 20
220.754650
 30
0.0
 10
1083.897299
 20
221.007506
 30
0.0
 10
1084.347386
 20
221.457594
 30
0.0
  0
SPLINE
  5
1fd
100
AcDbEntity
  8
Layer_1
 62
7
100
AcDbSpline
 70
8
 71
3
 72
8
 73
4
 74
0
 40
0
 40
0
 40
0
 40
0
 40
1
 40
1
 40
1
 40
1
 10
1084.347386
 20
221.457594
 30
0.0
 10
1084.797474
 20
221.907681
 30
0.0
 10
1085.050330
 20
222.518130
 30
0.0
 10
1085.050330
 20
223.154650
 30
0.0
  0
LINE
  5
1fe
100
AcDbEntity
  8
Layer_1
 62
7
100
AcDbLine
 10
1085.050330
 20
223.154650
 30
0.0
 11
1085.050330
 21
223.154650
 31
0.0
  0
SPLINE
  5
1ff
100
AcDbEntity
  8
Layer_1
 62
7
100
AcDbSpline
 70
8
 71
3
 72
8
 73
4
 74
0
 40
0
 40
0
 40
0
 40
0
 40
1
 40
1
 40
1
 40
1
 10
1085.050330
 20
181.880190
 30
0.0
 10
1085.050330
 20
182.850899
 30
0.0
 10
1084.465589
 20
183.726027
 30
0.0
 10
1083.568770
 20
184.097501
 30
0.0
  0
SPLINE
  5
200
100
AcDbEntity
  8
Layer_1
 62
7
100
AcDbSpline
 70
8
 71
3
 72
8
 73
4
 74
0
 40
0
 40
0
 40
0
 40
0
 40
1
 40
1
 40
1
 40
1
 10
1083.568770
 20
184.097501
 30
0.0
 10
1082.671952
 20
184.468975
 30
0.0
 10
1081.639669
 20
184.263642
 30
0.0
 10
1080.953274
 20
183.577246
 30
0.0
  0
SPLINE
  5
201
100
AcDbEntity
  8
Layer_1
 62
7
100
AcDbSpline
 70
8
 71
3
 72
8
 73
4
 74
0
 40
0
 40
0
 40
0
 40
0
 40
1
 40
1
 40
1
 40
1
 10
1080.953274
 20
183.577246
 30
0.0
 10
1080.266878
 20
182.890851
 30
0.0
 10
1080.061545
 20
181.858568
 30
0.0
 10
1080.433019
 20
180.961750
 30
0.0
  0
SPLINE
  5
202
100
AcDbEntity
  8
Layer_1
 62
7
100
AcDbSpline
 70
8
 71
3
 72
8
 73
4
 74
0
 40
0
 40
0
 40
0
 40
0
 40
1
 40
1
 40
1
 40
1
 10
1080.433019
 20
180.961750
 30
0.0
 10
1080.804493
 20
180.064931
 30
0.0
 10
1081.679621
 20
179.480190
 30
0.0
 10
1082.650330
 20
179.480190
 30
0.0
  0
SPLINE
  5
203
100
AcDbEntity
  8
Layer_1
 62
7
100
AcDbSpline
 70
8
 71
3
 72
8
 73
4
 74
0
 40
0
 40
0
 40
0
 40
0
 40
1
 40
1
 40
1
 40
1
 10
1082.650330
 20
179.480190
 30
0.0
 10
1083.286850
 20
179.480190
 30
0.0
 10
1083.897299
 20
179.733046
 30
0.0
 10
1084.347386
 20
180.183134
 30
0.0
  0
SPLINE
  5
204
100
AcDbEntity
  8
Layer_1
 62
7
100
AcDbSpline
 70
8
 71
3
 72
8
 73
4
 74
0
 40
0
 40
0
 40
0
 40
0
 40
1
 40
1
 40
1
 40
1
 10
1084.347386
 20
180.183134
 30
0.0
 10
1084.797474
 20
180.633221
 30
0.0
 10
1085.050330
 20
181.243670
 30
0.0
 10
1085.050330
 20
181.880190
 30
0.0
  0
LINE
  5
205
100
AcDbEntity
  8
Layer_1
 62
7
100
AcDbLine
 10
1085.050330
 20
181.880190
 30
0.0
 11
1085.050330
 21
181.880190
 31
0.0
  0
SPLINE
  5
206
100
AcDbEntity
  8
Layer_1
 62
7
100
AcDbSpline
 70
8
 71
3
 72
8
 73
4
 74
0
 40
0
 40
0
 40
0
 40
0
 40
1
 40
1
 40
1
 40
1
 10
1021.550330
 20
181.880190
 30
0.0
 10
1021.550330
 20
182.850899
 30
0.0
 10
1020.965589
 20
183.726027
 30
0.0
 10
1020.068770
 20
184.097501
 30
0.0
  0
SPLINE
  5
207
100
AcDbEntity
  8
Layer_1
 62
7
100
AcDbSpline
 70
8
 71
3
 72
8
 73
4
 74
0
 40
0
 40
0
 40
0
 40
0
 40
1
 40
1
 40
1
 40
1
 10
1020.068770
 20
184.097501
 30
0.0
 10
1019.171952
 20
184.468975
 30
0.0
 10
1018.139669
 20
184.263642
 30
0.0
 10
1017.453274
 20
183.577246
 30
0.0
  0
SPLINE
  5
208
100
AcDbEntity
  8
Layer_1
 62
7
100
AcDbSpline
 70
8
 71
3
 72
8
 73
4
 74
0
 40
0
 40
0
 40
0
 40
0
 40
1
 40
1
 40
1
 40
1
 10
1017.453274
 20
183.577246
 30
0.0
 10
1016.766878
 20
182.890851
 30
0.0
 10
1016.561545
 20
181.858568
 30
0.0
 10
1016.933019
 20
180.961750
 30
0.0
  0
SPLINE
  5
209
100
AcDbEntity
  8
Layer_1
 62
7
100
AcDbSpline
 70
8
 71
3
 72
8
 73
4
 74
0
 40
0
 40
0
 40
0
 40
0
 40
1
 40
1
 40
1
 40
1
 10
1016.933019
 20
180.961750
 30
0.0
 10
1017.304493
 20
180.064931
 30
0.0
 10
1018.179621
 20
179.480190
 30
0.0
 10
1019.150330
 20
179.480190
 30
0.0
  0
SPLINE
  5
20a
100
AcDbEntity
  8
Layer_1
 62
7
100
AcDbSpline
 70
8
 71
3
 72
8
 73
4
 74
0
 40
0
 40
0
 40
0
 40
0
 40
1
 40
1
 40
1
 40
1
 10
1019.150330
 20
179.480190
 30
0.0
 10
1019.786850
 20
179.480190
 30
0.0
 10
1020.397299
 20
179.733046
 30
0.0
 10
1020.847386
 20
180.183134
 30
0.0
  0
SPLINE
  5
20b
100
AcDbEntity
  8
Layer_1
 62
7
100
AcDbSpline
 70
8
 71
3
 72
8
 73
4
 74
0
 40
0
 40
0
 40
0
 40
0
 40
1
 40
1
 40
1
 40
1
 10
1020.847386
 20
180.183134
 30
0.0
 10
1021.297474
 20
180.633221
 30
0.0
 10
1021.550330
 20
181.243670
 30
0.0
 10
1021.550330
 20
181.880190
 30
0.0
  0
LINE
  5
20c
100
AcDbEntity
  8
Layer_1
 62
7
100
AcDbLine
 10
1021.550330
 20
181.880190
 30
0.0
 11
1021.550330
 21
181.880190
 31
0.0
  0
SPLINE
  5
20d
100
AcDbEntity
  8
Layer_1
 62
7
100
AcDbSpline
 70
8
 71
3
 72
8
 73
4
 74
0
 40
0
 40
0
 40
0
 40
0
 40
1
 40
1
 40
1
 40
1
 10
1021.550330
 20
223.154650
 30
0.0
 10
1021.550330
 20
224.125359
 30
0.0
 10
1020.965589
 20
225.000487
 30
0.0
 10
1020.068770
 20
225.371961
 30
0.0
  0
SPLINE
  5
20e
100
AcDbEntity
  8
Layer_1
 62
7
100
AcDbSpline
 70
8
 71
3
 72
8
 73
4
 74
0
 40
0
 40
0
 40
0
 40
0
 40
1
 40
1
 40
1
 40
1
 10
1020.068770
 20
225.371961
 30
0.0
 10
1019.171952
 20
225.743435
 30
0.0
 10
1018.139669
 20
225.538102
 30
0.0
 10
1017.453274
 20
224.851706
 30
0.0
  0
SPLINE
  5
20f
100
AcDbEntity
  8
Layer_1
 62
7
100
AcDbSpline
 70
8
 71
3
 72
8
 73
4
 74
0
 40
0
 40
0
 40
0
 40
0
 40
1
 40
1
 40
1
 40
1
 10
1017.453274
 20
224.851706
 30
0.0
 10
1016.766878
 20
224.165311
 30
0.0
 10
1016.561545
 20
223.133028
 30
0.0
 10
1016.933019
 20
222.236210
 30
0.0
  0
SPLINE
  5
210
100
AcDbEntity
  8
Layer_1
 62
7
100
AcDbSpline
 70
8
 71
3
 72
8
 73
4
 74
0
 40
0
 40
0
 40
0
 40
0
 40
1
 40
1
 40
1
 40
1
 10
1016.933019
 20
222.236210
 30
0.0
 10
1017.304493
 20
221.339391
 30
0.0
 10
1018.179621
 20
220.754650
 30
0.0
 10
1019.150330
 20
220.754650
 30
0.0
  0
SPLINE
  5
211
100
AcDbEntity
  8
Layer_1
 62
7
100
AcDbSpline
 70
8
 71
3
 72
8
 73
4
 74
0
 40
0
 40
0
 40
0
 40
0
 40
1
 40
1
 40
1
 40
1
 10
1019.150330
 20
220.754650
 30
0.0
 10
1019.786850
 20
220.754650
 30
0.0
 10
1020.397299
 20
221.007506
 30
0.0
 10
1020.847386
 20
221.457594
 30
0.0
  0
SPLINE
  5
212
100
AcDbEntity
  8
Layer_1
 62
7
100
AcDbSpline
 70
8
 71
3
 72
8
 73
4
 74
0
 40
0
 40
0
 40
0
 40
0
 40
1
 40
1
 40
1
 40
1
 10
1020.847386
 20
221.457594
 30
0.0
 10
1021.297474
 20
221.907681
 30
0.0
 10
1021.550330
 20
222.518130
 30
0.0
 10
1021.550330
 20
223.154650
 30
0.0
  0
LINE
  5
213
100
AcDbEntity
  8
Layer_1
 62
7
100
AcDbLine
 10
1021.550330
 20
223.154650
 30
0.0
 11
1021.550330
 21
223.154650
 31
0.0
  0
LINE
  5
214
100
AcDbEntity
  8
Layer_1
 62
7
100
AcDbLine
 10
1082.529330
 20
223.232170
 30
0.0
 11
1019.029330
 21
181.957170
 31
0.0
  0
LINE
  5
215
100
AcDbEntity
  8
Layer_1
 62
7
100
AcDbLine
 10
1082.529330
 20
181.957170
 30
0.0
 11
1019.029330
 21
223.232170
 31
0.0
  0
SPLINE
  5
216
100
AcDbEntity
  8
Layer_1
 62
7
100
AcDbSpline
 70
8
 71
3
 72
8
 73
4
 74
0
 40
0
 40
0
 40
0
 40
0
 40
1
 40
1
 40
1
 40
1
 10
994.584958
 20
151.763803
 30
0.0
 10
963.374805
 20
151.669944
 30
0.0
 10
937.976196
 20
126.622748
 30
0.0
 10
937.447538
 20
95.416931
 30
0.0
  0
SPLINE
  5
217
100
AcDbEntity
  8
Layer_1
 62
7
100
AcDbSpline
 70
8
 71
3
 72
8
 73
4
 74
0
 40
0
 40
0
 40
0
 40
0
 40
1
 40
1
 40
1
 40
1
 10
994.584725
 20
253.270959
 30
0.0
 10
963.374574
 20
253.364824
 30
0.0
 10
937.975971
 20
278.412022
 30
0.0
 10
937.447317
 20
309.617837
 30
0.0
  0
SPLINE
  5
218
100
AcDbEntity
  8
Layer_1
 62
7
100
AcDbSpline
 70
8
 71
3
 72
8
 73
4
 74
0
 40
0
 40
0
 40
0
 40
0
 40
1
 40
1
 40
1
 40
1
 10
1098.001330
 20
253.317450
 30
0.0
 10
1100.788716
 20
253.490613
 30
0.0
 10
1103.524477
 20
252.508765
 30
0.0
 10
1105.565630
 20
250.602670
 30
0.0
  0
SPLINE
  5
219
100
AcDbEntity
  8
Layer_1
 62
7
100
AcDbSpline
 70
8
 71
3
 72
8
 73
4
 74
0
 40
0
 40
0
 40
0
 40
0
 40
1
 40
1
 40
1
 40
1
 10
1105.565630
 20
250.602670
 30
0.0
 10
1107.606802
 20
248.696577
 30
0.0
 10
1108.773362
 20
246.034315
 30
0.0
 10
1108.791130
 20
243.241600
 30
0.0
  0
SPLINE
  5
21a
100
AcDbEntity
  8
Layer_1
 62
7
100
AcDbSpline
 70
8
 71
3
 72
8
 73
4
 74
0
 40
0
 40
0
 40
0
 40
0
 40
1
 40
1
 40
1
 40
1
 10
1098.001330
 20
151.717460
 30
0.0
 10
1100.788716
 20
151.544297
 30
0.0
 10
1103.524477
 20
152.526145
 30
0.0
 10
1105.565630
 20
154.432240
 30
0.0
  0
SPLINE
  5
21b
100
AcDbEntity
  8
Layer_1
 62
7
100
AcDbSpline
 70
8
 71
3
 72
8
 73
4
 74
0
 40
0
 40
0
 40
0
 40
0
 40
1
 40
1
 40
1
 40
1
 10
1105.565630
 20
154.432240
 30
0.0
 10
1107.606805
 20
156.338335
 30
0.0
 10
1108.773365
 20
159.000601
 30
0.0
 10
1108.791130
 20
161.793320
 30
0.0
  0
LINE
  5
21c
100
AcDbEntity
  8
Layer_1
 62
7
100
AcDbLine
 10
1108.538030
 20
253.270980
 30
0.0
 11
1108.538030
 21
151.763850
 31
0.0
  0
LINE
  5
21d
100
AcDbEntity
  8
Layer_1
 62
7
100
AcDbLine
 10
1108.538030
 20
151.763850
 30
0.0
 11
994.584890
 21
151.763850
 31
0.0
  0
LINE
  5
21e
100
AcDbEntity
  8
Layer_1
 62
7
100
AcDbLine
 10
994.584890
 20
151.763850
 30
0.0
 11
994.584890
 21
253.270980
 31
0.0
  0
LINE
  5
21f
100
AcDbEntity
  8
Layer_1
 62
7
100
AcDbLine
 10
994.584890
 20
253.270980
 30
0.0
 11
1108.538030
 21
253.270980
 31
0.0
  0
SPLINE
  5
220
100
AcDbEntity
  8
Layer_1
 62
7
100
AcDbSpline
 70
8
 71
3
 72
8
 73
4
 74
0
 40
0
 40
0
 40
0
 40
0
 40
1
 40
1
 40
1
 40
1
 10
192.225630
 20
75.517120
 30
0.0
 10
189.438239
 20
75.343949
 30
0.0
 10
186.702469
 20
76.325793
 30
0.0
 10
184.661310
 20
78.231890
 30
0.0
  0
SPLINE
  5
221
100
AcDbEntity
  8
Layer_1
 62
7
100
AcDbSpline
 70
8
 71
3
 72
8
 73
4
 74
0
 40
0
 40
0
 40
0
 40
0
 40
1
 40
1
 40
1
 40
1
 10
184.661310
 20
78.231890
 30
0.0
 10
182.620150
 20
80.137992
 30
0.0
 10
181.453605
 20
82.800257
 30
0.0
 10
181.435850
 20
85.592970
 30
0.0
  0
SPLINE
  5
222
100
AcDbEntity
  8
Layer_1
 62
7
100
AcDbSpline
 70
8
 71
3
 72
8
 73
4
 74
0
 40
0
 40
0
 40
0
 40
0
 40
1
 40
1
 40
1
 40
1
 10
192.225630
 20
329.393789
 30
0.0
 10
189.438238
 20
329.566958
 30
0.0
 10
186.702468
 20
328.585111
 30
0.0
 10
184.661310
 20
326.679011
 30
0.0
  0
SPLINE
  5
223
100
AcDbEntity
  8
Layer_1
 62
7
100
AcDbSpline
 70
8
 71
3
 72
8
 73
4
 74
0
 40
0
 40
0
 40
0
 40
0
 40
1
 40
1
 40
1
 40
1
 10
184.661310
 20
326.679011
 30
0.0
 10
182.620152
 20
324.772911
 30
0.0
 10
181.453607
 20
322.110648
 30
0.0
 10
181.435850
 20
319.317938
 30
0.0
  0
SPLINE
  5
224
100
AcDbEntity
  8
Layer_1
 62
7
100
AcDbSpline
 70
8
 71
3
 72
8
 73
4
 74
0
 40
0
 40
0
 40
0
 40
0
 40
1
 40
1
 40
1
 40
1
 10
925.852510
 20
75.517120
 30
0.0
 10
928.639904
 20
75.343946
 30
0.0
 10
931.375678
 20
76.325790
 30
0.0
 10
933.416840
 20
78.231890
 30
0.0
  0
SPLINE
  5
225
100
AcDbEntity
  8
Layer_1
 62
7
100
AcDbSpline
 70
8
 71
3
 72
8
 73
4
 74
0
 40
0
 40
0
 40
0
 40
0
 40
1
 40
1
 40
1
 40
1
 10
933.416840
 20
78.231890
 30
0.0
 10
935.458000
 20
80.137992
 30
0.0
 10
936.624545
 20
82.800257
 30
0.0
 10
936.642300
 20
85.592970
 30
0.0
  0
SPLINE
  5
226
100
AcDbEntity
  8
Layer_1
 62
7
100
AcDbSpline
 70
8
 71
3
 72
8
 73
4
 74
0
 40
0
 40
0
 40
0
 40
0
 40
1
 40
1
 40
1
 40
1
 10
925.852510
 20
329.393789
 30
0.0
 10
928.639906
 20
329.566961
 30
0.0
 10
931.375680
 20
328.585113
 30
0.0
 10
933.416840
 20
326.679011
 30
0.0
  0
SPLINE
  5
227
100
AcDbEntity
  8
Layer_1
 62
7
100
AcDbSpline
 70
8
 71
3
 72
8
 73
4
 74
0
 40
0
 40
0
 40
0
 40
0
 40
1
 40
1
 40
1
 40
1
 10
933.416840
 20
326.679011
 30
0.0
 10
935.457998
 20
324.772911
 30
0.0
 10
936.624543
 20
322.110648
 30
0.0
 10
936.642300
 20
319.317938
 30
0.0
  0
ENDSEC
  0
SECTION
  2
OBJECTS
  0
DICTIONARY
  5
C
330
0
100
AcDbDictionary
  3
ACAD_GROUP
350
D
  3
ACAD_MLINESTYLE
350
17
  0
DICTIONARY
  5
D
330
C
100
AcDbDictionary
  0
DICTIONARY
  5
1A
330
C
100
AcDbDictionary
  0
DICTIONARY
  5
17
330
C
100
AcDbDictionary
  3
STANDARD
350
18
  0
DICTIONARY
  5
19
330
C
100
AcDbDictionary
  0
ENDSEC
  0
EOF
