  0
SECTION
  2
HEADER
  9
$ACADVER
  1
AC1003
  9
$EXTMIN
 10
0.743215526558993
 20
3.07271093776349
  9
$EXTMAX
 10
6.90364859742527
 20
0.490924468122528
  9
$INSUNITS
 70
1
  9
$INSBASE
 10
3.82343206199213
 20
1.78181770294301
999
Created with OMAX LAYOUT for Windows. (www.omax.com) 9/17/2020
  0
ENDSEC
  0
SECTION
  2
TABLES
  0
TABLE
  2
LAYER
 70
    10
  0
LAYER
  2
0
 70
     0
 62
     7
  6
CONTINUOUS
  0
LAYER
  2
1
 70
     0
 62
     7
  6
CONTINUOUS
  0
LAYER
  2
2
 70
     0
 62
     7
  6
CONTINUOUS
  0
LAYER
  2
3
 70
     0
 62
     7
  6
CONTINUOUS
  0
LAYER
  2
4
 70
     0
 62
     7
  6
CONTINUOUS
  0
LAYER
  2
5
 70
     0
 62
     7
  6
CONTINUOUS
  0
LAYER
  2
6
 70
     0
 62
     7
  6
CONTINUOUS
  0
LAYER
  2
7
 70
     0
 62
     7
  6
CONTINUOUS
  0
LAYER
  2
8
 70
     0
 62
     7
  6
CONTINUOUS
  0
LAYER
  2
9
 70
     0
 62
     7
  6
CONTINUOUS
  0
LAYER
  2
10
 70
     0
 62
     7
  6
CONTINUOUS
  0
LAYER
  2
11
 70
     0
 62
     7
  6
CONTINUOUS
  0
LAYER
  2
12
 70
     0
 62
     7
  6
CONTINUOUS
  0
LAYER
  2
13
 70
     0
 62
     7
  6
CONTINUOUS
  0
LAYER
  2
14
 70
     0
 62
     7
  6
CONTINUOUS
  0
LAYER
  2
15
 70
     0
 62
     7
  6
CONTINUOUS
  0
LAYER
  2
16
 70
     0
 62
     7
  6
CONTINUOUS
  0
LAYER
  2
17
 70
     0
 62
     7
  6
CONTINUOUS
  0
LAYER
  2
18
 70
     0
 62
     7
  6
CONTINUOUS
  0
LAYER
  2
19
 70
     0
 62
     7
  6
CONTINUOUS
  0
LAYER
  2
20
 70
     0
 62
     7
  6
CONTINUOUS
  0
LAYER
  2
21
 70
     0
 62
     7
  6
CONTINUOUS
  0
LAYER
  2
22
 70
     0
 62
     7
  6
CONTINUOUS
  0
LAYER
  2
23
 70
     0
 62
     7
  6
CONTINUOUS
  0
LAYER
  2
24
 70
     0
 62
     7
  6
CONTINUOUS
  0
LAYER
  2
25
 70
     0
 62
     7
  6
CONTINUOUS
  0
LAYER
  2
26
 70
     0
 62
     7
  6
CONTINUOUS
  0
LAYER
  2
27
 70
     0
 62
     7
  6
CONTINUOUS
  0
LAYER
  2
28
 70
     0
 62
     7
  6
CONTINUOUS
  0
LAYER
  2
29
 70
     0
 62
     7
  6
CONTINUOUS
  0
LAYER
  2
30
 70
     0
 62
     7
  6
CONTINUOUS
  0
LAYER
  2
31
 70
     0
 62
     7
  6
CONTINUOUS
  0
ENDTAB
  0
ENDSEC
  0
SECTION
  2
ENTITIES
  0
LINE
  8
0
  6
CONTINUOUS
 62
0
 10
0.743479735448144
 20
0.490931145112273
 30
0.0
 11
6.42012994686513
 21
1.1157743288713
 31
0.0
  0
LINE
  8
0
  6
CONTINUOUS
 62
0
 10
6.52003476902332
 20
1.12449820634436
 30
0.0
 11
6.16599851824776
 21
2.33095793135516
 31
0.0
  0
LINE
  8
0
  6
CONTINUOUS
 62
0
 10
6.06723996471718
 20
2.34838858347067
 30
0.0
 11
5.29252101624233
 21
2.70040110169609
 31
0.0
  0
LINE
  8
0
  6
CONTINUOUS
 62
0
 10
5.20553353745679
 20
2.6504986161552
 30
0.0
 11
4.90685228735545
 21
2.34933258602577
 31
0.0
  0
LINE
  8
0
  6
CONTINUOUS
 62
0
 10
4.80694746519726
 20
2.3406087085527
 30
0.0
 11
5.59362386626084
 21
1.26681135801152
 31
0.0
  0
LINE
  8
0
  6
CONTINUOUS
 62
0
 10
5.53553976315885
 20
1.18505980453722
 30
0.0
 11
5.28966649290823
 21
0.760199337096
 31
0.0
  0
LINE
  8
0
  6
CONTINUOUS
 62
0
 10
5.20737828629083
 20
0.817520629652212
 30
0.0
 11
4.90615599856273
 21
1.11048549041029
 31
0.0
  0
LINE
  8
0
  6
CONTINUOUS
 62
0
 10
4.80739744503215
 20
1.12791614252579
 30
0.0
 11
2.74453779327871
 21
1.47315630110662
 31
0.0
  0
LINE
  8
0
  6
CONTINUOUS
 62
0
 10
2.67511654861367
 20
1.54552874280772
 30
0.0
 11
2.0181963057237
 21
2.30411227387692
 31
0.0
  0
LINE
  8
0
  6
CONTINUOUS
 62
0
 10
2.06420399145569
 20
2.28507507915968
 30
0.0
 11
2.7474789251815
 21
1.98862376298447
 31
0.0
  0
LINE
  8
0
  6
CONTINUOUS
 62
0
 10
2.66714070228821
 20
1.92860002208995
 30
0.0
 11
2.34866494578819
 21
1.73463960741781
 31
0.0
  0
LINE
  8
0
  6
CONTINUOUS
 62
0
 10
2.32962775107094
 20
1.68863192168581
 30
0.0
 11
2.02131334965352
 21
1.16140500763858
 31
0.0
  0
LINE
  8
0
  6
CONTINUOUS
 62
0
 10
1.97194614923905
 20
1.16788586038753
 30
0.0
 11
1.35962031045973
 21
1.15944212103181
 31
0.0
  0
LINE
  8
0
  6
CONTINUOUS
 62
0
 10
1.32929508320511
 20
1.19893265813974
 30
0.0
 11
1.02597736686928
 21
1.72884552394162
 31
0.0
  0
LINE
  8
0
  6
CONTINUOUS
 62
0
 10
1.06546790397721
 20
1.75917075119624
 30
0.0
 11
1.54231440481902
 21
1.99814285646325
 31
0.0
  0
LINE
  8
0
  6
CONTINUOUS
 62
0
 10
1.48480689422875
 20
2.08030103167628
 30
0.0
 11
1.35904542216015
 21
2.30491558484668
 31
0.0
  0
LINE
  8
0
  6
CONTINUOUS
 62
0
 10
1.38934160548617
 20
2.34442840814486
 30
0.0
 11
1.86021603129898
 21
2.8272925804496
 31
0.0
  0
LINE
  8
0
  6
CONTINUOUS
 62
0
 10
1.86893990877204
 20
2.72738775829141
 30
0.0
 11
0.743479735448144
 21
3.07271093776349
 31
0.0
  0
ARC
  8
3
  6
CONTINUOUS
 62
3
 10
6.49026277065897
 20
1.12231723698147
 30
0.0
 40
0.079724409443446
 50
359.999999996141
 51
90.0000000038583
  0
LINE
  8
3
  6
CONTINUOUS
 62
3
 10
6.4902627706536
 20
1.20204164642491
 30
0.0
 11
6.09656198325204
 21
1.20204164642491
 31
0.0
  0
ARC
  8
3
  6
CONTINUOUS
 62
3
 10
6.09656198325204
 20
1.1223172369761
 30
0.0
 40
0.0797244094488154
 50
90
 51
270
  0
LINE
  8
3
  6
CONTINUOUS
 62
3
 10
6.09656198325204
 20
1.04259282752728
 30
0.0
 11
6.4902627706536
 21
1.04259282752728
 31
0.0
  0
ARC
  8
3
  6
CONTINUOUS
 62
3
 10
6.49026277065897
 20
1.12231723697073
 30
0.0
 40
0.079724409443446
 50
269.999999996141
 51
3.85866802287963E-9
  0
ARC
  8
3
  6
CONTINUOUS
 62
3
 10
6.09656198325025
 20
2.3427896779196
 30
0.0
 40
0.0797244094474567
 50
164.999999998713
 51
270.000000001286
  0
LINE
  8
3
  6
CONTINUOUS
 62
3
 10
6.09656198325204
 20
2.26306526847214
 30
0.0
 11
6.4902627706536
 21
2.26306526847214
 31
0.0
  0
ARC
  8
3
  6
CONTINUOUS
 62
3
 10
6.4902627706536
 20
2.34278967792097
 30
0.0
 40
0.0797244094488301
 50
270
 51
90
  0
LINE
  8
3
  6
CONTINUOUS
 62
3
 10
6.4902627706536
 20
2.4225140873698
 30
0.0
 11
6.09656198325204
 21
2.4225140873698
 31
0.0
  0
ARC
  8
3
  6
CONTINUOUS
 62
3
 10
6.09656198324309
 20
2.34278967793263
 30
0.0
 40
0.0797244094371679
 50
89.9999999935687
 51
165.000000006431
  0
ARC
  8
3
  6
CONTINUOUS
 62
3
 10
5.2316321180534
 20
2.66498973773694
 30
0.0
 40
0.0797244094416559
 50
204.851270879453
 51
294.851270889743
  0
ARC
  8
3
  6
CONTINUOUS
 62
3
 10
5.66349111711029
 20
1.73255345744852
 30
0.0
 40
0.947864813869161
 50
65.1487291153985
 51
114.851270884601
  0
ARC
  8
3
  6
CONTINUOUS
 62
3
 10
6.09535011616371
 20
2.66498973774645
 30
0.0
 40
0.0797244094488145
 50
245.148729115401
 51
65.1487291154015
  0
ARC
  8
3
  6
CONTINUOUS
 62
3
 10
5.66349111711029
 20
1.73255345744855
 30
0.0
 40
1.10731363276677
 50
65.1487291153984
 51
114.851270884601
  0
ARC
  8
3
  6
CONTINUOUS
 62
3
 10
5.23163211805689
 20
2.66498973774645
 30
0.0
 40
0.079724409448815
 50
114.851270884599
 51
204.851270884599
  0
ARC
  8
3
  6
CONTINUOUS
 62
3
 10
4.83671946356163
 20
2.3427896779156
 30
0.0
 40
0.0797244094434609
 50
179.999999996141
 51
270.000000003858
  0
LINE
  8
3
  6
CONTINUOUS
 62
3
 10
4.836719463567
 20
2.26306526847214
 30
0.0
 11
5.23042025096856
 21
2.26306526847214
 31
0.0
  0
ARC
  8
3
  6
CONTINUOUS
 62
3
 10
5.23042025096856
 20
2.34278967792097
 30
0.0
 40
0.0797244094488301
 50
270
 51
90
  0
LINE
  8
3
  6
CONTINUOUS
 62
3
 10
5.23042025096856
 20
2.4225140873698
 30
0.0
 11
4.836719463567
 21
2.4225140873698
 31
0.0
  0
ARC
  8
3
  6
CONTINUOUS
 62
3
 10
4.83671946356163
 20
2.34278967792634
 30
0.0
 40
0.0797244094434609
 50
89.9999999961411
 51
180.000000003859
  0
ARC
  8
3
  6
CONTINUOUS
 62
3
 10
5.66349111711954
 20
1.33885267002487
 30
0.0
 40
0.249999999987335
 50
229.615864274973
 51
350.768271443435
  0
ARC
  8
3
  6
CONTINUOUS
 62
3
 10
6.02683343371443
 20
1.27979755193671
 30
0.0
 40
0.118110236220478
 50
90.0000000000017
 51
170.768271438782
  0
LINE
  8
3
  6
CONTINUOUS
 62
3
 10
6.02683343371443
 20
1.39790778815719
 30
0.0
 11
6.29931788876385
 21
1.39790778815719
 31
0.0
  0
ARC
  8
3
  6
CONTINUOUS
 62
3
 10
6.29931788876385
 20
1.73255345744853
 30
0.0
 40
0.334645669291336
 50
270
 51
90
  0
LINE
  8
3
  6
CONTINUOUS
 62
3
 10
6.29931788876385
 20
2.06719912673986
 30
0.0
 11
6.02683343371446
 21
2.06719912673986
 31
0.0
  0
ARC
  8
3
  6
CONTINUOUS
 62
3
 10
6.02683343371446
 20
2.18530936296034
 30
0.0
 40
0.118110236220478
 50
189.231728561218
 51
269.999999999998
  0
ARC
  8
3
  6
CONTINUOUS
 62
3
 10
5.6634911171103
 20
2.12625424485011
 30
0.0
 40
0.249999999999996
 50
9.23172856121803
 51
170.768271438782
  0
ARC
  8
3
  6
CONTINUOUS
 62
3
 10
5.30014880050613
 20
2.18530936296034
 30
0.0
 40
0.118110236220479
 50
270.000000000001
 51
350.768271438781
  0
LINE
  8
3
  6
CONTINUOUS
 62
3
 10
5.30014880050614
 20
2.06719912673986
 30
0.0
 11
5.02766434545675
 21
2.06719912673986
 31
0.0
  0
ARC
  8
3
  6
CONTINUOUS
 62
3
 10
5.02766434545675
 20
1.73255345744853
 30
0.0
 40
0.334645669291336
 50
90
 51
270
  0
LINE
  8
3
  6
CONTINUOUS
 62
3
 10
5.02766434545675
 20
1.39790778815719
 30
0.0
 11
5.30014880050614
 21
1.39790778815719
 31
0.0
  0
ARC
  8
3
  6
CONTINUOUS
 62
3
 10
5.30014880050613
 20
1.27979755193671
 30
0.0
 40
0.118110236220479
 50
9.23172856121839
 51
89.9999999999983
  0
ARC
  8
3
  6
CONTINUOUS
 62
3
 10
5.66349111704825
 20
1.338852670015
 30
0.0
 40
0.249999999933624
 50
189.231728556272
 51
229.615864285952
  0
ARC
  8
3
  6
CONTINUOUS
 62
3
 10
5.23163211805689
 20
0.800117177150607
 30
0.0
 40
0.0797244094488146
 50
140.148729115401
 51
245.1487291154
  0
ARC
  8
3
  6
CONTINUOUS
 62
3
 10
5.66349111711031
 20
1.73255345744851
 30
0.0
 40
1.10731363276677
 50
245.148729115398
 51
294.851270884601
  0
ARC
  8
3
  6
CONTINUOUS
 62
3
 10
6.09535011616371
 20
0.800117177150608
 30
0.0
 40
0.0797244094488141
 50
294.851270884598
 51
114.851270884598
  0
ARC
  8
3
  6
CONTINUOUS
 62
3
 10
5.6634911171103
 20
1.73255345744853
 30
0.0
 40
0.947864813869161
 50
245.148729115399
 51
294.851270884601
  0
ARC
  8
3
  6
CONTINUOUS
 62
3
 10
5.23163211805431
 20
0.800117177162082
 30
0.0
 40
0.0797244094394848
 50
65.148729110256
 51
140.148729120546
  0
ARC
  8
3
  6
CONTINUOUS
 62
3
 10
4.83671946356521
 20
1.12231723697472
 30
0.0
 40
0.079724409447442
 50
164.999999998713
 51
270.000000001286
  0
LINE
  8
3
  6
CONTINUOUS
 62
3
 10
4.836719463567
 20
1.04259282752728
 30
0.0
 11
5.23042025096856
 21
1.04259282752728
 31
0.0
  0
ARC
  8
3
  6
CONTINUOUS
 62
3
 10
5.23042025096856
 20
1.1223172369761
 30
0.0
 40
0.0797244094488154
 50
270
 51
90
  0
LINE
  8
3
  6
CONTINUOUS
 62
3
 10
5.23042025096856
 20
1.20204164642491
 30
0.0
 11
4.836719463567
 21
1.20204164642491
 31
0.0
  0
ARC
  8
3
  6
CONTINUOUS
 62
3
 10
4.83671946355805
 20
1.12231723698776
 30
0.0
 40
0.0797244094371532
 50
89.9999999935687
 51
165.000000006431
  0
ARC
  8
3
  6
CONTINUOUS
 62
3
 10
2.70720038381152
 20
1.50912826060878
 30
0.0
 40
0.098425196825313
 50
128.81714009415
 51
167.634280205741
  0
ARC
  8
3
  6
CONTINUOUS
 62
3
 10
1.6880974163229
 20
1.73255345744859
 30
0.0
 40
0.944881889763787
 50
331.208696727921
 51
347.634280202601
  0
ARC
  8
3
  6
CONTINUOUS
 62
3
 10
2.60243066562481
 20
1.23007521294397
 30
0.0
 40
0.098425196850398
 50
151.208696727912
 51
264.709662540764
  0
LINE
  8
3
  6
CONTINUOUS
 62
3
 10
2.59335560027208
 20
1.1320692816751
 30
0.0
 11
4.50089445155214
 21
0.955436709400362
 31
0.0
  0
ARC
  8
3
  6
CONTINUOUS
 62
3
 10
4.50996951690484
 20
1.05344264066924
 30
0.0
 40
0.098425196850382
 50
264.709662540778
 51
30.4865262987964
  0
ARC
  8
3
  6
CONTINUOUS
 62
3
 10
5.66349111711033
 20
1.73255345744853
 30
0.0
 40
1.24015748031498
 50
189.60831081206
 51
210.486526298793
  0
ARC
  8
3
  6
CONTINUOUS
 62
3
 10
4.34368629630552
 20
1.50912826059813
 30
0.0
 40
0.0984251968504003
 50
9.60831081206417
 51
90.0000000000034
  0
LINE
  8
3
  6
CONTINUOUS
 62
3
 10
4.34368629630552
 20
1.60755345744853
 30
0.0
 11
2.70720038383488
 21
1.60755345744853
 31
0.0
  0
ARC
  8
3
  6
CONTINUOUS
 62
3
 10
2.70720038382517
 20
1.50912826063545
 30
0.0
 40
0.0984251968130819
 50
89.9999999943483
 51
128.817140110072
  0
ARC
  8
3
  6
CONTINUOUS
 62
3
 10
2.02028245572628
 20
2.30791482314286
 30
0.0
 40
0.0994094487855754
 50
329.999999994855
 51
5.14514514154735E-9
  0
ARC
  8
3
  6
CONTINUOUS
 62
3
 10
2.02028245569297
 20
2.30791482315178
 30
0.0
 40
0.0994094488188898
 50
359.999999999999
 51
180
  0
ARC
  8
3
  6
CONTINUOUS
 62
3
 10
2.02028245569177
 20
2.30791482314732
 30
0.0
 40
0.099409448817694
 50
179.999999997427
 51
330.000000002572
  0
ARC
  8
3
  6
CONTINUOUS
 62
3
 10
2.7072003838365
 20
1.95597865429113
 30
0.0
 40
0.098425196842607
 50
211.774289842051
 51
269.999999999055
  0
LINE
  8
3
  6
CONTINUOUS
 62
3
 10
2.70720038383488
 20
1.85755345744852
 30
0.0
 11
4.34368629630552
 21
1.85755345744852
 31
0.0
  0
ARC
  8
3
  6
CONTINUOUS
 62
3
 10
4.34368629630552
 20
1.95597865429892
 30
0.0
 40
0.0984251968504003
 50
269.999999999996
 51
350.391689187935
  0
ARC
  8
3
  6
CONTINUOUS
 62
3
 10
5.66349111711034
 20
1.73255345744851
 30
0.0
 40
1.240157480315
 50
149.513473701207
 51
170.391689187939
  0
ARC
  8
3
  6
CONTINUOUS
 62
3
 10
4.50996951690486
 20
2.41166427422781
 30
0.0
 40
0.0984251968503897
 50
329.51347370121
 51
95.2903374592299
  0
LINE
  8
3
  6
CONTINUOUS
 62
3
 10
4.50089445155214
 20
2.50967020549669
 30
0.0
 11
2.59335560027208
 21
2.33303763322198
 31
0.0
  0
ARC
  8
3
  6
CONTINUOUS
 62
3
 10
2.60243066562481
 20
2.23503170195309
 30
0.0
 40
0.0984251968503966
 50
95.290337459235
 51
208.791303272087
  0
ARC
  8
3
  6
CONTINUOUS
 62
3
 10
1.68809741632287
 20
1.73255345744848
 30
0.0
 40
0.944881889763804
 50
12.3657197973981
 51
28.7913032720782
  0
ARC
  8
3
  6
CONTINUOUS
 62
3
 10
2.70720038377287
 20
1.95597865429001
 30
0.0
 40
0.0984251967879249
 50
192.365719800062
 51
211.774289861002
  0
ARC
  8
3
  6
CONTINUOUS
 62
3
 10
2.35246749506821
 20
1.73255345743961
 30
0.0
 40
0.0994094488137511
 50
239.999999994854
 51
5.1447761972043E-9
  0
ARC
  8
3
  6
CONTINUOUS
 62
3
 10
2.35246749506305
 20
1.73255345744854
 30
0.0
 40
0.0994094488189048
 50
359.999999999999
 51
180
  0
ARC
  8
3
  6
CONTINUOUS
 62
3
 10
2.35246749505532
 20
1.73255345744408
 30
0.0
 40
0.0994094488111742
 50
179.999999997427
 51
240.000000002572
  0
ARC
  8
3
  6
CONTINUOUS
 62
3
 10
2.02028245565907
 20
1.15719209174973
 30
0.0
 40
0.0994094487849881
 50
164.999999997427
 51
180.000000002572
  0
ARC
  8
3
  6
CONTINUOUS
 62
3
 10
2.02028245569297
 20
1.15719209174527
 30
0.0
 40
0.0994094488188898
 50
179.999999999999
 51
359.999999999999
  0
ARC
  8
3
  6
CONTINUOUS
 62
3
 10
2.02028245569414
 20
1.1571920917542
 30
0.0
 40
0.0994094488177145
 50
359.999999994854
 51
165.000000005145
  0
ARC
  8
3
  6
CONTINUOUS
 62
3
 10
1.35591237694508
 20
1.15719209174974
 30
0.0
 40
0.0994094488111743
 50
119.999999997427
 51
180.000000002572
  0
ARC
  8
3
  6
CONTINUOUS
 62
3
 10
1.35591237695281
 20
1.15719209174527
 30
0.0
 40
0.099409448818905
 50
179.999999999999
 51
359.999999999999
  0
ARC
  8
3
  6
CONTINUOUS
 62
3
 10
1.35591237695797
 20
1.1571920917542
 30
0.0
 40
0.0994094488137512
 50
359.999999994855
 51
120.000000005145
  0
ARC
  8
3
  6
CONTINUOUS
 62
3
 10
1.02372733758155
 20
1.73255345745301
 30
0.0
 40
0.099409448817709
 50
29.9999999974273
 51
180.000000002572
  0
ARC
  8
3
  6
CONTINUOUS
 62
3
 10
1.02372733758274
 20
1.73255345744854
 30
0.0
 40
0.099409448818905
 50
179.999999999999
 51
359.999999999999
  0
ARC
  8
3
  6
CONTINUOUS
 62
3
 10
1.02372733761606
 20
1.73255345745747
 30
0.0
 40
0.0994094487855904
 50
359.999999994855
 51
30.0000000051449
  0
ARC
  8
3
  6
CONTINUOUS
 62
3
 10
1.68809741628769
 20
1.73255345746887
 30
0.0
 40
0.452755905476591
 50
119.999999997427
 51
180.000000002572
  0
ARC
  8
3
  6
CONTINUOUS
 62
3
 10
1.6880974163229
 20
1.73255345744854
 30
0.0
 40
0.4527559055118
 50
179.999999999999
 51
359.999999999999
  0
ARC
  8
3
  6
CONTINUOUS
 62
3
 10
1.68809741634637
 20
1.7325534574892
 30
0.0
 40
0.452755905488327
 50
359.999999994854
 51
120.000000005145
  0
ARC
  8
3
  6
CONTINUOUS
 62
3
 10
1.35591237695096
 20
2.30791482315625
 30
0.0
 40
0.0994094488170562
 50
44.9999999974273
 51
180.000000002572
  0
ARC
  8
3
  6
CONTINUOUS
 62
3
 10
1.35591237695281
 20
2.30791482315178
 30
0.0
 40
0.099409448818905
 50
179.999999999999
 51
359.999999999999
  0
ARC
  8
3
  6
CONTINUOUS
 62
3
 10
1.35591237697436
 20
2.30791482316071
 30
0.0
 40
0.0994094487973543
 50
359.999999994855
 51
45.0000000051448
  0
LINE
  8
3
  6
CONTINUOUS
 62
3
 10
1.86675893940378
 20
2.67743534721232
 30
0.0
 11
2.04542046248466
 21
2.67743534721232
 31
0.0
  0
ARC
  8
3
  6
CONTINUOUS
 62
3
 10
2.04542046248469
 20
3.46483692201545
 30
0.0
 40
0.787401574803133
 50
269.999999999998
 51
275.290337459223
  0
LINE
  8
3
  6
CONTINUOUS
 62
3
 10
2.11802098530636
 20
2.68078947186433
 30
0.0
 11
5.23439348058024
 21
2.96935653808006
 31
0.0
  0
ARC
  8
3
  6
CONTINUOUS
 62
3
 10
5.30699400340221
 20
2.18530908792893
 30
0.0
 40
0.787401574803167
 50
90.0000000000205
 51
95.2903374592455
  0
LINE
  8
3
  6
CONTINUOUS
 62
3
 10
5.30699400340194
 20
2.9727106627321
 30
0.0
 11
5.6634911171103
 21
2.97271093776349
 31
0.0
  0
ARC
  8
3
  6
CONTINUOUS
 62
3
 10
5.66349111711028
 20
1.73255345744853
 30
0.0
 40
1.24015748031497
 50
269.999999999999
 51
89.9999999999996
  0
LINE
  8
3
  6
CONTINUOUS
 62
3
 10
5.66349111711042
 20
0.492395977133562
 30
0.0
 11
5.30779604357985
 21
0.490931145112273
 31
0.0
  0
ARC
  8
3
  6
CONTINUOUS
 62
3
 10
5.30455337494145
 20
1.27832604292572
 30
0.0
 40
0.78740157480319
 50
264.709662540784
 51
270.235955525671
  0
LINE
  8
3
  6
CONTINUOUS
 62
3
 10
5.23195285211988
 20
0.494278592774531
 30
0.0
 11
2.09721070055046
 21
0.784546635953951
 31
0.0
  0
ARC
  8
3
  6
CONTINUOUS
 62
3
 10
2.0246101777288
 20
0.000499185802834273
 30
0.0
 40
0.787401574803129
 50
84.7096625407778
 51
90.0000000000029
  0
LINE
  8
3
  6
CONTINUOUS
 62
3
 10
2.02461017772876
 20
0.787900760605963
 30
0.0
 11
1.667287131567
 21
0.787900760605963
 31
0.0
  0
ARC
  8
3
  6
CONTINUOUS
 62
3
 10
1.68809741632279
 20
1.73255345744851
 30
0.0
 40
0.944881889763781
 50
89.9999999999928
 51
268.73800322027
  0
LINE
  8
3
  6
CONTINUOUS
 62
3
 10
1.6880974163229
 20
2.67743534721232
 30
0.0
 11
1.86675893940378
 21
2.67743534721232
 31
0.0
  0
LINE
  8
9
  6
CONTINUOUS
 62
9
 10
6.42012994686513
 20
1.1157743288713
 30
0.0
 11
6.56998718010241
 21
1.1223172369761
 31
0.0
  0
LINE
  8
9
  6
CONTINUOUS
 62
9
 10
6.56998718010241
 20
1.1223172369761
 30
0.0
 11
6.52003476902332
 21
1.12449820634436
 31
0.0
  0
LINE
  8
9
  6
CONTINUOUS
 62
9
 10
6.16599851824776
 20
2.33095793135516
 30
0.0
 11
6.01955411717977
 21
2.36342387344588
 31
0.0
  0
LINE
  8
9
  6
CONTINUOUS
 62
9
 10
6.01955411717977
 20
2.36342387344588
 30
0.0
 11
6.06723996471718
 21
2.34838858347067
 31
0.0
  0
LINE
  8
9
  6
CONTINUOUS
 62
9
 10
5.29252101624233
 20
2.70040110169609
 30
0.0
 11
5.15929004779327
 21
2.63148441978144
 31
0.0
  0
LINE
  8
9
  6
CONTINUOUS
 62
9
 10
5.15929004779327
 20
2.63148441978144
 30
0.0
 11
5.20553353745679
 21
2.6504986161552
 31
0.0
  0
LINE
  8
9
  6
CONTINUOUS
 62
9
 10
4.90685228735545
 20
2.34933258602577
 30
0.0
 11
4.75699505411817
 21
2.34278967792097
 31
0.0
  0
LINE
  8
9
  6
CONTINUOUS
 62
9
 10
4.75699505411817
 20
2.34278967792097
 30
0.0
 11
4.80694746519726
 21
2.3406087085527
 31
0.0
  0
LINE
  8
9
  6
CONTINUOUS
 62
9
 10
5.59362386626084
 20
1.26681135801152
 30
0.0
 11
5.50151386248342
 21
1.14842323696838
 31
0.0
  0
LINE
  8
9
  6
CONTINUOUS
 62
9
 10
5.50151386248342
 20
1.14842323696838
 30
0.0
 11
5.53553976315885
 21
1.18505980453722
 31
0.0
  0
LINE
  8
9
  6
CONTINUOUS
 62
9
 10
5.28966649290823
 20
0.760199337096
 30
0.0
 11
5.1704268584636
 21
0.851204334637406
 31
0.0
  0
LINE
  8
9
  6
CONTINUOUS
 62
9
 10
5.1704268584636
 20
0.851204334637406
 30
0.0
 11
5.20737828629083
 21
0.817520629652212
 31
0.0
  0
LINE
  8
9
  6
CONTINUOUS
 62
9
 10
4.90615599856273
 20
1.11048549041029
 30
0.0
 11
4.75971159749474
 21
1.142951432501
 31
0.0
  0
LINE
  8
9
  6
CONTINUOUS
 62
9
 10
4.75971159749474
 20
1.142951432501
 30
0.0
 11
4.80739744503215
 21
1.12791614252579
 31
0.0
  0
LINE
  8
9
  6
CONTINUOUS
 62
9
 10
2.74453779327871
 20
1.47315630110662
 30
0.0
 11
2.64550383627658
 21
1.58581630004369
 31
0.0
  0
LINE
  8
9
  6
CONTINUOUS
 62
9
 10
2.64550383627658
 20
1.58581630004369
 30
0.0
 11
2.67511654861367
 21
1.54552874280772
 31
0.0
  0
LINE
  8
9
  6
CONTINUOUS
 62
9
 10
2.0181963057237
 20
2.30411227387692
 30
0.0
 11
2.10637356374634
 21
2.25821009874234
 31
0.0
  0
LINE
  8
9
  6
CONTINUOUS
 62
9
 10
2.10637356374634
 20
2.25821009874234
 30
0.0
 11
2.06420399145569
 21
2.28507507915968
 31
0.0
  0
LINE
  8
9
  6
CONTINUOUS
 62
9
 10
2.7474789251815
 20
1.98862376298447
 30
0.0
 11
2.62352626310907
 21
1.90415046800222
 31
0.0
  0
LINE
  8
9
  6
CONTINUOUS
 62
9
 10
2.62352626310907
 20
1.90415046800222
 30
0.0
 11
2.66714070228821
 21
1.92860002208995
 31
0.0
  0
LINE
  8
9
  6
CONTINUOUS
 62
9
 10
2.34866494578819
 20
1.73463960741781
 30
0.0
 11
2.3027627706536
 21
1.64646234939516
 31
0.0
  0
LINE
  8
9
  6
CONTINUOUS
 62
9
 10
2.3027627706536
 20
1.64646234939516
 30
0.0
 11
2.32962775107094
 21
1.68863192168581
 31
0.0
  0
LINE
  8
9
  6
CONTINUOUS
 62
9
 10
2.02131334965352
 20
1.16140500763858
 30
0.0
 11
1.92426030170164
 21
1.18292115036275
 31
0.0
  0
LINE
  8
9
  6
CONTINUOUS
 62
9
 10
1.92426030170164
 20
1.18292115036275
 30
0.0
 11
1.97194614923905
 21
1.16788586038753
 31
0.0
  0
LINE
  8
9
  6
CONTINUOUS
 62
9
 10
1.35962031045973
 20
1.15944212103181
 30
0.0
 11
1.30620765254336
 21
1.24328319979865
 31
0.0
  0
LINE
  8
9
  6
CONTINUOUS
 62
9
 10
1.30620765254336
 20
1.24328319979865
 30
0.0
 11
1.32929508320511
 21
1.19893265813974
 31
0.0
  0
LINE
  8
9
  6
CONTINUOUS
 62
9
 10
1.02597736686928
 20
1.72884552394162
 30
0.0
 11
1.10981844563612
 21
1.78225818185799
 31
0.0
  0
LINE
  8
9
  6
CONTINUOUS
 62
9
 10
1.10981844563612
 20
1.78225818185799
 30
0.0
 11
1.06546790397721
 21
1.75917075119624
 31
0.0
  0
LINE
  8
9
  6
CONTINUOUS
 62
9
 10
1.54231440481902
 20
1.99814285646325
 30
0.0
 11
1.461719463567
 21
2.12465157333519
 31
0.0
  0
LINE
  8
9
  6
CONTINUOUS
 62
9
 10
1.461719463567
 20
2.12465157333519
 30
0.0
 11
1.48480689422875
 21
2.08030103167628
 31
0.0
  0
LINE
  8
9
  6
CONTINUOUS
 62
9
 10
1.35904542216015
 20
2.30491558484668
 30
0.0
 11
1.42620547232668
 21
2.37820791852565
 31
0.0
  0
LINE
  8
9
  6
CONTINUOUS
 62
9
 10
1.42620547232668
 20
2.37820791852565
 30
0.0
 11
1.38934160548617
 21
2.34442840814486
 31
0.0
  0
LINE
  8
9
  6
CONTINUOUS
 62
9
 10
1.86021603129898
 20
2.8272925804496
 30
0.0
 11
1.86675893940378
 21
2.67743534721232
 31
0.0
  0
LINE
  8
9
  6
CONTINUOUS
 62
9
 10
1.86675893940378
 20
2.67743534721232
 30
0.0
 11
1.86893990877204
 21
2.72738775829141
 31
0.0
  0
ENDSEC
  0
EOF
