  0
SECTION
  2
HEADER
  9
$ACADVER
  1
AC1003
  9
$EXTMIN
 10
0.351081817224869
 20
3.08668238989386
  9
$EXTMAX
 10
6.90525504549293
 20
0.506367429263932
  9
$INSUNITS
 70
1
  9
$INSBASE
 10
3.6281684313589
 20
1.7965249095789
999
Created with OMAX LAYOUT for Windows. (www.omax.com) 9/15/2020
  0
ENDSEC
  0
SECTION
  2
TABLES
  0
TABLE
  2
LAYER
 70
    10
  0
LAYER
  2
0
 70
     0
 62
     7
  6
CONTINUOUS
  0
LAYER
  2
1
 70
     0
 62
     7
  6
CONTINUOUS
  0
LAYER
  2
2
 70
     0
 62
     7
  6
CONTINUOUS
  0
LAYER
  2
3
 70
     0
 62
     7
  6
CONTINUOUS
  0
LAYER
  2
4
 70
     0
 62
     7
  6
CONTINUOUS
  0
LAYER
  2
5
 70
     0
 62
     7
  6
CONTINUOUS
  0
LAYER
  2
6
 70
     0
 62
     7
  6
CONTINUOUS
  0
LAYER
  2
7
 70
     0
 62
     7
  6
CONTINUOUS
  0
LAYER
  2
8
 70
     0
 62
     7
  6
CONTINUOUS
  0
LAYER
  2
9
 70
     0
 62
     7
  6
CONTINUOUS
  0
LAYER
  2
10
 70
     0
 62
     7
  6
CONTINUOUS
  0
LAYER
  2
11
 70
     0
 62
     7
  6
CONTINUOUS
  0
LAYER
  2
12
 70
     0
 62
     7
  6
CONTINUOUS
  0
LAYER
  2
13
 70
     0
 62
     7
  6
CONTINUOUS
  0
LAYER
  2
14
 70
     0
 62
     7
  6
CONTINUOUS
  0
LAYER
  2
15
 70
     0
 62
     7
  6
CONTINUOUS
  0
LAYER
  2
16
 70
     0
 62
     7
  6
CONTINUOUS
  0
LAYER
  2
17
 70
     0
 62
     7
  6
CONTINUOUS
  0
LAYER
  2
18
 70
     0
 62
     7
  6
CONTINUOUS
  0
LAYER
  2
19
 70
     0
 62
     7
  6
CONTINUOUS
  0
LAYER
  2
20
 70
     0
 62
     7
  6
CONTINUOUS
  0
LAYER
  2
21
 70
     0
 62
     7
  6
CONTINUOUS
  0
LAYER
  2
22
 70
     0
 62
     7
  6
CONTINUOUS
  0
LAYER
  2
23
 70
     0
 62
     7
  6
CONTINUOUS
  0
LAYER
  2
24
 70
     0
 62
     7
  6
CONTINUOUS
  0
LAYER
  2
25
 70
     0
 62
     7
  6
CONTINUOUS
  0
LAYER
  2
26
 70
     0
 62
     7
  6
CONTINUOUS
  0
LAYER
  2
27
 70
     0
 62
     7
  6
CONTINUOUS
  0
LAYER
  2
28
 70
     0
 62
     7
  6
CONTINUOUS
  0
LAYER
  2
29
 70
     0
 62
     7
  6
CONTINUOUS
  0
LAYER
  2
30
 70
     0
 62
     7
  6
CONTINUOUS
  0
LAYER
  2
31
 70
     0
 62
     7
  6
CONTINUOUS
  0
ENDTAB
  0
ENDSEC
  0
SECTION
  2
ENTITIES
  0
LINE
  8
0
  6
CONTINUOUS
 62
0
 10
0.351400134208025
 20
0.506367429263932
 30
0.0
 11
6.20963824759266
 21
1.75214170747916
 31
0.0
  0
LINE
  8
0
  6
CONTINUOUS
 62
0
 10
6.25963824759266
 20
1.68090811167863
 30
0.0
 11
5.71385897632893
 21
1.12471168569527
 31
0.0
  0
LINE
  8
0
  6
CONTINUOUS
 62
0
 10
5.61510042279835
 20
1.14214233781078
 30
0.0
 11
5.68358025401293
 21
1.79022338770165
 31
0.0
  0
LINE
  8
0
  6
CONTINUOUS
 62
0
 10
5.70101090612844
 20
1.88898194123223
 30
0.0
 11
5.71452172754853
 21
2.36330403816958
 31
0.0
  0
LINE
  8
0
  6
CONTINUOUS
 62
0
 10
5.61461690539113
 20
2.35458016068755
 30
0.0
 11
4.49404928660423
 21
2.36330403815613
 31
0.0
  0
LINE
  8
0
  6
CONTINUOUS
 62
0
 10
4.39414446444605
 20
2.35458016068306
 30
0.0
 11
4.35932328696276
 21
1.75214170747916
 31
0.0
  0
LINE
  8
0
  6
CONTINUOUS
 62
0
 10
4.40932328696276
 20
1.68090811167863
 30
0.0
 11
4.49422634154637
 21
1.14056561621956
 31
0.0
  0
LINE
  8
0
  6
CONTINUOUS
 62
0
 10
4.39408957241194
 20
1.13511520376359
 30
0.0
 11
2.58331074654592
 21
1.36044720390067
 31
0.0
  0
LINE
  8
0
  6
CONTINUOUS
 62
0
 10
2.57458686907285
 20
1.46035202605886
 30
0.0
 11
2.564576525054
 21
2.11607044053805
 31
0.0
  0
LINE
  8
0
  6
CONTINUOUS
 62
0
 10
2.48781037858309
 20
2.05154108067271
 30
0.0
 11
2.08218866759074
 21
1.74879721638311
 31
0.0
  0
LINE
  8
0
  6
CONTINUOUS
 62
0
 10
2.05133460213893
 20
1.78911786318178
 30
0.0
 11
1.74187987077711
 21
2.3217907227244
 31
0.0
  0
LINE
  8
0
  6
CONTINUOUS
 62
0
 10
1.74843995186906
 20
2.27144498557381
 30
0.0
 11
1.74757612023961
 21
1.17534097107511
 31
0.0
  0
LINE
  8
0
  6
CONTINUOUS
 62
0
 10
1.69779355588103
 20
1.18531213946467
 30
0.0
 11
1.08626801548434
 21
1.17125909643337
 31
0.0
  0
LINE
  8
0
  6
CONTINUOUS
 62
0
 10
1.07970793439239
 20
1.22160483358395
 30
0.0
 11
1.12318972207306
 21
1.8312408186243
 31
0.0
  0
LINE
  8
0
  6
CONTINUOUS
 62
0
 10
1.0244311685417
 20
1.84867147073536
 30
0.0
 11
0.753398048873737
 21
1.74417145450979
 31
0.0
  0
LINE
  8
0
  6
CONTINUOUS
 62
0
 10
0.775914133712811
 20
1.78967699083985
 30
0.0
 11
1.08399570868011
 21
2.32572647355971
 31
0.0
  0
LINE
  8
0
  6
CONTINUOUS
 62
0
 10
1.03711498078947
 20
2.34521814525848
 30
0.0
 11
0.562335363358014
 21
2.60999915326113
 31
0.0
  0
LINE
  8
0
  6
CONTINUOUS
 62
0
 10
0.63835277167565
 20
2.54458942033633
 30
0.0
 11
0.351400134208025
 21
3.08668238989386
 31
0.0
  0
LINE
  8
3
  6
CONTINUOUS
 62
3
 10
6.20963824759266
 20
1.68090811167863
 30
0.0
 11
6.20963824759266
 21
1.5496745158781
 31
0.0
  0
LINE
  8
3
  6
CONTINUOUS
 62
3
 10
6.20963824759266
 20
1.5496745158781
 30
0.0
 11
6.34087184339319
 21
1.5496745158781
 31
0.0
  0
LINE
  8
3
  6
CONTINUOUS
 62
3
 10
6.34087184339319
 20
1.5496745158781
 30
0.0
 11
6.34087184339319
 21
1.68090811167863
 31
0.0
  0
LINE
  8
3
  6
CONTINUOUS
 62
3
 10
6.34087184339319
 20
1.68090811167863
 30
0.0
 11
6.47210543919372
 21
1.68090811167863
 31
0.0
  0
LINE
  8
3
  6
CONTINUOUS
 62
3
 10
6.47210543919372
 20
1.68090811167863
 30
0.0
 11
6.47210543919372
 21
1.81214170747916
 31
0.0
  0
LINE
  8
3
  6
CONTINUOUS
 62
3
 10
6.47210543919372
 20
1.81214170747916
 30
0.0
 11
6.34087184339319
 21
1.81214170747916
 31
0.0
  0
LINE
  8
3
  6
CONTINUOUS
 62
3
 10
6.34087184339319
 20
1.81214170747916
 30
0.0
 11
6.34087184339319
 21
1.94337530327966
 31
0.0
  0
LINE
  8
3
  6
CONTINUOUS
 62
3
 10
6.34087184339319
 20
1.94337530327966
 30
0.0
 11
6.20963824759266
 21
1.94337530327966
 31
0.0
  0
LINE
  8
3
  6
CONTINUOUS
 62
3
 10
6.20963824759266
 20
1.94337530327966
 30
0.0
 11
6.20963824759266
 21
1.81214170747916
 31
0.0
  0
LINE
  8
3
  6
CONTINUOUS
 62
3
 10
6.20963824759266
 20
1.81214170747916
 30
0.0
 11
6.07840465179213
 21
1.81214170747916
 31
0.0
  0
LINE
  8
3
  6
CONTINUOUS
 62
3
 10
6.07840465179213
 20
1.81214170747916
 30
0.0
 11
6.07840465179213
 21
1.68090811167863
 31
0.0
  0
LINE
  8
3
  6
CONTINUOUS
 62
3
 10
6.07840465179213
 20
1.68090811167863
 30
0.0
 11
6.20963824759266
 21
1.68090811167863
 31
0.0
  0
ARC
  8
3
  6
CONTINUOUS
 62
3
 10
5.64537315572735
 20
1.13628868910506
 30
0.0
 40
0.0807086614159407
 50
164.999999998713
 51
270.000000001286
  0
LINE
  8
3
  6
CONTINUOUS
 62
3
 10
5.64537315572916
 20
1.05558002768912
 30
0.0
 11
6.27529441557168
 21
1.05558002768912
 31
0.0
  0
ARC
  8
3
  6
CONTINUOUS
 62
3
 10
6.27529441557168
 20
1.13628868910645
 30
0.0
 40
0.0807086614173311
 50
270
 51
90
  0
LINE
  8
3
  6
CONTINUOUS
 62
3
 10
6.27529441557168
 20
1.21699735052378
 30
0.0
 11
5.64537315572916
 21
1.21699735052378
 31
0.0
  0
ARC
  8
3
  6
CONTINUOUS
 62
3
 10
5.6453731557201
 20
1.13628868911826
 30
0.0
 40
0.0807086614055249
 50
89.9999999935688
 51
165.000000006431
  0
ARC
  8
3
  6
CONTINUOUS
 62
3
 10
5.66509756519121
 20
1.74652490967958
 30
0.0
 40
0.196850393600081
 50
74.9999999961411
 51
90.0000000038585
  0
LINE
  8
3
  6
CONTINUOUS
 62
3
 10
5.66509756517796
 20
1.94337530327966
 30
0.0
 11
5.03509756517796
 21
1.94337530327966
 31
0.0
  0
ARC
  8
3
  6
CONTINUOUS
 62
3
 10
5.03509756517796
 20
1.74652490957888
 30
0.0
 40
0.19685039370078
 50
90
 51
270
  0
LINE
  8
3
  6
CONTINUOUS
 62
3
 10
5.03509756517796
 20
1.5496745158781
 30
0.0
 11
5.66509756517796
 21
1.5496745158781
 31
0.0
  0
ARC
  8
3
  6
CONTINUOUS
 62
3
 10
5.66509756519122
 20
1.74652490957714
 30
0.0
 40
0.196850393699035
 50
269.999999996141
 51
75.0000000038585
  0
ARC
  8
3
  6
CONTINUOUS
 62
3
 10
5.64537315572372
 20
2.35676113004589
 30
0.0
 40
0.0807086614118785
 50
179.999999996141
 51
270.000000003858
  0
LINE
  8
3
  6
CONTINUOUS
 62
3
 10
5.64537315572916
 20
2.27605246863401
 30
0.0
 11
6.27529441557168
 21
2.27605246863401
 31
0.0
  0
ARC
  8
3
  6
CONTINUOUS
 62
3
 10
6.27529441557168
 20
2.35676113005133
 30
0.0
 40
0.0807086614173138
 50
270
 51
90
  0
LINE
  8
3
  6
CONTINUOUS
 62
3
 10
6.27529441557168
 20
2.43746979146864
 30
0.0
 11
5.64537315572916
 21
2.43746979146864
 31
0.0
  0
ARC
  8
3
  6
CONTINUOUS
 62
3
 10
5.64537315572372
 20
2.35676113005676
 30
0.0
 40
0.0807086614118785
 50
89.9999999961409
 51
180.000000003858
  0
ARC
  8
3
  6
CONTINUOUS
 62
3
 10
4.42490071477883
 20
2.35676113004589
 30
0.0
 40
0.0807086614118781
 50
179.999999996141
 51
270.000000003858
  0
LINE
  8
3
  6
CONTINUOUS
 62
3
 10
4.42490071478427
 20
2.27605246863401
 30
0.0
 11
5.05482197462679
 21
2.27605246863401
 31
0.0
  0
ARC
  8
3
  6
CONTINUOUS
 62
3
 10
5.05482197462679
 20
2.35676113005133
 30
0.0
 40
0.0807086614173138
 50
270
 51
90
  0
LINE
  8
3
  6
CONTINUOUS
 62
3
 10
5.05482197462679
 20
2.43746979146864
 30
0.0
 11
4.42490071478427
 21
2.43746979146864
 31
0.0
  0
ARC
  8
3
  6
CONTINUOUS
 62
3
 10
4.42490071477883
 20
2.35676113005676
 30
0.0
 40
0.0807086614118781
 50
89.9999999961413
 51
180.000000003859
  0
LINE
  8
3
  6
CONTINUOUS
 62
3
 10
4.35932328696276
 20
1.68090811167863
 30
0.0
 11
4.35932328696276
 21
1.5496745158781
 31
0.0
  0
LINE
  8
3
  6
CONTINUOUS
 62
3
 10
4.35932328696276
 20
1.5496745158781
 30
0.0
 11
4.49055688276326
 21
1.5496745158781
 31
0.0
  0
LINE
  8
3
  6
CONTINUOUS
 62
3
 10
4.49055688276326
 20
1.5496745158781
 30
0.0
 11
4.49055688276326
 21
1.68090811167863
 31
0.0
  0
LINE
  8
3
  6
CONTINUOUS
 62
3
 10
4.49055688276326
 20
1.68090811167863
 30
0.0
 11
4.62179047856379
 21
1.68090811167863
 31
0.0
  0
LINE
  8
3
  6
CONTINUOUS
 62
3
 10
4.62179047856379
 20
1.68090811167863
 30
0.0
 11
4.62179047856379
 21
1.81214170747916
 31
0.0
  0
LINE
  8
3
  6
CONTINUOUS
 62
3
 10
4.62179047856379
 20
1.81214170747916
 30
0.0
 11
4.49055688276326
 21
1.81214170747916
 31
0.0
  0
LINE
  8
3
  6
CONTINUOUS
 62
3
 10
4.49055688276326
 20
1.81214170747916
 30
0.0
 11
4.49055688276326
 21
1.94337530327966
 31
0.0
  0
LINE
  8
3
  6
CONTINUOUS
 62
3
 10
4.49055688276326
 20
1.94337530327966
 30
0.0
 11
4.35932328696276
 21
1.94337530327966
 31
0.0
  0
LINE
  8
3
  6
CONTINUOUS
 62
3
 10
4.35932328696276
 20
1.94337530327966
 30
0.0
 11
4.35932328696276
 21
1.81214170747916
 31
0.0
  0
LINE
  8
3
  6
CONTINUOUS
 62
3
 10
4.35932328696276
 20
1.81214170747916
 30
0.0
 11
4.22808969116223
 21
1.81214170747916
 31
0.0
  0
LINE
  8
3
  6
CONTINUOUS
 62
3
 10
4.22808969116223
 20
1.81214170747916
 30
0.0
 11
4.22808969116223
 21
1.68090811167863
 31
0.0
  0
LINE
  8
3
  6
CONTINUOUS
 62
3
 10
4.22808969116223
 20
1.68090811167863
 30
0.0
 11
4.35932328696276
 21
1.68090811167863
 31
0.0
  0
ARC
  8
3
  6
CONTINUOUS
 62
3
 10
4.42490071478666
 20
1.13628868910743
 30
0.0
 40
0.080708661418313
 50
178.124999999529
 51
269.9999999983
  0
LINE
  8
3
  6
CONTINUOUS
 62
3
 10
4.42490071478427
 20
1.05558002768912
 30
0.0
 11
5.05482197462679
 21
1.05558002768912
 31
0.0
  0
ARC
  8
3
  6
CONTINUOUS
 62
3
 10
5.05482197462679
 20
1.13628868910645
 30
0.0
 40
0.0807086614173311
 50
270
 51
90
  0
LINE
  8
3
  6
CONTINUOUS
 62
3
 10
5.05482197462679
 20
1.21699735052378
 30
0.0
 11
4.42490071478427
 21
1.21699735052378
 31
0.0
  0
ARC
  8
3
  6
CONTINUOUS
 62
3
 10
4.42490071477923
 20
1.13628868911308
 30
0.0
 40
0.080708661410699
 50
89.9999999964223
 51
178.125000003366
  0
LINE
  8
3
  6
CONTINUOUS
 62
3
 10
2.57676783844112
 20
1.51030443713795
 30
0.0
 11
2.52623511571542
 21
1.51030443713795
 31
0.0
  0
ARC
  8
3
  6
CONTINUOUS
 62
3
 10
2.52623511571542
 20
1.41187924028754
 30
0.0
 40
0.0984251968504124
 50
89.9999999999994
 51
163.253630416987
  0
ARC
  8
3
  6
CONTINUOUS
 62
3
 10
1.41407394313072
 20
1.74652490957875
 30
0.0
 40
1.0629921259842
 50
333.617398680368
 51
343.253630416994
  0
ARC
  8
3
  6
CONTINUOUS
 62
3
 10
2.45452586412145
 20
1.23043383439244
 30
0.0
 40
0.0984251968503821
 50
153.617398680358
 51
267.195577158558
  0
LINE
  8
3
  6
CONTINUOUS
 62
3
 10
2.44971022724769
 20
1.1321265151505
 30
0.0
 11
3.82556398429323
 21
1.06472957933315
 31
0.0
  0
ARC
  8
3
  6
CONTINUOUS
 62
3
 10
3.83037962116698
 20
1.16303689857512
 30
0.0
 40
0.0984251968504114
 50
267.195577158565
 51
25.8425676460286
  0
ARC
  8
3
  6
CONTINUOUS
 62
3
 10
5.03509756517792
 20
1.74652490957896
 30
0.0
 40
1.24015748031495
 50
194.477512185933
 51
205.842567646033
  0
ARC
  8
3
  6
CONTINUOUS
 62
3
 10
3.73902046113217
 20
1.41187924028757
 30
0.0
 40
0.0984251968503849
 50
14.477512185923
 51
89.9999999999912
  0
LINE
  8
3
  6
CONTINUOUS
 62
3
 10
3.73902046113219
 20
1.51030443713795
 30
0.0
 11
2.57676783844112
 21
1.51030443713795
 31
0.0
  0
ARC
  8
3
  6
CONTINUOUS
 62
3
 10
2.52623511571759
 20
2.0811705788627
 30
0.0
 40
0.0984251968428539
 50
215.059777181427
 51
269.999999998733
  0
LINE
  8
3
  6
CONTINUOUS
 62
3
 10
2.52623511571542
 20
1.98274538201984
 30
0.0
 11
3.73902046113219
 21
1.98274538201984
 31
0.0
  0
ARC
  8
3
  6
CONTINUOUS
 62
3
 10
3.73902046113219
 20
2.08117057887021
 30
0.0
 40
0.0984251968503703
 50
269.999999999997
 51
345.522487814065
  0
ARC
  8
3
  6
CONTINUOUS
 62
3
 10
5.03509756517808
 20
1.7465249095788
 30
0.0
 40
1.2401574803151
 50
154.157432353969
 51
165.522487814069
  0
ARC
  8
3
  6
CONTINUOUS
 62
3
 10
3.83037962116699
 20
2.33001292058266
 30
0.0
 40
0.0984251968503959
 50
334.157432353977
 51
92.8044228414403
  0
LINE
  8
3
  6
CONTINUOUS
 62
3
 10
3.82556398429323
 20
2.42832023982461
 30
0.0
 11
2.44971022724769
 21
2.36092330400729
 31
0.0
  0
ARC
  8
3
  6
CONTINUOUS
 62
3
 10
2.45452586412146
 20
2.26261598476534
 30
0.0
 40
0.0984251968503972
 50
92.8044228414467
 51
206.382601319646
  0
ARC
  8
3
  6
CONTINUOUS
 62
3
 10
1.4140739431307
 20
1.74652490957902
 30
0.0
 40
1.06299212598422
 50
16.7463695830054
 51
26.382601319632
  0
ARC
  8
3
  6
CONTINUOUS
 62
3
 10
2.52623511565121
 20
2.08117057885656
 30
0.0
 40
0.0984251967849877
 50
196.746369586163
 51
215.0597772007
  0
ARC
  8
3
  6
CONTINUOUS
 62
3
 10
2.07844402186247
 20
1.74652490958114
 30
0.0
 40
0.100393700781232
 50
119.999999996485
 51
210.000000003514
  0
ARC
  8
3
  6
CONTINUOUS
 62
3
 10
2.07844402187329
 20
1.74652490956987
 30
0.0
 40
0.100393700784974
 50
209.999999994854
 51
5.14475075276685E-9
  0
ARC
  8
3
  6
CONTINUOUS
 62
3
 10
2.07844402187608
 20
1.7465249095879
 30
0.0
 40
0.100393700782185
 50
359.999999994855
 51
120.000000005145
  0
ARC
  8
3
  6
CONTINUOUS
 62
3
 10
1.74625898250756
 20
2.32188627527536
 30
0.0
 40
0.100393700780644
 50
269.999999996141
 51
3.85850899514555E-9
  0
ARC
  8
3
  6
CONTINUOUS
 62
3
 10
1.74625898250079
 20
2.32188627528212
 30
0.0
 40
0.100393700787405
 50
359.999999999999
 51
180
  0
ARC
  8
3
  6
CONTINUOUS
 62
3
 10
1.74625898249403
 20
2.32188627527536
 30
0.0
 40
0.100393700780644
 50
179.999999996141
 51
270.000000003858
  0
ARC
  8
3
  6
CONTINUOUS
 62
3
 10
1.74625898248986
 20
1.17116354387064
 30
0.0
 40
0.100393700776472
 50
161.249999994903
 51
179.999999997143
  0
ARC
  8
3
  6
CONTINUOUS
 62
3
 10
1.74625898250079
 20
1.17116354387564
 30
0.0
 40
0.100393700787405
 50
179.999999999999
 51
359.999999999999
  0
ARC
  8
3
  6
CONTINUOUS
 62
3
 10
1.74625898250352
 20
1.17116354388535
 30
0.0
 40
0.100393700784678
 50
359.99999999446
 51
161.25000000536
  0
ARC
  8
3
  6
CONTINUOUS
 62
3
 10
1.08188890375389
 20
1.1711635438824
 30
0.0
 40
0.100393700780644
 50
89.9999999961411
 51
180.000000003859
  0
ARC
  8
3
  6
CONTINUOUS
 62
3
 10
1.08188890376065
 20
1.17116354387564
 30
0.0
 40
0.100393700787405
 50
179.999999999999
 51
359.999999999999
  0
ARC
  8
3
  6
CONTINUOUS
 62
3
 10
1.08188890376741
 20
1.1711635438824
 30
0.0
 40
0.100393700780644
 50
359.999999996141
 51
90.0000000038585
  0
ARC
  8
3
  6
CONTINUOUS
 62
3
 10
1.41407394306109
 20
1.74652490954505
 30
0.0
 40
0.452755905442178
 50
164.999999993147
 51
179.999999995719
  0
ARC
  8
3
  6
CONTINUOUS
 62
3
 10
1.41407394313072
 20
1.74652490957888
 30
0.0
 40
0.452755905511815
 50
179.999999999999
 51
359.999999999999
  0
ARC
  8
3
  6
CONTINUOUS
 62
3
 10
1.41407394314275
 20
1.74652490962723
 30
0.0
 40
0.45275590549979
 50
359.999999993882
 51
165.000000005865
  0
ARC
  8
3
  6
CONTINUOUS
 62
3
 10
0.74970386438879
 20
1.74652490958537
 30
0.0
 40
0.100393700785613
 50
56.2499999973152
 51
180.000000003702
  0
ARC
  8
3
  6
CONTINUOUS
 62
3
 10
0.749703864390568
 20
1.74652490957888
 30
0.0
 40
0.10039370078739
 50
179.999999999999
 51
359.999999999999
  0
ARC
  8
3
  6
CONTINUOUS
 62
3
 10
0.749703864446261
 20
1.74652490961181
 30
0.0
 40
0.100393700731698
 50
359.999999981206
 51
56.2500000162021
  0
ARC
  8
3
  6
CONTINUOUS
 62
3
 10
1.08188890374383
 20
2.32188627528212
 30
0.0
 40
0.100393700772837
 50
149.9999999952
 51
210.0000000048
  0
ARC
  8
3
  6
CONTINUOUS
 62
3
 10
1.08188890376307
 20
2.32188627527311
 30
0.0
 40
0.10039370078499
 50
209.999999994855
 51
5.14473803054813E-9
  0
ARC
  8
3
  6
CONTINUOUS
 62
3
 10
1.08188890376307
 20
2.32188627529114
 30
0.0
 40
0.10039370078499
 50
359.999999994855
 51
150.000000005145
  0
ARC
  8
3
  6
CONTINUOUS
 62
3
 10
1.41407394314132
 20
1.74652490960379
 30
0.0
 40
1.06299212595935
 50
90.0000000005704
 51
134.298894291467
  0
LINE
  8
3
  6
CONTINUOUS
 62
3
 10
1.41407394313074
 20
2.80951703556314
 30
0.0
 11
4.97397814139082
 21
2.98517538167222
 31
0.0
  0
ARC
  8
3
  6
CONTINUOUS
 62
3
 10
5.03509756517854
 20
1.74652490957858
 30
0.0
 40
1.24015748031528
 50
90.0000000000271
 51
92.8248865505617
  0
LINE
  8
3
  6
CONTINUOUS
 62
3
 10
5.03509756517796
 20
2.98668238989386
 30
0.0
 11
5.66509756517796
 21
2.98668238989386
 31
0.0
  0
ARC
  8
3
  6
CONTINUOUS
 62
3
 10
5.66509756517796
 20
1.7465249095789
 30
0.0
 40
1.24015748031497
 50
270
 51
90.0000000000004
  0
LINE
  8
3
  6
CONTINUOUS
 62
3
 10
5.66509756517796
 20
0.506367429263932
 30
0.0
 11
5.03509756517796
 21
0.506367429263932
 31
0.0
  0
ARC
  8
3
  6
CONTINUOUS
 62
3
 10
5.03509756517806
 20
1.74652490957955
 30
0.0
 40
1.24015748031562
 50
267.19557715856
 51
269.999999999995
  0
LINE
  8
3
  6
CONTINUOUS
 62
3
 10
4.97442054056865
 20
0.507852687130313
 30
0.0
 11
1.36206506489418
 21
0.684805861765821
 31
0.0
  0
ARC
  8
3
  6
CONTINUOUS
 62
3
 10
1.41407394325289
 20
1.74652490961672
 30
0.0
 40
1.06299212602801
 50
134.298894296257
 51
267.195577152086
  0
LINE
  8
9
  6
CONTINUOUS
 62
9
 10
6.20963824759266
 20
1.75214170747916
 30
0.0
 11
6.20963824759266
 21
1.68090811167863
 31
0.0
  0
LINE
  8
9
  6
CONTINUOUS
 62
9
 10
6.20963824759266
 20
1.68090811167863
 30
0.0
 11
6.25963824759266
 21
1.68090811167863
 31
0.0
  0
LINE
  8
9
  6
CONTINUOUS
 62
9
 10
5.71385897632893
 20
1.12471168569527
 30
0.0
 11
5.56741457526094
 21
1.15717762778599
 31
0.0
  0
LINE
  8
9
  6
CONTINUOUS
 62
9
 10
5.56741457526094
 20
1.15717762778599
 30
0.0
 11
5.61510042279835
 21
1.14214233781078
 31
0.0
  0
LINE
  8
9
  6
CONTINUOUS
 62
9
 10
5.68358025401293
 20
1.79022338770165
 30
0.0
 11
5.71604619610365
 21
1.93666778876964
 31
0.0
  0
LINE
  8
9
  6
CONTINUOUS
 62
9
 10
5.71604619610365
 20
1.93666778876964
 30
0.0
 11
5.70101090612844
 21
1.88898194123223
 31
0.0
  0
LINE
  8
9
  6
CONTINUOUS
 62
9
 10
5.71452172754853
 20
2.36330403816958
 30
0.0
 11
5.56466449431184
 21
2.35676113005133
 31
0.0
  0
LINE
  8
9
  6
CONTINUOUS
 62
9
 10
5.56466449431184
 20
2.35676113005133
 30
0.0
 11
5.61461690539113
 21
2.35458016068755
 31
0.0
  0
LINE
  8
9
  6
CONTINUOUS
 62
9
 10
4.49404928660423
 20
2.36330403815613
 30
0.0
 11
4.34419205336695
 21
2.35676113005133
 31
0.0
  0
LINE
  8
9
  6
CONTINUOUS
 62
9
 10
4.34419205336695
 20
2.35676113005133
 30
0.0
 11
4.39414446444605
 21
2.35458016068306
 31
0.0
  0
LINE
  8
9
  6
CONTINUOUS
 62
9
 10
4.35932328696276
 20
1.75214170747916
 30
0.0
 11
4.35932328696276
 21
1.68090811167863
 31
0.0
  0
LINE
  8
9
  6
CONTINUOUS
 62
9
 10
4.35932328696276
 20
1.68090811167863
 30
0.0
 11
4.40932328696276
 21
1.68090811167863
 31
0.0
  0
LINE
  8
9
  6
CONTINUOUS
 62
9
 10
4.49422634154637
 20
1.14056561621956
 30
0.0
 11
4.34423526579646
 21
1.13892940248548
 31
0.0
  0
LINE
  8
9
  6
CONTINUOUS
 62
9
 10
4.34423526579646
 20
1.13892940248548
 30
0.0
 11
4.39408957241194
 21
1.13511520376359
 31
0.0
  0
LINE
  8
9
  6
CONTINUOUS
 62
9
 10
2.58331074654592
 20
1.36044720390067
 30
0.0
 11
2.57676783844112
 21
1.51030443713795
 31
0.0
  0
LINE
  8
9
  6
CONTINUOUS
 62
9
 10
2.57676783844112
 20
1.51030443713795
 30
0.0
 11
2.57458686907285
 21
1.46035202605886
 31
0.0
  0
LINE
  8
9
  6
CONTINUOUS
 62
9
 10
2.564576525054
 20
2.11607044053805
 30
0.0
 11
2.44566885771894
 21
2.02463211898228
 31
0.0
  0
LINE
  8
9
  6
CONTINUOUS
 62
9
 10
2.44566885771894
 20
2.02463211898228
 30
0.0
 11
2.48781037858309
 21
2.05154108067271
 31
0.0
  0
LINE
  8
9
  6
CONTINUOUS
 62
9
 10
2.08218866759074
 20
1.74879721638311
 30
0.0
 11
2.02824717147718
 21
1.8334684048407
 31
0.0
  0
LINE
  8
9
  6
CONTINUOUS
 62
9
 10
2.02824717147718
 20
1.8334684048407
 30
0.0
 11
2.05133460213893
 21
1.78911786318178
 31
0.0
  0
LINE
  8
9
  6
CONTINUOUS
 62
9
 10
1.74187987077711
 20
2.3217907227244
 30
0.0
 11
1.74625898250079
 21
2.22149257449472
 31
0.0
  0
LINE
  8
9
  6
CONTINUOUS
 62
9
 10
1.74625898250079
 20
2.22149257449472
 30
0.0
 11
1.74843995186906
 21
2.27144498557381
 31
0.0
  0
LINE
  8
9
  6
CONTINUOUS
 62
9
 10
1.74757612023961
 20
1.17534097107511
 30
0.0
 11
1.65119316241597
 21
1.20343404137649
 31
0.0
  0
LINE
  8
9
  6
CONTINUOUS
 62
9
 10
1.65119316241597
 20
1.20343404137649
 30
0.0
 11
1.69779355588103
 21
1.18531213946467
 31
0.0
  0
LINE
  8
9
  6
CONTINUOUS
 62
9
 10
1.08626801548434
 20
1.17125909643337
 30
0.0
 11
1.08188890376065
 21
1.27155724466305
 31
0.0
  0
LINE
  8
9
  6
CONTINUOUS
 62
9
 10
1.08188890376065
 20
1.27155724466305
 30
0.0
 11
1.07970793439239
 21
1.22160483358395
 31
0.0
  0
LINE
  8
9
  6
CONTINUOUS
 62
9
 10
1.12318972207306
 20
1.8312408186243
 30
0.0
 11
0.976745321003612
 21
1.86370676070844
 31
0.0
  0
LINE
  8
9
  6
CONTINUOUS
 62
9
 10
0.976745321003612
 20
1.86370676070844
 30
0.0
 11
1.0244311685417
 21
1.84867147073536
 31
0.0
  0
LINE
  8
9
  6
CONTINUOUS
 62
9
 10
0.753398048873737
 20
1.74417145450979
 30
0.0
 11
0.805479616131865
 21
1.82999922105259
 31
0.0
  0
LINE
  8
9
  6
CONTINUOUS
 62
9
 10
0.805479616131865
 20
1.82999922105259
 30
0.0
 11
0.775914133712811
 21
1.78967699083985
 31
0.0
  0
LINE
  8
9
  6
CONTINUOUS
 62
9
 10
1.08399570868011
 20
2.32572647355971
 30
0.0
 11
0.994945408498827
 21
2.37208312567583
 31
0.0
  0
LINE
  8
9
  6
CONTINUOUS
 62
9
 10
0.994945408498827
 20
2.37208312567583
 30
0.0
 11
1.03711498078947
 21
2.34521814525848
 31
0.0
  0
LINE
  8
9
  6
CONTINUOUS
 62
9
 10
0.562335363358014
 20
2.60999915326113
 30
0.0
 11
0.671678675860595
 21
2.50731497721164
 31
0.0
  0
LINE
  8
9
  6
CONTINUOUS
 62
9
 10
0.671678675860595
 20
2.50731497721164
 30
0.0
 11
0.63835277167565
 21
2.54458942033633
 31
0.0
  0
ENDSEC
  0
EOF
