<?xml version="1.0" encoding="UTF-8" standalone="no"?>
<svg
   xmlns:dc="http://purl.org/dc/elements/1.1/"
   xmlns:cc="http://creativecommons.org/ns#"
   xmlns:rdf="http://www.w3.org/1999/02/22-rdf-syntax-ns#"
   xmlns:svg="http://www.w3.org/2000/svg"
   xmlns="http://www.w3.org/2000/svg"
   xmlns:sodipodi="http://sodipodi.sourceforge.net/DTD/sodipodi-0.dtd"
   xmlns:inkscape="http://www.inkscape.org/namespaces/inkscape"
   sodipodi:docname="Motor Mount.svg"
   inkscape:version="1.0 (4035a4fb49, 2020-05-01)"
   id="svg8"
   version="1.1"
   viewBox="0 0 210 297"
   height="297mm"
   width="210mm">
  <defs
     id="defs2" />
  <sodipodi:namedview
     inkscape:window-maximized="1"
     inkscape:window-y="-6"
     inkscape:window-x="-6"
     inkscape:window-height="1018"
     inkscape:window-width="1920"
     showgrid="false"
     inkscape:document-rotation="0"
     inkscape:current-layer="layer1"
     inkscape:document-units="mm"
     inkscape:cy="264.15775"
     inkscape:cx="299.24291"
     inkscape:zoom="1.0431611"
     inkscape:pageshadow="2"
     inkscape:pageopacity="0.0"
     borderopacity="1.0"
     bordercolor="#666666"
     pagecolor="#ffffff"
     id="base" />
  <metadata
     id="metadata5">
    <rdf:RDF>
      <cc:Work
         rdf:about="">
        <dc:format>image/svg+xml</dc:format>
        <dc:type
           rdf:resource="http://purl.org/dc/dcmitype/StillImage" />
        <dc:title></dc:title>
      </cc:Work>
    </rdf:RDF>
  </metadata>
  <g
     id="layer1"
     inkscape:groupmode="layer"
     inkscape:label="Layer 1">
    <g
       transform="rotate(-5,-206.24474,592.05743)"
       id="g1194">
      <circle
         style="opacity:0.996458;fill:none;stroke:#000000;stroke-width:0;stroke-miterlimit:4;stroke-dasharray:none"
         id="path833"
         cx="80.581764"
         cy="53.787994"
         r="11.55" />
      <path
         d="m 83.081764,70.712997 a 2.5,2.5 0 0 1 -2.5,2.5 2.5,2.5 0 0 1 -2.5,-2.5 2.5,2.5 0 0 1 2.5,-2.5 2.5,2.5 0 0 1 2.5,2.5"
         style="opacity:0.996458;fill:none;stroke:#000000;stroke-width:0;stroke-miterlimit:4;stroke-dasharray:none"
         id="circle845" />
      <path
         d="m 83.081764,36.862999 a 2.5,2.5 0 0 1 -2.5,2.5 2.5,2.5 0 0 1 -2.5,-2.5 2.5,2.5 0 0 1 2.5,-2.5 2.5,2.5 0 0 1 2.5,2.5"
         style="opacity:0.996458;fill:none;stroke:#000000;stroke-width:0;stroke-miterlimit:4;stroke-dasharray:none"
         id="circle847" />
      <g
         id="g857"
         transform="rotate(-120,80.581764,53.787998)"
         style="stroke-width:0;stroke-miterlimit:4;stroke-dasharray:none">
        <circle
           r="2.5"
           cy="70.712997"
           cx="80.581764"
           id="circle853"
           style="opacity:0.996458;fill:none;stroke:#000000;stroke-width:0;stroke-miterlimit:4;stroke-dasharray:none" />
        <circle
           r="2.5"
           cy="36.862999"
           cx="80.581764"
           id="circle855"
           style="opacity:0.996458;fill:none;stroke:#000000;stroke-width:0;stroke-miterlimit:4;stroke-dasharray:none" />
      </g>
      <g
         id="g863"
         transform="rotate(120,80.581764,53.787998)"
         style="stroke-width:0;stroke-miterlimit:4;stroke-dasharray:none">
        <circle
           style="opacity:0.996458;fill:none;stroke:#000000;stroke-width:0;stroke-miterlimit:4;stroke-dasharray:none"
           id="circle859"
           cx="80.581764"
           cy="70.712997"
           r="2.5" />
        <circle
           style="opacity:0.996458;fill:none;stroke:#000000;stroke-width:0;stroke-miterlimit:4;stroke-dasharray:none"
           id="circle861"
           cx="80.581764"
           cy="36.862999"
           r="2.5" />
      </g>
      <g
         id="g893"
         transform="translate(0,56.730953)"
         style="stroke-width:0;stroke-miterlimit:4;stroke-dasharray:none">
        <g
           style="stroke-width:0;stroke-miterlimit:4;stroke-dasharray:none"
           transform="translate(10.981621,-20.500001)"
           id="g879">
          <rect
             style="opacity:0.996458;fill:none;stroke:#000000;stroke-width:0;stroke-miterlimit:4;stroke-dasharray:none"
             id="rect873"
             width="4.5"
             height="20.5"
             x="51.850288"
             y="91.807083"
             rx="2.25"
             ry="2.25" />
          <rect
             ry="2.25"
             rx="2.25"
             y="91.807083"
             x="82.849998"
             height="20.5"
             width="4.5"
             id="rect875"
             style="opacity:0.996458;fill:none;stroke:#000000;stroke-width:0;stroke-miterlimit:4;stroke-dasharray:none" />
        </g>
        <g
           style="stroke-width:0;stroke-miterlimit:4;stroke-dasharray:none"
           id="g885"
           transform="translate(10.981621,10.499917)">
          <rect
             ry="2.25"
             rx="2.25"
             y="91.807083"
             x="51.850288"
             height="20.5"
             width="4.5"
             id="rect881"
             style="opacity:0.996458;fill:none;stroke:#000000;stroke-width:0;stroke-miterlimit:4;stroke-dasharray:none" />
          <rect
             style="opacity:0.996458;fill:none;stroke:#000000;stroke-width:0;stroke-miterlimit:4;stroke-dasharray:none"
             id="rect883"
             width="4.5"
             height="20.5"
             x="82.849998"
             y="91.807083"
             rx="2.25"
             ry="2.25" />
        </g>
      </g>
      <g
         id="g1120"
         transform="translate(0.2837255,-4.2333335)">
        <g
           transform="translate(5.8208336)"
           id="g1105">
          <circle
             style="opacity:0.996458;fill:none;stroke:#000000;stroke-width:0;stroke-miterlimit:4;stroke-dasharray:none"
             id="path991"
             cx="68.391785"
             cy="87.263504"
             r="5" />
          <circle
             style="opacity:0.996458;fill:none;stroke:#000000;stroke-width:0;stroke-miterlimit:4;stroke-dasharray:none"
             id="circle997"
             cx="67.33345"
             cy="99.698921"
             r="5" />
          <circle
             r="5"
             cy="112.13433"
             cx="66.275116"
             id="circle999"
             style="opacity:0.996458;fill:none;stroke:#000000;stroke-width:0;stroke-miterlimit:4;stroke-dasharray:none" />
        </g>
        <g
           transform="translate(-6.3500003)"
           id="g1110">
          <circle
             r="5"
             cy="87.263504"
             cx="92.733482"
             id="circle993"
             style="opacity:0.996458;fill:none;stroke:#000000;stroke-width:0;stroke-miterlimit:4;stroke-dasharray:none" />
          <circle
             r="5"
             cy="112.13433"
             cx="94.850128"
             id="circle1003"
             style="opacity:0.996458;fill:none;stroke:#000000;stroke-width:0;stroke-miterlimit:4;stroke-dasharray:none" />
          <circle
             style="opacity:0.996458;fill:none;stroke:#000000;stroke-width:0;stroke-miterlimit:4;stroke-dasharray:none"
             id="circle1005"
             cx="93.791817"
             cy="99.698921"
             r="5" />
        </g>
      </g>
      <path
         id="path1015"
         style="opacity:0.996458;fill:none;stroke:#000000;stroke-width:0;stroke-miterlimit:4;stroke-dasharray:none"
         d="m 86.581902,181.59395 c -10e-7,2.14359 -1.143595,4.12435 -3.000001,5.19615 -1.856406,1.0718 -4.143594,1.0718 -6,0 -1.856405,-1.0718 -2.999998,-3.05256 -2.999999,-5.19615 m 15.891761,12.3935 c 14.386497,-2.79955 21.358267,-15.42721 21.358267,-30.63256 0,-0.87875 -0.0363,-1.74892 -0.10542,-2.6107 L 103.0149,52.038167 C 102.12202,40.429468 92.419254,31.288013 80.581645,31.288013 c -11.86315,0 -21.581743,9.181222 -22.438424,20.8256 L 49.427989,160.88475 c -0.06404,0.81882 -0.09612,1.64065 -0.09612,2.47014 0,15.20502 6.755765,27.83264 21.141792,30.63256 z m -3.891761,-12.3935 -6.53e-4,-43.80598 c 2.9e-5,-0.41421 -0.04154,-0.81864 -0.121441,-1.20923 -0.0799,-0.39059 -0.198057,-0.76711 -0.349848,-1.12603 -0.151792,-0.35891 -0.337302,-0.70037 -0.55294,-1.01957 -0.215635,-0.3192 -0.46133,-0.61636 -0.732771,-0.88781 -0.271439,-0.27144 -0.568603,-0.51712 -0.887802,-0.73277 -0.319196,-0.21565 -0.660146,-0.40113 -1.019058,-0.55293 -0.358913,-0.15181 -0.73596,-0.26995 -1.126546,-0.34985 -0.390586,-0.08 -0.795014,-0.12196 -1.209227,-0.12196 -0.414214,0 -0.818645,0.0421 -1.209231,0.12196 -0.390586,0.0799 -0.767112,0.19804 -1.126027,0.34985 -0.358918,0.1518 -0.699855,0.33728 -1.019061,0.55293 -0.319207,0.21565 -0.616863,0.46133 -0.888318,0.73277 -0.271454,0.27145 -0.517112,0.56861 -0.732771,0.88781 -0.215659,0.3192 -0.401114,0.66066 -0.552937,1.01957 -0.151826,0.35892 -0.2699,0.73544 -0.34985,1.12603 -0.07995,0.39059 -0.121928,0.79502 -0.121957,1.20923 l 4.38e-4,43.80598"
         sodipodi:nodetypes="cssccsccsccsccccsssssscscsssssscc" />
      <path
         id="path1054"
         style="opacity:0.996458;fill:none;stroke:#000000;stroke-width:0;stroke-miterlimit:4;stroke-dasharray:none"
         d="m 102.9784,120.85035 a 2.0602297,2.0395201 45.032594 0 1 -2.21419,-1.89352 2.0602297,2.0395201 45.032594 0 1 1.87123,-2.19518 2.0602297,2.0395201 45.032594 0 1 2.21418,1.89352 2.0602297,2.0395201 45.032594 0 1 -1.87122,2.19518" />
      <path
         d="m 58.528357,121.40032 a 2.0602297,2.0395201 45.032594 0 1 -2.214178,-1.89352 2.0602297,2.0395201 45.032594 0 1 1.871221,-2.19518 2.0602297,2.0395201 45.032594 0 1 2.214168,1.89352 2.0602297,2.0395201 45.032594 0 1 -1.871211,2.19518"
         style="opacity:0.996458;fill:none;stroke:#000000;stroke-width:0;stroke-miterlimit:4;stroke-dasharray:none"
         id="path1066" />
      <path
         id="path1124"
         style="opacity:0.996458;fill:none;stroke:#000000;stroke-width:0;stroke-miterlimit:4;stroke-dasharray:none"
         d="m 68.528478,121.40032 a 2.0602297,2.0395201 45.032594 0 1 -2.214178,-1.89352 2.0602297,2.0395201 45.032594 0 1 1.871221,-2.19518 2.0602297,2.0395201 45.032594 0 1 2.214168,1.89352 2.0602297,2.0395201 45.032594 0 1 -1.871211,2.19518" />
      <path
         d="m 92.97849,120.85035 a 2.0602297,2.0395201 45.032594 0 1 -2.21419,-1.89352 2.0602297,2.0395201 45.032594 0 1 1.87123,-2.19518 2.0602297,2.0395201 45.032594 0 1 2.21418,1.89352 2.0602297,2.0395201 45.032594 0 1 -1.87122,2.19518"
         style="opacity:0.996458;fill:none;stroke:#000000;stroke-width:0;stroke-miterlimit:4;stroke-dasharray:none"
         id="path1126" />
      <g
         id="g1150"
         transform="translate(0.67492697,0.52933986)">
        <path
           id="path1138"
           style="opacity:0.996458;fill:none;stroke:#000000;stroke-width:0;stroke-miterlimit:4;stroke-dasharray:none"
           d="m 87.578488,192.27901 a 2.0602297,2.0395201 45.032594 0 1 -2.21419,-1.89352 2.0602297,2.0395201 45.032594 0 1 1.87123,-2.19518 2.0602297,2.0395201 45.032594 0 1 2.21418,1.89352 2.0602297,2.0395201 45.032594 0 1 -1.87122,2.19518" />
        <path
           d="m 72.578427,192.27901 a 2.0602297,2.0395201 45.032594 0 1 -2.21419,-1.89352 2.0602297,2.0395201 45.032594 0 1 1.87123,-2.19518 2.0602297,2.0395201 45.032594 0 1 2.21418,1.89352 2.0602297,2.0395201 45.032594 0 1 -1.87122,2.19518"
           style="opacity:0.996458;fill:none;stroke:#000000;stroke-width:0;stroke-miterlimit:4;stroke-dasharray:none"
           id="path1140" />
      </g>
      <path
         id="rect1154"
         style="opacity:0.996458;fill:none;stroke:#000000;stroke-width:0;stroke-miterlimit:4;stroke-dasharray:none"
         d="m 79.832139,121.42686 v 2.99982 h -3.000204 v 1.49992 h 3.000204 v 3.00022 h 1.499908 v -3.00022 h 2.999817 v -1.49992 h -2.999817 v -2.99982 z" />
    </g>
    <g
       id="g1264"
       transform="rotate(175,87.69162,101.73671)">
      <circle
         r="11.55"
         cy="53.787994"
         cx="80.581764"
         id="circle1196"
         style="opacity:0.996458;fill:none;stroke:#000000;stroke-width:0;stroke-miterlimit:4;stroke-dasharray:none" />
      <path
         id="path1198"
         style="opacity:0.996458;fill:none;stroke:#000000;stroke-width:0;stroke-miterlimit:4;stroke-dasharray:none"
         d="m 83.081764,70.712997 a 2.5,2.5 0 0 1 -2.5,2.5 2.5,2.5 0 0 1 -2.5,-2.5 2.5,2.5 0 0 1 2.5,-2.5 2.5,2.5 0 0 1 2.5,2.5" />
      <path
         id="path1200"
         style="opacity:0.996458;fill:none;stroke:#000000;stroke-width:0;stroke-miterlimit:4;stroke-dasharray:none"
         d="m 83.081764,36.862999 a 2.5,2.5 0 0 1 -2.5,2.5 2.5,2.5 0 0 1 -2.5,-2.5 2.5,2.5 0 0 1 2.5,-2.5 2.5,2.5 0 0 1 2.5,2.5" />
      <g
         style="stroke-width:0;stroke-miterlimit:4;stroke-dasharray:none"
         transform="rotate(-120,80.581764,53.787998)"
         id="g1206">
        <circle
           style="opacity:0.996458;fill:none;stroke:#000000;stroke-width:0;stroke-miterlimit:4;stroke-dasharray:none"
           id="circle1202"
           cx="80.581764"
           cy="70.712997"
           r="2.5" />
        <circle
           style="opacity:0.996458;fill:none;stroke:#000000;stroke-width:0;stroke-miterlimit:4;stroke-dasharray:none"
           id="circle1204"
           cx="80.581764"
           cy="36.862999"
           r="2.5" />
      </g>
      <g
         style="stroke-width:0;stroke-miterlimit:4;stroke-dasharray:none"
         transform="rotate(120,80.581764,53.787998)"
         id="g1212">
        <circle
           r="2.5"
           cy="70.712997"
           cx="80.581764"
           id="circle1208"
           style="opacity:0.996458;fill:none;stroke:#000000;stroke-width:0;stroke-miterlimit:4;stroke-dasharray:none" />
        <circle
           r="2.5"
           cy="36.862999"
           cx="80.581764"
           id="circle1210"
           style="opacity:0.996458;fill:none;stroke:#000000;stroke-width:0;stroke-miterlimit:4;stroke-dasharray:none" />
      </g>
      <g
         style="stroke-width:0;stroke-miterlimit:4;stroke-dasharray:none"
         transform="translate(0,56.730953)"
         id="g1226">
        <g
           id="g1218"
           transform="translate(10.981621,-20.500001)"
           style="stroke-width:0;stroke-miterlimit:4;stroke-dasharray:none">
          <rect
             ry="2.25"
             rx="2.25"
             y="91.807083"
             x="51.850288"
             height="20.5"
             width="4.5"
             id="rect1214"
             style="opacity:0.996458;fill:none;stroke:#000000;stroke-width:0;stroke-miterlimit:4;stroke-dasharray:none" />
          <rect
             style="opacity:0.996458;fill:none;stroke:#000000;stroke-width:0;stroke-miterlimit:4;stroke-dasharray:none"
             id="rect1216"
             width="4.5"
             height="20.5"
             x="82.849998"
             y="91.807083"
             rx="2.25"
             ry="2.25" />
        </g>
        <g
           transform="translate(10.981621,10.499917)"
           id="g1224"
           style="stroke-width:0;stroke-miterlimit:4;stroke-dasharray:none">
          <rect
             style="opacity:0.996458;fill:none;stroke:#000000;stroke-width:0;stroke-miterlimit:4;stroke-dasharray:none"
             id="rect1220"
             width="4.5"
             height="20.5"
             x="51.850288"
             y="91.807083"
             rx="2.25"
             ry="2.25" />
          <rect
             ry="2.25"
             rx="2.25"
             y="91.807083"
             x="82.849998"
             height="20.5"
             width="4.5"
             id="rect1222"
             style="opacity:0.996458;fill:none;stroke:#000000;stroke-width:0;stroke-miterlimit:4;stroke-dasharray:none" />
        </g>
      </g>
      <g
         transform="translate(0.2837255,-4.2333335)"
         id="g1244">
        <g
           id="g1234"
           transform="translate(5.8208336)">
          <circle
             r="5"
             cy="87.263504"
             cx="68.391785"
             id="circle1228"
             style="opacity:0.996458;fill:none;stroke:#000000;stroke-width:0;stroke-miterlimit:4;stroke-dasharray:none" />
          <circle
             r="5"
             cy="99.698921"
             cx="67.33345"
             id="circle1230"
             style="opacity:0.996458;fill:none;stroke:#000000;stroke-width:0;stroke-miterlimit:4;stroke-dasharray:none" />
          <circle
             style="opacity:0.996458;fill:none;stroke:#000000;stroke-width:0;stroke-miterlimit:4;stroke-dasharray:none"
             id="circle1232"
             cx="66.275116"
             cy="112.13433"
             r="5" />
        </g>
        <g
           id="g1242"
           transform="translate(-6.3500003)">
          <circle
             style="opacity:0.996458;fill:none;stroke:#000000;stroke-width:0;stroke-miterlimit:4;stroke-dasharray:none"
             id="circle1236"
             cx="92.733482"
             cy="87.263504"
             r="5" />
          <circle
             style="opacity:0.996458;fill:none;stroke:#000000;stroke-width:0;stroke-miterlimit:4;stroke-dasharray:none"
             id="circle1238"
             cx="94.850128"
             cy="112.13433"
             r="5" />
          <circle
             r="5"
             cy="99.698921"
             cx="93.791817"
             id="circle1240"
             style="opacity:0.996458;fill:none;stroke:#000000;stroke-width:0;stroke-miterlimit:4;stroke-dasharray:none" />
        </g>
      </g>
      <path
         sodipodi:nodetypes="cssccsccsccsccccsssssscscsssssscc"
         d="m 86.581902,181.59395 c -10e-7,2.14359 -1.143595,4.12435 -3.000001,5.19615 -1.856406,1.0718 -4.143594,1.0718 -6,0 -1.856405,-1.0718 -2.999998,-3.05256 -2.999999,-5.19615 m 15.891761,12.3935 c 14.386497,-2.79955 21.358267,-15.42721 21.358267,-30.63256 0,-0.87875 -0.0363,-1.74892 -0.10542,-2.6107 L 103.0149,52.038167 C 102.12202,40.429468 92.419254,31.288013 80.581645,31.288013 c -11.86315,0 -21.581743,9.181222 -22.438424,20.8256 L 49.427989,160.88475 c -0.06404,0.81882 -0.09612,1.64065 -0.09612,2.47014 0,15.20502 6.755765,27.83264 21.141792,30.63256 z m -3.891761,-12.3935 -6.53e-4,-43.80598 c 2.9e-5,-0.41421 -0.04154,-0.81864 -0.121441,-1.20923 -0.0799,-0.39059 -0.198057,-0.76711 -0.349848,-1.12603 -0.151792,-0.35891 -0.337302,-0.70037 -0.55294,-1.01957 -0.215635,-0.3192 -0.46133,-0.61636 -0.732771,-0.88781 -0.271439,-0.27144 -0.568603,-0.51712 -0.887802,-0.73277 -0.319196,-0.21565 -0.660146,-0.40113 -1.019058,-0.55293 -0.358913,-0.15181 -0.73596,-0.26995 -1.126546,-0.34985 -0.390586,-0.08 -0.795014,-0.12196 -1.209227,-0.12196 -0.414214,0 -0.818645,0.0421 -1.209231,0.12196 -0.390586,0.0799 -0.767112,0.19804 -1.126027,0.34985 -0.358918,0.1518 -0.699855,0.33728 -1.019061,0.55293 -0.319207,0.21565 -0.616863,0.46133 -0.888318,0.73277 -0.271454,0.27145 -0.517112,0.56861 -0.732771,0.88781 -0.215659,0.3192 -0.401114,0.66066 -0.552937,1.01957 -0.151826,0.35892 -0.2699,0.73544 -0.34985,1.12603 -0.07995,0.39059 -0.121928,0.79502 -0.121957,1.20923 l 4.38e-4,43.80598"
         style="opacity:0.996458;fill:none;stroke:#000000;stroke-width:0;stroke-miterlimit:4;stroke-dasharray:none"
         id="path1246" />
      <path
         d="m 102.9784,120.85035 a 2.0602297,2.0395201 45.032594 0 1 -2.21419,-1.89352 2.0602297,2.0395201 45.032594 0 1 1.87123,-2.19518 2.0602297,2.0395201 45.032594 0 1 2.21418,1.89352 2.0602297,2.0395201 45.032594 0 1 -1.87122,2.19518"
         style="opacity:0.996458;fill:none;stroke:#000000;stroke-width:0;stroke-miterlimit:4;stroke-dasharray:none"
         id="path1248" />
      <path
         id="path1250"
         style="opacity:0.996458;fill:none;stroke:#000000;stroke-width:0;stroke-miterlimit:4;stroke-dasharray:none"
         d="m 58.528357,121.40032 a 2.0602297,2.0395201 45.032594 0 1 -2.214178,-1.89352 2.0602297,2.0395201 45.032594 0 1 1.871221,-2.19518 2.0602297,2.0395201 45.032594 0 1 2.214168,1.89352 2.0602297,2.0395201 45.032594 0 1 -1.871211,2.19518" />
      <path
         d="m 68.528478,121.40032 a 2.0602297,2.0395201 45.032594 0 1 -2.214178,-1.89352 2.0602297,2.0395201 45.032594 0 1 1.871221,-2.19518 2.0602297,2.0395201 45.032594 0 1 2.214168,1.89352 2.0602297,2.0395201 45.032594 0 1 -1.871211,2.19518"
         style="opacity:0.996458;fill:none;stroke:#000000;stroke-width:0;stroke-miterlimit:4;stroke-dasharray:none"
         id="path1252" />
      <path
         id="path1254"
         style="opacity:0.996458;fill:none;stroke:#000000;stroke-width:0;stroke-miterlimit:4;stroke-dasharray:none"
         d="m 92.97849,120.85035 a 2.0602297,2.0395201 45.032594 0 1 -2.21419,-1.89352 2.0602297,2.0395201 45.032594 0 1 1.87123,-2.19518 2.0602297,2.0395201 45.032594 0 1 2.21418,1.89352 2.0602297,2.0395201 45.032594 0 1 -1.87122,2.19518" />
      <g
         transform="translate(0.67492697,0.52933986)"
         id="g1260">
        <path
           d="m 87.578488,192.27901 a 2.0602297,2.0395201 45.032594 0 1 -2.21419,-1.89352 2.0602297,2.0395201 45.032594 0 1 1.87123,-2.19518 2.0602297,2.0395201 45.032594 0 1 2.21418,1.89352 2.0602297,2.0395201 45.032594 0 1 -1.87122,2.19518"
           style="opacity:0.996458;fill:none;stroke:#000000;stroke-width:0;stroke-miterlimit:4;stroke-dasharray:none"
           id="path1256" />
        <path
           id="path1258"
           style="opacity:0.996458;fill:none;stroke:#000000;stroke-width:0;stroke-miterlimit:4;stroke-dasharray:none"
           d="m 72.578427,192.27901 a 2.0602297,2.0395201 45.032594 0 1 -2.21419,-1.89352 2.0602297,2.0395201 45.032594 0 1 1.87123,-2.19518 2.0602297,2.0395201 45.032594 0 1 2.21418,1.89352 2.0602297,2.0395201 45.032594 0 1 -1.87122,2.19518" />
      </g>
      <path
         d="m 79.832139,121.42686 v 2.99982 h -3.000204 v 1.49992 h 3.000204 v 3.00022 h 1.499908 v -3.00022 h 2.999817 v -1.49992 h -2.999817 v -2.99982 z"
         style="opacity:0.996458;fill:none;stroke:#000000;stroke-width:0;stroke-miterlimit:4;stroke-dasharray:none"
         id="path1262" />
    </g>
  </g>
</svg>
